<?xml version="1.0" standalone="no"?>
<!DOCTYPE svg PUBLIC "-//W3C//DTD SVG 1.1//EN" 
  "http://www.w3.org/Graphics/SVG/1.1/DTD/svg11.dtd">
<svg width="1024" height="1024" viewBox="0 0 1024 1024"
     xmlns="http://www.w3.org/2000/svg" version="1.1">
<desc>, (Blender 4.0.2)</desc>
<polygon stroke="black" stroke-width="1" fill="rgb(128, 128, 128)" fill-opacity="0.25" points="901.120,182.989 857.293,183.091 870.298,897.434 " />
<polygon stroke="black" stroke-width="1" fill="rgb(128, 128, 128)" fill-opacity="0.25" points="676.147,185.651 615.629,186.061 650.240,898.970 " />
<polygon stroke="black" stroke-width="1" fill="rgb(128, 128, 128)" fill-opacity="0.25" points="422.195,184.320 345.600,185.446 407.347,898.253 " />
<polygon stroke="black" stroke-width="1" fill="rgb(128, 128, 128)" fill-opacity="0.25" points="132.301,93.082 115.610,146.637 163.942,148.070 " />
<polygon stroke="black" stroke-width="1" fill="rgb(128, 128, 128)" fill-opacity="0.25" points="114.688,184.934 141.619,899.277 163.226,184.115 " />
<polygon stroke="black" stroke-width="1" fill="rgb(128, 128, 128)" fill-opacity="0.25" points="900.198,147.661 882.483,94.925 856.371,148.685 " />
<polygon stroke="black" stroke-width="1" fill="rgb(128, 128, 128)" fill-opacity="0.25" points="675.328,147.251 649.830,92.774 614.502,148.378 " />
<polygon stroke="black" stroke-width="1" fill="rgb(128, 128, 128)" fill-opacity="0.25" points="421.683,149.606 380.518,96.973 345.088,150.733 " />
<polygon stroke="black" stroke-width="1" fill="rgb(128, 128, 128)" fill-opacity="0.25" points="298.394,127.590 345.088,150.733 380.518,96.973 336.794,68.710 " />
<polygon stroke="black" stroke-width="1" fill="rgb(128, 128, 128)" fill-opacity="0.25" points="422.195,184.320 485.069,184.115 421.683,149.606 " />
<polygon stroke="black" stroke-width="1" fill="rgb(128, 128, 128)" fill-opacity="0.25" points="485.069,184.115 422.195,184.320 407.347,898.253 470.221,900.608 " />
<polygon stroke="black" stroke-width="1" fill="rgb(128, 128, 128)" fill-opacity="0.25" points="282.931,189.338 344.678,904.806 407.347,898.253 345.600,185.446 " />
<polygon stroke="black" stroke-width="1" fill="rgb(128, 128, 128)" fill-opacity="0.25" points="422.195,184.320 421.683,149.606 345.088,150.733 345.600,185.446 " />
<polygon stroke="black" stroke-width="1" fill="rgb(128, 128, 128)" fill-opacity="0.25" points="226.099,185.139 211.763,126.259 163.942,148.070 " />
<polygon stroke="black" stroke-width="1" fill="rgb(128, 128, 128)" fill-opacity="0.25" points="104.346,83.661 87.450,140.493 115.610,146.637 132.301,93.082 " />
<polygon stroke="black" stroke-width="1" fill="rgb(128, 128, 128)" fill-opacity="0.25" points="226.099,185.139 163.226,184.115 141.619,899.277 204.595,901.632 " />
<polygon stroke="black" stroke-width="1" fill="rgb(128, 128, 128)" fill-opacity="0.25" points="81.101,185.754 108.032,901.018 141.619,899.277 114.688,184.934 " />
<polygon stroke="black" stroke-width="1" fill="rgb(128, 128, 128)" fill-opacity="0.25" points="226.099,185.139 163.942,148.070 163.226,184.115 " />
<polygon stroke="black" stroke-width="1" fill="rgb(128, 128, 128)" fill-opacity="0.25" points="901.120,182.989 934.707,184.115 900.198,147.661 " />
<polygon stroke="black" stroke-width="1" fill="rgb(128, 128, 128)" fill-opacity="0.25" points="843.264,75.981 816.742,133.018 856.371,148.685 882.483,94.925 " />
<polygon stroke="black" stroke-width="1" fill="rgb(128, 128, 128)" fill-opacity="0.25" points="604.774,65.434 568.627,127.283 614.502,148.378 649.830,92.774 " />
<polygon stroke="black" stroke-width="1" fill="rgb(128, 128, 128)" fill-opacity="0.25" points="676.147,185.651 727.245,186.470 675.328,147.251 " />
<polygon stroke="black" stroke-width="1" fill="rgb(128, 128, 128)" fill-opacity="0.25" points="806.093,183.501 819.200,898.765 870.298,897.434 857.293,183.091 " />
<polygon stroke="black" stroke-width="1" fill="rgb(128, 128, 128)" fill-opacity="0.25" points="901.120,182.989 900.198,147.661 856.371,148.685 857.293,183.091 " />
<polygon stroke="black" stroke-width="1" fill="rgb(128, 128, 128)" fill-opacity="0.25" points="934.707,184.115 901.120,182.989 870.298,897.434 903.885,899.277 " />
<polygon stroke="black" stroke-width="1" fill="rgb(128, 128, 128)" fill-opacity="0.25" points="552.755,187.904 587.469,902.861 650.240,898.970 615.629,186.061 " />
<polygon stroke="black" stroke-width="1" fill="rgb(128, 128, 128)" fill-opacity="0.25" points="676.147,185.651 675.328,147.251 614.502,148.378 615.629,186.061 " />
<polygon stroke="black" stroke-width="1" fill="rgb(128, 128, 128)" fill-opacity="0.25" points="727.245,186.470 676.147,185.651 650.240,898.970 701.338,901.734 " />
<polygon stroke="black" stroke-width="1" fill="rgb(128, 128, 128)" fill-opacity="0.25" points="178.586,67.482 164.454,49.766 135.475,66.355 132.301,93.082 " />
<polygon stroke="black" stroke-width="1" fill="rgb(128, 128, 128)" fill-opacity="0.25" points="421.069,65.638 404.070,48.742 379.290,69.734 380.518,96.973 " />
<polygon stroke="black" stroke-width="1" fill="rgb(128, 128, 128)" fill-opacity="0.25" points="132.301,93.082 135.475,66.355 118.682,59.187 104.346,83.661 " />
<polygon stroke="black" stroke-width="1" fill="rgb(128, 128, 128)" fill-opacity="0.25" points="909.722,84.992 897.638,60.006 880.640,67.277 882.483,94.925 " />
<polygon stroke="black" stroke-width="1" fill="rgb(128, 128, 128)" fill-opacity="0.25" points="882.483,94.925 880.640,67.277 856.269,54.886 843.264,75.981 " />
<polygon stroke="black" stroke-width="1" fill="rgb(128, 128, 128)" fill-opacity="0.25" points="649.830,92.774 648.602,66.560 621.261,48.435 604.774,65.434 " />
<polygon stroke="black" stroke-width="1" fill="rgb(128, 128, 128)" fill-opacity="0.25" points="688.128,74.445 672.563,53.658 648.602,66.560 649.830,92.774 " />
<polygon stroke="black" stroke-width="1" fill="rgb(128, 128, 128)" fill-opacity="0.25" points="450.765,957.952 410.112,948.531 410.419,997.990 " />
<polygon stroke="black" stroke-width="1" fill="rgb(128, 128, 128)" fill-opacity="0.25" points="344.678,904.806 357.581,939.930 409.293,928.870 407.347,898.253 " />
<polygon stroke="black" stroke-width="1" fill="rgb(128, 128, 128)" fill-opacity="0.25" points="191.898,957.850 151.040,952.627 159.642,996.966 " />
<polygon stroke="black" stroke-width="1" fill="rgb(128, 128, 128)" fill-opacity="0.25" points="108.032,901.018 118.784,938.086 146.944,931.738 141.619,899.277 " />
<polygon stroke="black" stroke-width="1" fill="rgb(128, 128, 128)" fill-opacity="0.25" points="819.200,898.765 823.296,934.810 867.533,930.611 870.298,897.434 " />
<polygon stroke="black" stroke-width="1" fill="rgb(128, 128, 128)" fill-opacity="0.25" points="885.760,958.464 864.973,952.013 858.419,995.738 " />
<polygon stroke="black" stroke-width="1" fill="rgb(128, 128, 128)" fill-opacity="0.25" points="587.469,902.861 592.384,937.882 646.656,930.406 650.240,898.970 " />
<polygon stroke="black" stroke-width="1" fill="rgb(128, 128, 128)" fill-opacity="0.25" points="676.352,959.898 644.915,950.579 643.789,997.786 " />
<polygon stroke="black" stroke-width="1" fill="rgb(128, 128, 128)" fill-opacity="0.25" points="352.154,50.586 379.290,69.734 376.218,26.010 " />
<polygon stroke="black" stroke-width="1" fill="rgb(128, 128, 128)" fill-opacity="0.25" points="928.461,139.981 909.722,84.992 882.483,94.925 900.198,147.661 " />
<polygon stroke="black" stroke-width="1" fill="rgb(128, 128, 128)" fill-opacity="0.25" points="715.776,133.325 688.128,74.445 649.830,92.774 675.328,147.251 " />
<polygon stroke="black" stroke-width="1" fill="rgb(128, 128, 128)" fill-opacity="0.25" points="163.942,148.070 115.610,146.637 114.688,184.934 163.226,184.115 " />
<polygon stroke="black" stroke-width="1" fill="rgb(128, 128, 128)" fill-opacity="0.25" points="298.394,127.590 282.931,189.338 345.088,150.733 " />
<polygon stroke="black" stroke-width="1" fill="rgb(128, 128, 128)" fill-opacity="0.25" points="211.763,126.259 178.586,67.482 132.301,93.082 163.942,148.070 " />
<polygon stroke="black" stroke-width="1" fill="rgb(128, 128, 128)" fill-opacity="0.25" points="345.088,150.733 282.931,189.338 345.600,185.446 " />
<polygon stroke="black" stroke-width="1" fill="rgb(128, 128, 128)" fill-opacity="0.25" points="614.502,148.378 552.755,187.904 615.629,186.061 " />
<polygon stroke="black" stroke-width="1" fill="rgb(128, 128, 128)" fill-opacity="0.25" points="465.408,123.085 421.069,65.638 380.518,96.973 421.683,149.606 " />
<polygon stroke="black" stroke-width="1" fill="rgb(128, 128, 128)" fill-opacity="0.25" points="806.093,183.501 857.293,183.091 856.371,148.685 " />
<polygon stroke="black" stroke-width="1" fill="rgb(128, 128, 128)" fill-opacity="0.25" points="727.245,186.470 715.776,133.325 675.328,147.251 " />
<polygon stroke="black" stroke-width="1" fill="rgb(128, 128, 128)" fill-opacity="0.25" points="806.093,183.501 856.371,148.685 816.742,133.018 " />
<polygon stroke="black" stroke-width="1" fill="rgb(128, 128, 128)" fill-opacity="0.25" points="81.101,185.754 115.610,146.637 87.450,140.493 " />
<polygon stroke="black" stroke-width="1" fill="rgb(128, 128, 128)" fill-opacity="0.25" points="934.707,184.115 928.461,139.981 900.198,147.661 " />
<polygon stroke="black" stroke-width="1" fill="rgb(128, 128, 128)" fill-opacity="0.25" points="81.101,185.754 114.688,184.934 115.610,146.637 " />
<polygon stroke="black" stroke-width="1" fill="rgb(128, 128, 128)" fill-opacity="0.25" points="614.502,148.378 568.627,127.283 552.755,187.904 " />
<polygon stroke="black" stroke-width="1" fill="rgb(128, 128, 128)" fill-opacity="0.25" points="485.069,184.115 465.408,123.085 421.683,149.606 " />
<polygon stroke="black" stroke-width="1" fill="rgb(128, 128, 128)" fill-opacity="0.25" points="462.950,936.141 470.221,900.608 407.347,898.253 409.293,928.870 " />
<polygon stroke="black" stroke-width="1" fill="rgb(128, 128, 128)" fill-opacity="0.25" points="357.581,939.930 371.610,960.512 410.112,948.531 409.293,928.870 " />
<polygon stroke="black" stroke-width="1" fill="rgb(128, 128, 128)" fill-opacity="0.25" points="201.318,936.858 204.595,901.632 141.619,899.277 146.944,931.738 " />
<polygon stroke="black" stroke-width="1" fill="rgb(128, 128, 128)" fill-opacity="0.25" points="118.784,938.086 130.662,960.205 151.040,952.627 146.944,931.738 " />
<polygon stroke="black" stroke-width="1" fill="rgb(128, 128, 128)" fill-opacity="0.25" points="823.296,934.810 831.795,956.518 864.973,952.013 867.533,930.611 " />
<polygon stroke="black" stroke-width="1" fill="rgb(128, 128, 128)" fill-opacity="0.25" points="896.102,936.346 903.885,899.277 870.298,897.434 867.533,930.611 " />
<polygon stroke="black" stroke-width="1" fill="rgb(128, 128, 128)" fill-opacity="0.25" points="592.384,937.882 603.955,959.078 644.915,950.579 646.656,930.406 " />
<polygon stroke="black" stroke-width="1" fill="rgb(128, 128, 128)" fill-opacity="0.25" points="689.254,938.086 701.338,901.734 650.240,898.970 646.656,930.406 " />
<polygon stroke="black" stroke-width="1" fill="rgb(128, 128, 128)" fill-opacity="0.25" points="450.765,957.952 462.950,936.141 409.293,928.870 410.112,948.531 " />
<polygon stroke="black" stroke-width="1" fill="rgb(128, 128, 128)" fill-opacity="0.25" points="191.898,957.850 201.318,936.858 146.944,931.738 151.040,952.627 " />
<polygon stroke="black" stroke-width="1" fill="rgb(128, 128, 128)" fill-opacity="0.25" points="885.760,958.464 896.102,936.346 867.533,930.611 864.973,952.013 " />
<polygon stroke="black" stroke-width="1" fill="rgb(128, 128, 128)" fill-opacity="0.25" points="676.352,959.898 689.254,938.086 646.656,930.406 644.915,950.579 " />
<polygon stroke="black" stroke-width="1" fill="rgb(128, 128, 128)" fill-opacity="0.25" points="371.610,960.512 410.419,997.990 410.112,948.531 " />
<polygon stroke="black" stroke-width="1" fill="rgb(128, 128, 128)" fill-opacity="0.25" points="130.662,960.205 159.642,996.966 151.040,952.627 " />
<polygon stroke="black" stroke-width="1" fill="rgb(128, 128, 128)" fill-opacity="0.25" points="831.795,956.518 858.419,995.738 864.973,952.013 " />
<polygon stroke="black" stroke-width="1" fill="rgb(128, 128, 128)" fill-opacity="0.25" points="603.955,959.078 643.789,997.786 644.915,950.579 " />
<polygon stroke="black" stroke-width="1" fill="rgb(128, 128, 128)" fill-opacity="0.25" points="164.454,49.766 139.571,27.034 135.475,66.355 " />
<polygon stroke="black" stroke-width="1" fill="rgb(128, 128, 128)" fill-opacity="0.25" points="404.070,48.742 376.218,26.010 379.290,69.734 " />
<polygon stroke="black" stroke-width="1" fill="rgb(128, 128, 128)" fill-opacity="0.25" points="135.475,66.355 139.571,27.034 118.682,59.187 " />
<polygon stroke="black" stroke-width="1" fill="rgb(128, 128, 128)" fill-opacity="0.25" points="897.638,60.006 877.978,27.341 880.640,67.277 " />
<polygon stroke="black" stroke-width="1" fill="rgb(128, 128, 128)" fill-opacity="0.25" points="880.640,67.277 877.978,27.341 856.269,54.886 " />
<polygon stroke="black" stroke-width="1" fill="rgb(128, 128, 128)" fill-opacity="0.25" points="648.602,66.560 649.318,26.214 621.261,48.435 " />
<polygon stroke="black" stroke-width="1" fill="rgb(128, 128, 128)" fill-opacity="0.25" points="672.563,53.658 649.318,26.214 648.602,66.560 " />
<polygon stroke="black" stroke-width="1" fill="rgb(128, 128, 128)" fill-opacity="0.25" points="352.154,50.586 336.794,68.710 380.518,96.973 379.290,69.734 " />

</svg>
