<?xml version="1.0" standalone="no"?>
<!DOCTYPE svg PUBLIC "-//W3C//DTD SVG 1.1//EN" 
  "http://www.w3.org/Graphics/SVG/1.1/DTD/svg11.dtd">
<svg width="1024" height="1024" viewBox="0 0 1024 1024"
     xmlns="http://www.w3.org/2000/svg" version="1.1">
<desc>, (Blender 4.0.2)</desc>
<polygon stroke="black" stroke-width="1" fill="rgb(128, 128, 128)" fill-opacity="0.25" points="870.502,897.434 883.507,183.091 839.680,182.989 " />
<polygon stroke="black" stroke-width="1" fill="rgb(128, 128, 128)" fill-opacity="0.25" points="143.360,898.970 177.971,186.061 117.453,185.651 " />
<polygon stroke="black" stroke-width="1" fill="rgb(128, 128, 128)" fill-opacity="0.25" points="360.653,898.253 422.400,185.446 345.805,184.320 " />
<polygon stroke="black" stroke-width="1" fill="rgb(128, 128, 128)" fill-opacity="0.25" points="629.658,148.480 677.990,147.149 661.299,93.491 " />
<polygon stroke="black" stroke-width="1" fill="rgb(128, 128, 128)" fill-opacity="0.25" points="630.374,184.627 651.981,899.686 678.912,185.446 " />
<polygon stroke="black" stroke-width="1" fill="rgb(128, 128, 128)" fill-opacity="0.25" points="884.429,148.685 858.317,94.925 840.602,147.661 " />
<polygon stroke="black" stroke-width="1" fill="rgb(128, 128, 128)" fill-opacity="0.25" points="179.098,148.378 143.770,92.774 118.272,147.251 " />
<polygon stroke="black" stroke-width="1" fill="rgb(128, 128, 128)" fill-opacity="0.25" points="422.912,150.733 387.482,96.973 346.317,149.606 " />
<polygon stroke="black" stroke-width="1" fill="rgb(128, 128, 128)" fill-opacity="0.25" points="431.206,68.710 387.482,96.973 422.912,150.733 469.606,127.590 " />
<polygon stroke="black" stroke-width="1" fill="rgb(128, 128, 128)" fill-opacity="0.25" points="346.317,149.606 282.931,184.115 345.805,184.320 " />
<polygon stroke="black" stroke-width="1" fill="rgb(128, 128, 128)" fill-opacity="0.25" points="297.779,900.608 360.653,898.253 345.805,184.320 282.931,184.115 " />
<polygon stroke="black" stroke-width="1" fill="rgb(128, 128, 128)" fill-opacity="0.25" points="422.400,185.446 360.653,898.253 423.322,904.806 485.069,189.338 " />
<polygon stroke="black" stroke-width="1" fill="rgb(128, 128, 128)" fill-opacity="0.25" points="422.400,185.446 422.912,150.733 346.317,149.606 345.805,184.320 " />
<polygon stroke="black" stroke-width="1" fill="rgb(128, 128, 128)" fill-opacity="0.25" points="629.658,148.480 581.837,126.669 567.501,185.549 " />
<polygon stroke="black" stroke-width="1" fill="rgb(128, 128, 128)" fill-opacity="0.25" points="661.299,93.491 677.990,147.149 706.150,140.902 689.254,84.173 " />
<polygon stroke="black" stroke-width="1" fill="rgb(128, 128, 128)" fill-opacity="0.25" points="589.005,902.042 651.981,899.686 630.374,184.627 567.501,185.549 " />
<polygon stroke="black" stroke-width="1" fill="rgb(128, 128, 128)" fill-opacity="0.25" points="678.912,185.446 651.981,899.686 685.568,901.427 712.499,186.163 " />
<polygon stroke="black" stroke-width="1" fill="rgb(128, 128, 128)" fill-opacity="0.25" points="630.374,184.627 629.658,148.480 567.501,185.549 " />
<polygon stroke="black" stroke-width="1" fill="rgb(128, 128, 128)" fill-opacity="0.25" points="840.602,147.661 806.093,184.115 839.680,182.989 " />
<polygon stroke="black" stroke-width="1" fill="rgb(128, 128, 128)" fill-opacity="0.25" points="858.317,94.925 884.429,148.685 924.058,133.018 897.536,75.981 " />
<polygon stroke="black" stroke-width="1" fill="rgb(128, 128, 128)" fill-opacity="0.25" points="143.770,92.774 179.098,148.378 224.973,127.283 188.826,65.434 " />
<polygon stroke="black" stroke-width="1" fill="rgb(128, 128, 128)" fill-opacity="0.25" points="118.272,147.251 66.355,186.470 117.453,185.651 " />
<polygon stroke="black" stroke-width="1" fill="rgb(128, 128, 128)" fill-opacity="0.25" points="883.507,183.091 870.502,897.434 921.600,898.765 934.707,183.501 " />
<polygon stroke="black" stroke-width="1" fill="rgb(128, 128, 128)" fill-opacity="0.25" points="883.507,183.091 884.429,148.685 840.602,147.661 839.680,182.989 " />
<polygon stroke="black" stroke-width="1" fill="rgb(128, 128, 128)" fill-opacity="0.25" points="836.915,899.277 870.502,897.434 839.680,182.989 806.093,184.115 " />
<polygon stroke="black" stroke-width="1" fill="rgb(128, 128, 128)" fill-opacity="0.25" points="177.971,186.061 143.360,898.970 206.131,902.861 240.845,187.904 " />
<polygon stroke="black" stroke-width="1" fill="rgb(128, 128, 128)" fill-opacity="0.25" points="177.971,186.061 179.098,148.378 118.272,147.251 117.453,185.651 " />
<polygon stroke="black" stroke-width="1" fill="rgb(128, 128, 128)" fill-opacity="0.25" points="92.262,901.734 143.360,898.970 117.453,185.651 66.355,186.470 " />
<polygon stroke="black" stroke-width="1" fill="rgb(128, 128, 128)" fill-opacity="0.25" points="661.299,93.491 658.125,66.867 629.146,50.278 615.014,67.891 " />
<polygon stroke="black" stroke-width="1" fill="rgb(128, 128, 128)" fill-opacity="0.25" points="387.482,96.973 388.710,69.734 363.930,48.742 346.931,65.638 " />
<polygon stroke="black" stroke-width="1" fill="rgb(128, 128, 128)" fill-opacity="0.25" points="689.254,84.173 675.021,59.597 658.125,66.867 661.299,93.491 " />
<polygon stroke="black" stroke-width="1" fill="rgb(128, 128, 128)" fill-opacity="0.25" points="858.317,94.925 860.160,67.277 843.162,60.006 831.078,84.992 " />
<polygon stroke="black" stroke-width="1" fill="rgb(128, 128, 128)" fill-opacity="0.25" points="897.536,75.981 884.531,54.886 860.160,67.277 858.317,94.925 " />
<polygon stroke="black" stroke-width="1" fill="rgb(128, 128, 128)" fill-opacity="0.25" points="188.826,65.434 172.339,48.435 144.998,66.560 143.770,92.774 " />
<polygon stroke="black" stroke-width="1" fill="rgb(128, 128, 128)" fill-opacity="0.25" points="143.770,92.774 144.998,66.560 121.037,53.658 105.472,74.445 " />
<polygon stroke="black" stroke-width="1" fill="rgb(128, 128, 128)" fill-opacity="0.25" points="357.581,997.990 357.888,948.531 317.235,957.952 " />
<polygon stroke="black" stroke-width="1" fill="rgb(128, 128, 128)" fill-opacity="0.25" points="360.653,898.253 358.707,928.870 410.419,939.930 423.322,904.806 " />
<polygon stroke="black" stroke-width="1" fill="rgb(128, 128, 128)" fill-opacity="0.25" points="633.958,997.376 642.560,953.139 601.702,958.362 " />
<polygon stroke="black" stroke-width="1" fill="rgb(128, 128, 128)" fill-opacity="0.25" points="651.981,899.686 646.656,932.250 674.816,938.496 685.568,901.427 " />
<polygon stroke="black" stroke-width="1" fill="rgb(128, 128, 128)" fill-opacity="0.25" points="870.502,897.434 873.267,930.611 917.504,934.810 921.600,898.765 " />
<polygon stroke="black" stroke-width="1" fill="rgb(128, 128, 128)" fill-opacity="0.25" points="882.381,995.738 875.827,952.013 855.040,958.464 " />
<polygon stroke="black" stroke-width="1" fill="rgb(128, 128, 128)" fill-opacity="0.25" points="143.360,898.970 146.944,930.406 201.216,937.882 206.131,902.861 " />
<polygon stroke="black" stroke-width="1" fill="rgb(128, 128, 128)" fill-opacity="0.25" points="149.811,997.786 148.685,950.579 117.248,959.898 " />
<polygon stroke="black" stroke-width="1" fill="rgb(128, 128, 128)" fill-opacity="0.25" points="391.782,26.010 388.710,69.734 415.846,50.586 " />
<polygon stroke="black" stroke-width="1" fill="rgb(128, 128, 128)" fill-opacity="0.25" points="840.602,147.661 858.317,94.925 831.078,84.992 812.339,139.981 " />
<polygon stroke="black" stroke-width="1" fill="rgb(128, 128, 128)" fill-opacity="0.25" points="118.272,147.251 143.770,92.774 105.472,74.445 77.824,133.325 " />
<polygon stroke="black" stroke-width="1" fill="rgb(128, 128, 128)" fill-opacity="0.25" points="630.374,184.627 678.912,185.446 677.990,147.149 629.658,148.480 " />
<polygon stroke="black" stroke-width="1" fill="rgb(128, 128, 128)" fill-opacity="0.25" points="422.912,150.733 485.069,189.338 469.606,127.590 " />
<polygon stroke="black" stroke-width="1" fill="rgb(128, 128, 128)" fill-opacity="0.25" points="629.658,148.480 661.299,93.491 615.014,67.891 581.837,126.669 " />
<polygon stroke="black" stroke-width="1" fill="rgb(128, 128, 128)" fill-opacity="0.25" points="422.400,185.446 485.069,189.338 422.912,150.733 " />
<polygon stroke="black" stroke-width="1" fill="rgb(128, 128, 128)" fill-opacity="0.25" points="177.971,186.061 240.845,187.904 179.098,148.378 " />
<polygon stroke="black" stroke-width="1" fill="rgb(128, 128, 128)" fill-opacity="0.25" points="346.317,149.606 387.482,96.973 346.931,65.638 302.592,123.085 " />
<polygon stroke="black" stroke-width="1" fill="rgb(128, 128, 128)" fill-opacity="0.25" points="884.429,148.685 883.507,183.091 934.707,183.501 " />
<polygon stroke="black" stroke-width="1" fill="rgb(128, 128, 128)" fill-opacity="0.25" points="118.272,147.251 77.824,133.325 66.355,186.470 " />
<polygon stroke="black" stroke-width="1" fill="rgb(128, 128, 128)" fill-opacity="0.25" points="924.058,133.018 884.429,148.685 934.707,183.501 " />
<polygon stroke="black" stroke-width="1" fill="rgb(128, 128, 128)" fill-opacity="0.25" points="706.150,140.902 677.990,147.149 712.499,186.163 " />
<polygon stroke="black" stroke-width="1" fill="rgb(128, 128, 128)" fill-opacity="0.25" points="840.602,147.661 812.339,139.981 806.093,184.115 " />
<polygon stroke="black" stroke-width="1" fill="rgb(128, 128, 128)" fill-opacity="0.25" points="677.990,147.149 678.912,185.446 712.499,186.163 " />
<polygon stroke="black" stroke-width="1" fill="rgb(128, 128, 128)" fill-opacity="0.25" points="240.845,187.904 224.973,127.283 179.098,148.378 " />
<polygon stroke="black" stroke-width="1" fill="rgb(128, 128, 128)" fill-opacity="0.25" points="346.317,149.606 302.592,123.085 282.931,184.115 " />
<polygon stroke="black" stroke-width="1" fill="rgb(128, 128, 128)" fill-opacity="0.25" points="358.707,928.870 360.653,898.253 297.779,900.608 305.050,936.141 " />
<polygon stroke="black" stroke-width="1" fill="rgb(128, 128, 128)" fill-opacity="0.25" points="358.707,928.870 357.888,948.531 396.390,960.512 410.419,939.930 " />
<polygon stroke="black" stroke-width="1" fill="rgb(128, 128, 128)" fill-opacity="0.25" points="646.656,932.250 651.981,899.686 589.005,902.042 592.282,937.267 " />
<polygon stroke="black" stroke-width="1" fill="rgb(128, 128, 128)" fill-opacity="0.25" points="646.656,932.250 642.560,953.139 662.938,960.614 674.816,938.496 " />
<polygon stroke="black" stroke-width="1" fill="rgb(128, 128, 128)" fill-opacity="0.25" points="873.267,930.611 875.827,952.013 909.005,956.518 917.504,934.810 " />
<polygon stroke="black" stroke-width="1" fill="rgb(128, 128, 128)" fill-opacity="0.25" points="873.267,930.611 870.502,897.434 836.915,899.277 844.698,936.346 " />
<polygon stroke="black" stroke-width="1" fill="rgb(128, 128, 128)" fill-opacity="0.25" points="146.944,930.406 148.685,950.579 189.645,959.078 201.216,937.882 " />
<polygon stroke="black" stroke-width="1" fill="rgb(128, 128, 128)" fill-opacity="0.25" points="146.944,930.406 143.360,898.970 92.262,901.734 104.346,938.086 " />
<polygon stroke="black" stroke-width="1" fill="rgb(128, 128, 128)" fill-opacity="0.25" points="357.888,948.531 358.707,928.870 305.050,936.141 317.235,957.952 " />
<polygon stroke="black" stroke-width="1" fill="rgb(128, 128, 128)" fill-opacity="0.25" points="642.560,953.139 646.656,932.250 592.282,937.267 601.702,958.362 " />
<polygon stroke="black" stroke-width="1" fill="rgb(128, 128, 128)" fill-opacity="0.25" points="875.827,952.013 873.267,930.611 844.698,936.346 855.040,958.464 " />
<polygon stroke="black" stroke-width="1" fill="rgb(128, 128, 128)" fill-opacity="0.25" points="148.685,950.579 146.944,930.406 104.346,938.086 117.248,959.898 " />
<polygon stroke="black" stroke-width="1" fill="rgb(128, 128, 128)" fill-opacity="0.25" points="357.888,948.531 357.581,997.990 396.390,960.512 " />
<polygon stroke="black" stroke-width="1" fill="rgb(128, 128, 128)" fill-opacity="0.25" points="642.560,953.139 633.958,997.376 662.938,960.614 " />
<polygon stroke="black" stroke-width="1" fill="rgb(128, 128, 128)" fill-opacity="0.25" points="875.827,952.013 882.381,995.738 909.005,956.518 " />
<polygon stroke="black" stroke-width="1" fill="rgb(128, 128, 128)" fill-opacity="0.25" points="148.685,950.579 149.811,997.786 189.645,959.078 " />
<polygon stroke="black" stroke-width="1" fill="rgb(128, 128, 128)" fill-opacity="0.25" points="658.125,66.867 654.029,27.546 629.146,50.278 " />
<polygon stroke="black" stroke-width="1" fill="rgb(128, 128, 128)" fill-opacity="0.25" points="388.710,69.734 391.782,26.010 363.930,48.742 " />
<polygon stroke="black" stroke-width="1" fill="rgb(128, 128, 128)" fill-opacity="0.25" points="675.021,59.597 654.029,27.546 658.125,66.867 " />
<polygon stroke="black" stroke-width="1" fill="rgb(128, 128, 128)" fill-opacity="0.25" points="860.160,67.277 862.822,27.341 843.162,60.006 " />
<polygon stroke="black" stroke-width="1" fill="rgb(128, 128, 128)" fill-opacity="0.25" points="884.531,54.886 862.822,27.341 860.160,67.277 " />
<polygon stroke="black" stroke-width="1" fill="rgb(128, 128, 128)" fill-opacity="0.25" points="172.339,48.435 144.282,26.214 144.998,66.560 " />
<polygon stroke="black" stroke-width="1" fill="rgb(128, 128, 128)" fill-opacity="0.25" points="144.998,66.560 144.282,26.214 121.037,53.658 " />
<polygon stroke="black" stroke-width="1" fill="rgb(128, 128, 128)" fill-opacity="0.25" points="388.710,69.734 387.482,96.973 431.206,68.710 415.846,50.586 " />

</svg>
