<?xml version="1.0" standalone="no"?>
<!DOCTYPE svg PUBLIC "-//W3C//DTD SVG 1.1//EN" 
  "http://www.w3.org/Graphics/SVG/1.1/DTD/svg11.dtd">
<svg width="1024" height="1024" viewBox="0 0 1024 1024"
     xmlns="http://www.w3.org/2000/svg" version="1.1">
<desc>, (Blender 4.0.2)</desc>
<polygon stroke="black" stroke-width="1" fill="rgb(128, 128, 128)" fill-opacity="0.25" points="260.915,319.795 260.915,365.158 322.765,365.158 322.765,319.898 " />
<polygon stroke="black" stroke-width="1" fill="rgb(128, 128, 128)" fill-opacity="0.25" points="322.765,319.898 322.765,365.158 384.614,365.158 384.614,319.898 " />
<polygon stroke="black" stroke-width="1" fill="rgb(128, 128, 128)" fill-opacity="0.25" points="384.614,319.898 384.614,365.158 446.464,365.158 446.464,319.898 " />
<polygon stroke="black" stroke-width="1" fill="rgb(128, 128, 128)" fill-opacity="0.25" points="446.464,319.898 446.464,365.158 508.314,365.158 508.314,319.898 " />
<polygon stroke="black" stroke-width="1" fill="rgb(128, 128, 128)" fill-opacity="0.25" points="508.314,319.898 508.314,365.158 570.266,365.261 570.266,319.898 " />
<polygon stroke="black" stroke-width="1" fill="rgb(128, 128, 128)" fill-opacity="0.25" points="570.266,319.898 570.266,365.261 632.115,365.261 632.115,319.898 " />
<polygon stroke="black" stroke-width="1" fill="rgb(128, 128, 128)" fill-opacity="0.25" points="632.115,319.898 632.115,365.261 693.965,365.261 693.965,319.898 " />
<polygon stroke="black" stroke-width="1" fill="rgb(128, 128, 128)" fill-opacity="0.25" points="693.965,319.898 693.965,365.261 755.814,365.261 755.814,320.000 " />
<polygon stroke="black" stroke-width="1" fill="rgb(128, 128, 128)" fill-opacity="0.25" points="755.814,320.000 755.814,365.261 817.664,365.261 817.664,320.000 " />
<polygon stroke="black" stroke-width="1" fill="rgb(128, 128, 128)" fill-opacity="0.25" points="817.664,320.000 817.664,365.261 879.616,365.261 879.616,320.000 " />
<polygon stroke="black" stroke-width="1" fill="rgb(128, 128, 128)" fill-opacity="0.25" points="137.114,319.795 137.114,365.056 198.963,365.158 198.963,319.795 " />
<polygon stroke="black" stroke-width="1" fill="rgb(128, 128, 128)" fill-opacity="0.25" points="198.963,319.795 198.963,365.158 260.915,365.158 260.915,319.795 " />
<polygon stroke="black" stroke-width="1" fill="rgb(128, 128, 128)" fill-opacity="0.25" points="276.480,176.333 322.253,220.672 359.629,171.622 320.922,130.662 " />
<polygon stroke="black" stroke-width="1" fill="rgb(128, 128, 128)" fill-opacity="0.25" points="322.253,220.672 376.525,258.970 403.968,204.698 359.629,171.622 " />
<polygon stroke="black" stroke-width="1" fill="rgb(128, 128, 128)" fill-opacity="0.25" points="376.525,258.970 439.910,284.979 454.349,226.406 403.968,204.698 " />
<polygon stroke="black" stroke-width="1" fill="rgb(128, 128, 128)" fill-opacity="0.25" points="439.910,284.979 508.723,294.298 508.518,234.189 454.349,226.406 " />
<polygon stroke="black" stroke-width="1" fill="rgb(128, 128, 128)" fill-opacity="0.25" points="508.723,294.298 577.434,285.286 562.893,227.021 508.518,234.189 " />
<polygon stroke="black" stroke-width="1" fill="rgb(128, 128, 128)" fill-opacity="0.25" points="577.434,285.286 640.614,259.789 613.478,206.029 562.893,227.021 " />
<polygon stroke="black" stroke-width="1" fill="rgb(128, 128, 128)" fill-opacity="0.25" points="640.614,259.789 694.682,222.208 658.227,173.568 613.478,206.029 " />
<polygon stroke="black" stroke-width="1" fill="rgb(128, 128, 128)" fill-opacity="0.25" points="694.682,222.208 740.250,179.302 697.344,133.734 658.227,173.568 " />
<polygon stroke="black" stroke-width="1" fill="rgb(128, 128, 128)" fill-opacity="0.25" points="784.486,265.318 846.336,265.318 844.083,203.469 786.944,203.469 " />
<polygon stroke="black" stroke-width="1" fill="rgb(128, 128, 128)" fill-opacity="0.25" points="846.336,265.318 908.083,260.710 844.083,203.469 " />
<polygon stroke="black" stroke-width="1" fill="rgb(128, 128, 128)" fill-opacity="0.25" points="170.394,265.830 171.110,203.981 108.646,262.758 " />
<polygon stroke="black" stroke-width="1" fill="rgb(128, 128, 128)" fill-opacity="0.25" points="170.394,265.830 232.243,264.192 228.250,202.445 171.110,203.981 " />
<polygon stroke="black" stroke-width="1" fill="rgb(128, 128, 128)" fill-opacity="0.25" points="320.922,130.662 359.629,171.622 400.384,125.235 374.886,91.341 " />
<polygon stroke="black" stroke-width="1" fill="rgb(128, 128, 128)" fill-opacity="0.25" points="359.629,171.622 403.968,204.698 432.333,151.654 400.384,125.235 " />
<polygon stroke="black" stroke-width="1" fill="rgb(128, 128, 128)" fill-opacity="0.25" points="403.968,204.698 454.349,226.406 469.197,168.550 432.333,151.654 " />
<polygon stroke="black" stroke-width="1" fill="rgb(128, 128, 128)" fill-opacity="0.25" points="454.349,226.406 508.518,234.189 508.826,174.592 469.197,168.550 " />
<polygon stroke="black" stroke-width="1" fill="rgb(128, 128, 128)" fill-opacity="0.25" points="508.518,234.189 562.893,227.021 548.557,169.165 508.826,174.592 " />
<polygon stroke="black" stroke-width="1" fill="rgb(128, 128, 128)" fill-opacity="0.25" points="562.893,227.021 613.478,206.029 585.728,152.781 548.557,169.165 " />
<polygon stroke="black" stroke-width="1" fill="rgb(128, 128, 128)" fill-opacity="0.25" points="613.478,206.029 658.227,173.568 618.189,126.874 585.728,152.781 " />
<polygon stroke="black" stroke-width="1" fill="rgb(128, 128, 128)" fill-opacity="0.25" points="658.227,173.568 697.344,133.734 644.710,93.286 618.189,126.874 " />
<polygon stroke="black" stroke-width="1" fill="rgb(128, 128, 128)" fill-opacity="0.25" points="786.944,203.469 844.083,203.469 793.702,141.926 " />
<polygon stroke="black" stroke-width="1" fill="rgb(128, 128, 128)" fill-opacity="0.25" points="228.250,202.445 219.955,141.107 171.110,203.981 " />
<polygon stroke="black" stroke-width="1" fill="rgb(128, 128, 128)" fill-opacity="0.25" points="374.886,91.341 400.384,125.235 449.434,84.787 438.784,64.410 " />
<polygon stroke="black" stroke-width="1" fill="rgb(128, 128, 128)" fill-opacity="0.25" points="400.384,125.235 432.333,151.654 466.022,100.864 449.434,84.787 " />
<polygon stroke="black" stroke-width="1" fill="rgb(128, 128, 128)" fill-opacity="0.25" points="432.333,151.654 469.197,168.550 486.605,111.206 466.022,100.864 " />
<polygon stroke="black" stroke-width="1" fill="rgb(128, 128, 128)" fill-opacity="0.25" points="469.197,168.550 508.826,174.592 509.338,114.893 486.605,111.206 " />
<polygon stroke="black" stroke-width="1" fill="rgb(128, 128, 128)" fill-opacity="0.25" points="508.826,174.592 548.557,169.165 532.070,111.514 509.338,114.893 " />
<polygon stroke="black" stroke-width="1" fill="rgb(128, 128, 128)" fill-opacity="0.25" points="548.557,169.165 585.728,152.781 552.960,101.376 532.070,111.514 " />
<polygon stroke="black" stroke-width="1" fill="rgb(128, 128, 128)" fill-opacity="0.25" points="585.728,152.781 618.189,126.874 569.958,85.402 552.960,101.376 " />
<polygon stroke="black" stroke-width="1" fill="rgb(128, 128, 128)" fill-opacity="0.25" points="618.189,126.874 644.710,93.286 581.120,64.614 569.958,85.402 " />
<polygon stroke="black" stroke-width="1" fill="rgb(128, 128, 128)" fill-opacity="0.25" points="449.434,84.787 509.850,52.941 438.784,64.410 " />
<polygon stroke="black" stroke-width="1" fill="rgb(128, 128, 128)" fill-opacity="0.25" points="486.605,111.206 509.850,52.941 466.022,100.864 " />
<polygon stroke="black" stroke-width="1" fill="rgb(128, 128, 128)" fill-opacity="0.25" points="532.070,111.514 509.850,52.941 509.338,114.893 " />
<polygon stroke="black" stroke-width="1" fill="rgb(128, 128, 128)" fill-opacity="0.25" points="569.958,85.402 509.850,52.941 552.960,101.376 " />
<polygon stroke="black" stroke-width="1" fill="rgb(128, 128, 128)" fill-opacity="0.25" points="54.886,617.882 115.200,619.008 127.898,554.701 72.602,530.637 " />
<polygon stroke="black" stroke-width="1" fill="rgb(128, 128, 128)" fill-opacity="0.25" points="72.602,530.637 127.898,554.701 164.147,500.224 122.266,456.806 " />
<polygon stroke="black" stroke-width="1" fill="rgb(128, 128, 128)" fill-opacity="0.25" points="122.266,456.806 164.147,500.224 218.522,463.667 196.403,407.552 " />
<polygon stroke="black" stroke-width="1" fill="rgb(128, 128, 128)" fill-opacity="0.25" points="196.403,407.552 218.522,463.667 282.726,450.765 283.750,390.451 " />
<polygon stroke="black" stroke-width="1" fill="rgb(128, 128, 128)" fill-opacity="0.25" points="283.750,390.451 282.726,450.765 347.034,463.462 371.098,408.064 " />
<polygon stroke="black" stroke-width="1" fill="rgb(128, 128, 128)" fill-opacity="0.25" points="371.098,408.064 347.034,463.462 401.510,499.712 444.928,457.830 " />
<polygon stroke="black" stroke-width="1" fill="rgb(128, 128, 128)" fill-opacity="0.25" points="444.928,457.830 401.510,499.712 437.965,554.086 494.182,531.968 " />
<polygon stroke="black" stroke-width="1" fill="rgb(128, 128, 128)" fill-opacity="0.25" points="494.182,531.968 437.965,554.086 450.867,618.291 511.181,619.315 " />
<polygon stroke="black" stroke-width="1" fill="rgb(128, 128, 128)" fill-opacity="0.25" points="511.181,619.315 450.867,618.291 438.272,682.496 493.568,706.560 " />
<polygon stroke="black" stroke-width="1" fill="rgb(128, 128, 128)" fill-opacity="0.25" points="493.568,706.560 438.272,682.496 402.022,737.075 443.904,780.493 " />
<polygon stroke="black" stroke-width="1" fill="rgb(128, 128, 128)" fill-opacity="0.25" points="443.904,780.493 402.022,737.075 347.648,773.530 369.664,829.645 " />
<polygon stroke="black" stroke-width="1" fill="rgb(128, 128, 128)" fill-opacity="0.25" points="369.664,829.645 347.648,773.530 283.443,786.432 282.317,846.746 " />
<polygon stroke="black" stroke-width="1" fill="rgb(128, 128, 128)" fill-opacity="0.25" points="282.317,846.746 283.443,786.432 219.136,773.837 195.072,829.133 " />
<polygon stroke="black" stroke-width="1" fill="rgb(128, 128, 128)" fill-opacity="0.25" points="195.072,829.133 219.136,773.837 164.659,737.587 121.242,779.469 " />
<polygon stroke="black" stroke-width="1" fill="rgb(128, 128, 128)" fill-opacity="0.25" points="121.242,779.469 164.659,737.587 128.102,683.213 71.987,705.229 " />
<polygon stroke="black" stroke-width="1" fill="rgb(128, 128, 128)" fill-opacity="0.25" points="71.987,705.229 128.102,683.213 115.200,619.008 54.886,617.882 " />
<polygon stroke="black" stroke-width="1" fill="rgb(128, 128, 128)" fill-opacity="0.25" points="115.200,619.008 172.237,619.520 180.326,577.024 127.898,554.701 " />
<polygon stroke="black" stroke-width="1" fill="rgb(128, 128, 128)" fill-opacity="0.25" points="127.898,554.701 180.326,577.024 204.083,540.877 164.147,500.224 " />
<polygon stroke="black" stroke-width="1" fill="rgb(128, 128, 128)" fill-opacity="0.25" points="164.147,500.224 204.083,540.877 239.821,516.506 218.522,463.667 " />
<polygon stroke="black" stroke-width="1" fill="rgb(128, 128, 128)" fill-opacity="0.25" points="218.522,463.667 239.821,516.506 282.214,507.802 282.726,450.765 " />
<polygon stroke="black" stroke-width="1" fill="rgb(128, 128, 128)" fill-opacity="0.25" points="282.726,450.765 282.214,507.802 324.608,515.891 347.034,463.462 " />
<polygon stroke="black" stroke-width="1" fill="rgb(128, 128, 128)" fill-opacity="0.25" points="347.034,463.462 324.608,515.891 360.858,539.648 401.510,499.712 " />
<polygon stroke="black" stroke-width="1" fill="rgb(128, 128, 128)" fill-opacity="0.25" points="401.510,499.712 360.858,539.648 385.126,575.386 437.965,554.086 " />
<polygon stroke="black" stroke-width="1" fill="rgb(128, 128, 128)" fill-opacity="0.25" points="437.965,554.086 385.126,575.386 393.933,617.677 450.867,618.291 " />
<polygon stroke="black" stroke-width="1" fill="rgb(128, 128, 128)" fill-opacity="0.25" points="450.867,618.291 393.933,617.677 385.843,660.173 438.272,682.496 " />
<polygon stroke="black" stroke-width="1" fill="rgb(128, 128, 128)" fill-opacity="0.25" points="438.272,682.496 385.843,660.173 362.086,696.320 402.022,737.075 " />
<polygon stroke="black" stroke-width="1" fill="rgb(128, 128, 128)" fill-opacity="0.25" points="402.022,737.075 362.086,696.320 326.349,720.691 347.648,773.530 " />
<polygon stroke="black" stroke-width="1" fill="rgb(128, 128, 128)" fill-opacity="0.25" points="347.648,773.530 326.349,720.691 283.955,729.498 283.443,786.432 " />
<polygon stroke="black" stroke-width="1" fill="rgb(128, 128, 128)" fill-opacity="0.25" points="283.443,786.432 283.955,729.498 241.459,721.408 219.136,773.837 " />
<polygon stroke="black" stroke-width="1" fill="rgb(128, 128, 128)" fill-opacity="0.25" points="219.136,773.837 241.459,721.408 205.312,697.651 164.659,737.587 " />
<polygon stroke="black" stroke-width="1" fill="rgb(128, 128, 128)" fill-opacity="0.25" points="164.659,737.587 205.312,697.651 181.043,661.914 128.102,683.213 " />
<polygon stroke="black" stroke-width="1" fill="rgb(128, 128, 128)" fill-opacity="0.25" points="128.102,683.213 181.043,661.914 172.237,619.520 115.200,619.008 " />
<polygon stroke="black" stroke-width="1" fill="rgb(128, 128, 128)" fill-opacity="0.25" points="172.237,619.520 227.840,619.418 231.731,598.221 180.326,577.024 " />
<polygon stroke="black" stroke-width="1" fill="rgb(128, 128, 128)" fill-opacity="0.25" points="180.326,577.024 231.731,598.221 243.405,580.096 204.083,540.877 " />
<polygon stroke="black" stroke-width="1" fill="rgb(128, 128, 128)" fill-opacity="0.25" points="204.083,540.877 243.405,580.096 261.120,567.910 239.821,516.506 " />
<polygon stroke="black" stroke-width="1" fill="rgb(128, 128, 128)" fill-opacity="0.25" points="239.821,516.506 261.120,567.910 282.214,563.302 282.214,507.802 " />
<polygon stroke="black" stroke-width="1" fill="rgb(128, 128, 128)" fill-opacity="0.25" points="282.214,507.802 282.214,563.302 303.514,567.194 324.608,515.891 " />
<polygon stroke="black" stroke-width="1" fill="rgb(128, 128, 128)" fill-opacity="0.25" points="324.608,515.891 303.514,567.194 321.536,578.970 360.858,539.648 " />
<polygon stroke="black" stroke-width="1" fill="rgb(128, 128, 128)" fill-opacity="0.25" points="360.858,539.648 321.536,578.970 333.824,596.685 385.126,575.386 " />
<polygon stroke="black" stroke-width="1" fill="rgb(128, 128, 128)" fill-opacity="0.25" points="385.126,575.386 333.824,596.685 338.330,617.779 393.933,617.677 " />
<polygon stroke="black" stroke-width="1" fill="rgb(128, 128, 128)" fill-opacity="0.25" points="393.933,617.677 338.330,617.779 334.438,638.976 385.843,660.173 " />
<polygon stroke="black" stroke-width="1" fill="rgb(128, 128, 128)" fill-opacity="0.25" points="385.843,660.173 334.438,638.976 322.765,657.101 362.086,696.320 " />
<polygon stroke="black" stroke-width="1" fill="rgb(128, 128, 128)" fill-opacity="0.25" points="362.086,696.320 322.765,657.101 304.947,669.389 326.349,720.691 " />
<polygon stroke="black" stroke-width="1" fill="rgb(128, 128, 128)" fill-opacity="0.25" points="326.349,720.691 304.947,669.389 283.853,673.894 283.955,729.498 " />
<polygon stroke="black" stroke-width="1" fill="rgb(128, 128, 128)" fill-opacity="0.25" points="283.955,729.498 283.853,673.894 262.656,670.003 241.459,721.408 " />
<polygon stroke="black" stroke-width="1" fill="rgb(128, 128, 128)" fill-opacity="0.25" points="241.459,721.408 262.656,670.003 244.531,658.330 205.312,697.651 " />
<polygon stroke="black" stroke-width="1" fill="rgb(128, 128, 128)" fill-opacity="0.25" points="205.312,697.651 244.531,658.330 232.346,640.512 181.043,661.914 " />
<polygon stroke="black" stroke-width="1" fill="rgb(128, 128, 128)" fill-opacity="0.25" points="181.043,661.914 232.346,640.512 227.840,619.418 172.237,619.520 " />
<polygon stroke="black" stroke-width="1" fill="rgb(128, 128, 128)" fill-opacity="0.25" points="231.731,598.221 283.034,618.598 243.405,580.096 " />
<polygon stroke="black" stroke-width="1" fill="rgb(128, 128, 128)" fill-opacity="0.25" points="261.120,567.910 283.034,618.598 282.214,563.302 " />
<polygon stroke="black" stroke-width="1" fill="rgb(128, 128, 128)" fill-opacity="0.25" points="303.514,567.194 283.034,618.598 321.536,578.970 " />
<polygon stroke="black" stroke-width="1" fill="rgb(128, 128, 128)" fill-opacity="0.25" points="333.824,596.685 283.034,618.598 338.330,617.779 " />
<polygon stroke="black" stroke-width="1" fill="rgb(128, 128, 128)" fill-opacity="0.25" points="334.438,638.976 283.034,618.598 322.765,657.101 " />
<polygon stroke="black" stroke-width="1" fill="rgb(128, 128, 128)" fill-opacity="0.25" points="304.947,669.389 283.034,618.598 283.853,673.894 " />
<polygon stroke="black" stroke-width="1" fill="rgb(128, 128, 128)" fill-opacity="0.25" points="262.656,670.003 283.034,618.598 244.531,658.330 " />
<polygon stroke="black" stroke-width="1" fill="rgb(128, 128, 128)" fill-opacity="0.25" points="232.346,640.512 283.034,618.598 227.840,619.418 " />
<polygon stroke="black" stroke-width="1" fill="rgb(128, 128, 128)" fill-opacity="0.25" points="793.702,141.926 844.083,203.469 808.346,81.818 " />
<polygon stroke="black" stroke-width="1" fill="rgb(128, 128, 128)" fill-opacity="0.25" points="601.907,829.030 624.640,912.179 654.746,906.445 637.542,824.320 " />
<polygon stroke="black" stroke-width="1" fill="rgb(128, 128, 128)" fill-opacity="0.25" points="624.640,912.179 675.635,970.035 693.146,948.941 654.746,906.445 " />
<polygon stroke="black" stroke-width="1" fill="rgb(128, 128, 128)" fill-opacity="0.25" points="601.907,829.030 637.542,824.320 693.965,748.339 677.376,727.347 " />
<polygon stroke="black" stroke-width="1" fill="rgb(128, 128, 128)" fill-opacity="0.25" points="171.110,203.981 219.955,141.107 203.776,81.408 " />
<polygon stroke="black" stroke-width="1" fill="rgb(128, 128, 128)" fill-opacity="0.25" points="738.202,980.582 800.870,970.752 783.565,949.453 738.304,957.747 " />
<polygon stroke="black" stroke-width="1" fill="rgb(128, 128, 128)" fill-opacity="0.25" points="675.635,970.035 738.202,980.582 738.304,957.747 693.146,948.941 " />
<polygon stroke="black" stroke-width="1" fill="rgb(128, 128, 128)" fill-opacity="0.25" points="879.616,320.000 879.616,365.261 941.466,365.261 " />
<polygon stroke="black" stroke-width="1" fill="rgb(128, 128, 128)" fill-opacity="0.25" points="75.264,365.056 137.114,365.056 137.114,319.795 " />
<polygon stroke="black" stroke-width="1" fill="rgb(128, 128, 128)" fill-opacity="0.25" points="671.437,820.019 705.229,820.019 723.866,794.419 708.710,768.819 " />
<polygon stroke="black" stroke-width="1" fill="rgb(128, 128, 128)" fill-opacity="0.25" points="912.794,485.171 916.275,445.235 842.957,427.827 831.386,466.432 " />
<polygon stroke="black" stroke-width="1" fill="rgb(128, 128, 128)" fill-opacity="0.25" points="948.634,498.688 956.621,460.493 916.275,445.235 912.794,485.171 " />
<polygon stroke="black" stroke-width="1" fill="rgb(128, 128, 128)" fill-opacity="0.25" points="769.536,452.301 773.427,411.955 739.123,406.733 738.816,447.693 " />
<polygon stroke="black" stroke-width="1" fill="rgb(128, 128, 128)" fill-opacity="0.25" points="738.816,447.693 739.123,406.733 704.717,411.443 708.096,451.789 " />
<polygon stroke="black" stroke-width="1" fill="rgb(128, 128, 128)" fill-opacity="0.25" points="831.386,466.432 842.957,427.827 773.427,411.955 769.536,452.301 " />
<polygon stroke="black" stroke-width="1" fill="rgb(128, 128, 128)" fill-opacity="0.25" points="671.437,820.019 682.906,902.554 710.861,902.656 705.229,820.019 " />
<polygon stroke="black" stroke-width="1" fill="rgb(128, 128, 128)" fill-opacity="0.25" points="682.906,902.554 708.403,931.021 723.661,916.890 710.861,902.656 " />
<polygon stroke="black" stroke-width="1" fill="rgb(128, 128, 128)" fill-opacity="0.25" points="739.021,902.758 767.078,902.758 772.915,820.122 739.123,820.019 " />
<polygon stroke="black" stroke-width="1" fill="rgb(128, 128, 128)" fill-opacity="0.25" points="739.123,820.019 754.381,794.419 739.123,791.859 " />
<polygon stroke="black" stroke-width="1" fill="rgb(128, 128, 128)" fill-opacity="0.25" points="738.918,935.322 769.434,931.123 754.278,916.992 738.918,919.040 " />
<polygon stroke="black" stroke-width="1" fill="rgb(128, 128, 128)" fill-opacity="0.25" points="769.434,931.123 795.034,902.758 767.078,902.758 754.278,916.992 " />
<polygon stroke="black" stroke-width="1" fill="rgb(128, 128, 128)" fill-opacity="0.25" points="708.403,931.021 738.918,935.322 738.918,919.040 723.661,916.890 " />
<polygon stroke="black" stroke-width="1" fill="rgb(128, 128, 128)" fill-opacity="0.25" points="739.123,820.019 739.123,791.859 723.866,794.419 " />
<polygon stroke="black" stroke-width="1" fill="rgb(128, 128, 128)" fill-opacity="0.25" points="739.123,820.019 772.915,820.122 754.381,794.419 " />
<polygon stroke="black" stroke-width="1" fill="rgb(128, 128, 128)" fill-opacity="0.25" points="261.120,567.910 243.405,580.096 283.034,618.598 " />
<polygon stroke="black" stroke-width="1" fill="rgb(128, 128, 128)" fill-opacity="0.25" points="232.346,640.512 244.531,658.330 283.034,618.598 " />
<polygon stroke="black" stroke-width="1" fill="rgb(128, 128, 128)" fill-opacity="0.25" points="303.514,567.194 282.214,563.302 283.034,618.598 " />
<polygon stroke="black" stroke-width="1" fill="rgb(128, 128, 128)" fill-opacity="0.25" points="334.438,638.976 338.330,617.779 283.034,618.598 " />
<polygon stroke="black" stroke-width="1" fill="rgb(128, 128, 128)" fill-opacity="0.25" points="333.824,596.685 321.536,578.970 283.034,618.598 " />
<polygon stroke="black" stroke-width="1" fill="rgb(128, 128, 128)" fill-opacity="0.25" points="231.731,598.221 227.840,619.418 283.034,618.598 " />
<polygon stroke="black" stroke-width="1" fill="rgb(128, 128, 128)" fill-opacity="0.25" points="262.656,670.003 283.853,673.894 283.034,618.598 " />
<polygon stroke="black" stroke-width="1" fill="rgb(128, 128, 128)" fill-opacity="0.25" points="304.947,669.389 322.765,657.101 283.034,618.598 " />
<polygon stroke="black" stroke-width="1" fill="rgb(128, 128, 128)" fill-opacity="0.25" points="532.070,111.514 552.960,101.376 509.850,52.941 " />
<polygon stroke="black" stroke-width="1" fill="rgb(128, 128, 128)" fill-opacity="0.25" points="486.605,111.206 509.338,114.893 509.850,52.941 " />
<polygon stroke="black" stroke-width="1" fill="rgb(128, 128, 128)" fill-opacity="0.25" points="449.434,84.787 466.022,100.864 509.850,52.941 " />
<polygon stroke="black" stroke-width="1" fill="rgb(128, 128, 128)" fill-opacity="0.25" points="569.958,85.402 581.120,64.614 509.850,52.941 " />
<polygon stroke="black" stroke-width="1" fill="rgb(128, 128, 128)" fill-opacity="0.25" points="654.438,656.384 678.605,648.499 664.269,575.693 636.109,572.416 " />
<polygon stroke="black" stroke-width="1" fill="rgb(128, 128, 128)" fill-opacity="0.25" points="695.603,698.778 708.096,678.912 678.605,648.499 654.438,656.384 " />
<polygon stroke="black" stroke-width="1" fill="rgb(128, 128, 128)" fill-opacity="0.25" points="636.109,572.416 664.269,575.693 704.205,517.939 690.893,492.851 " />
<polygon stroke="black" stroke-width="1" fill="rgb(128, 128, 128)" fill-opacity="0.25" points="788.582,696.730 775.168,677.376 741.786,684.954 742.298,707.584 " />
<polygon stroke="black" stroke-width="1" fill="rgb(128, 128, 128)" fill-opacity="0.25" points="742.298,707.584 741.786,684.954 708.096,678.912 695.603,698.778 " />
<polygon stroke="black" stroke-width="1" fill="rgb(128, 128, 128)" fill-opacity="0.25" points="822.477,907.366 852.480,913.408 876.134,830.464 840.499,825.344 " />
<polygon stroke="black" stroke-width="1" fill="rgb(128, 128, 128)" fill-opacity="0.25" points="783.565,949.453 800.870,970.752 852.480,913.408 822.477,907.366 " />
<polygon stroke="black" stroke-width="1" fill="rgb(128, 128, 128)" fill-opacity="0.25" points="784.794,748.851 801.690,728.064 739.533,717.926 739.430,741.581 " />
<polygon stroke="black" stroke-width="1" fill="rgb(128, 128, 128)" fill-opacity="0.25" points="739.430,741.581 739.533,717.926 677.376,727.347 693.965,748.339 " />
<polygon stroke="black" stroke-width="1" fill="rgb(128, 128, 128)" fill-opacity="0.25" points="840.499,825.344 876.134,830.464 801.690,728.064 784.794,748.851 " />
<polygon stroke="black" stroke-width="1" fill="rgb(128, 128, 128)" fill-opacity="0.25" points="803.328,645.632 827.802,652.493 842.342,567.808 814.387,572.314 " />
<polygon stroke="black" stroke-width="1" fill="rgb(128, 128, 128)" fill-opacity="0.25" points="775.168,677.376 788.582,696.730 827.802,652.493 803.328,645.632 " />
<polygon stroke="black" stroke-width="1" fill="rgb(128, 128, 128)" fill-opacity="0.25" points="771.891,516.403 783.974,490.803 737.280,483.021 737.894,511.283 " />
<polygon stroke="black" stroke-width="1" fill="rgb(128, 128, 128)" fill-opacity="0.25" points="737.894,511.283 737.280,483.021 690.893,492.851 704.205,517.939 " />
<polygon stroke="black" stroke-width="1" fill="rgb(128, 128, 128)" fill-opacity="0.25" points="814.387,572.314 842.342,567.808 783.974,490.803 771.891,516.403 " />
<polygon stroke="black" stroke-width="1" fill="rgb(128, 128, 128)" fill-opacity="0.25" points="561.459,443.085 564.531,483.021 646.144,465.203 634.982,426.496 " />
<polygon stroke="black" stroke-width="1" fill="rgb(128, 128, 128)" fill-opacity="0.25" points="520.909,458.035 528.589,496.333 564.531,483.021 561.459,443.085 " />
<polygon stroke="black" stroke-width="1" fill="rgb(128, 128, 128)" fill-opacity="0.25" points="634.982,426.496 646.144,465.203 708.096,451.789 704.717,411.443 " />
<polygon stroke="black" stroke-width="1" fill="rgb(128, 128, 128)" fill-opacity="0.25" points="956.621,460.493 948.634,498.688 979.251,503.603 990.925,466.022 " />
<polygon stroke="black" stroke-width="1" fill="rgb(128, 128, 128)" fill-opacity="0.25" points="486.502,463.258 498.074,501.043 528.589,496.333 520.909,458.035 " />
<polygon stroke="black" stroke-width="1" fill="rgb(128, 128, 128)" fill-opacity="0.25" points="705.229,820.019 739.123,820.019 723.866,794.419 " />
<polygon stroke="black" stroke-width="1" fill="rgb(128, 128, 128)" fill-opacity="0.25" points="710.861,902.656 739.021,902.758 739.123,820.019 705.229,820.019 " />
<polygon stroke="black" stroke-width="1" fill="rgb(128, 128, 128)" fill-opacity="0.25" points="723.661,916.890 739.021,902.758 710.861,902.656 " />
<polygon stroke="black" stroke-width="1" fill="rgb(128, 128, 128)" fill-opacity="0.25" points="767.078,902.758 795.034,902.758 806.810,820.224 772.915,820.122 " />
<polygon stroke="black" stroke-width="1" fill="rgb(128, 128, 128)" fill-opacity="0.25" points="754.381,794.419 769.638,768.922 739.123,763.597 739.123,791.859 " />
<polygon stroke="black" stroke-width="1" fill="rgb(128, 128, 128)" fill-opacity="0.25" points="754.278,916.992 739.021,902.758 738.918,919.040 " />
<polygon stroke="black" stroke-width="1" fill="rgb(128, 128, 128)" fill-opacity="0.25" points="767.078,902.758 739.021,902.758 754.278,916.992 " />
<polygon stroke="black" stroke-width="1" fill="rgb(128, 128, 128)" fill-opacity="0.25" points="738.918,919.040 739.021,902.758 723.661,916.890 " />
<polygon stroke="black" stroke-width="1" fill="rgb(128, 128, 128)" fill-opacity="0.25" points="739.123,791.859 739.123,763.597 708.710,768.819 723.866,794.419 " />
<polygon stroke="black" stroke-width="1" fill="rgb(128, 128, 128)" fill-opacity="0.25" points="772.915,820.122 806.810,820.224 769.638,768.922 754.381,794.419 " />

</svg>
