<?xml version="1.0" standalone="no"?>
<!DOCTYPE svg PUBLIC "-//W3C//DTD SVG 1.1//EN" 
  "http://www.w3.org/Graphics/SVG/1.1/DTD/svg11.dtd">
<svg width="1024" height="1024" viewBox="0 0 1024 1024"
     xmlns="http://www.w3.org/2000/svg" version="1.1">
<desc>, (Blender 4.0.2)</desc>
<polygon stroke="black" stroke-width="1" fill="rgb(128, 128, 128)" fill-opacity="0.25" points="894.669,208.077 894.976,97.485 589.107,115.405 " />
<polygon stroke="black" stroke-width="1" fill="rgb(128, 128, 128)" fill-opacity="0.25" points="128.922,97.485 129.126,208.077 434.893,115.917 " />
<polygon stroke="black" stroke-width="1" fill="rgb(128, 128, 128)" fill-opacity="0.25" points="804.864,880.538 804.659,769.536 212.070,769.536 211.763,880.435 " />
<polygon stroke="black" stroke-width="1" fill="rgb(128, 128, 128)" fill-opacity="0.25" points="215.450,592.179 808.653,592.794 512.102,515.789 " />
<polygon stroke="black" stroke-width="1" fill="rgb(128, 128, 128)" fill-opacity="0.25" points="215.859,299.418 808.038,298.906 511.898,180.838 " />
<polygon stroke="black" stroke-width="1" fill="rgb(128, 128, 128)" fill-opacity="0.25" points="129.126,208.077 128.922,97.485 77.107,96.051 76.902,210.432 " />
<polygon stroke="black" stroke-width="1" fill="rgb(128, 128, 128)" fill-opacity="0.25" points="128.922,97.485 130.867,49.152 77.107,96.051 " />
<polygon stroke="black" stroke-width="1" fill="rgb(128, 128, 128)" fill-opacity="0.25" points="493.875,102.810 500.838,151.347 512.000,102.605 " />
<polygon stroke="black" stroke-width="1" fill="rgb(128, 128, 128)" fill-opacity="0.25" points="808.653,592.794 864.358,608.563 821.965,546.202 " />
<polygon stroke="black" stroke-width="1" fill="rgb(128, 128, 128)" fill-opacity="0.25" points="804.659,769.536 804.864,880.538 860.774,878.080 859.853,762.880 " />
<polygon stroke="black" stroke-width="1" fill="rgb(128, 128, 128)" fill-opacity="0.25" points="216.986,388.710 807.014,388.301 807.014,343.757 216.883,344.166 " />
<polygon stroke="black" stroke-width="1" fill="rgb(128, 128, 128)" fill-opacity="0.25" points="807.014,388.301 808.141,433.254 864.461,364.544 " />
<polygon stroke="black" stroke-width="1" fill="rgb(128, 128, 128)" fill-opacity="0.25" points="950.374,485.990 952.525,538.522 1006.694,479.846 " />
<polygon stroke="black" stroke-width="1" fill="rgb(128, 128, 128)" fill-opacity="0.25" points="841.626,486.605 839.475,434.278 785.306,480.563 " />
<polygon stroke="black" stroke-width="1" fill="rgb(128, 128, 128)" fill-opacity="0.25" points="69.837,485.786 178.688,487.322 181.453,435.610 68.710,433.459 " />
<polygon stroke="black" stroke-width="1" fill="rgb(128, 128, 128)" fill-opacity="0.25" points="178.688,487.322 69.837,485.786 70.861,538.317 183.603,539.341 " />
<polygon stroke="black" stroke-width="1" fill="rgb(128, 128, 128)" fill-opacity="0.25" points="69.837,485.786 17.306,478.925 70.861,538.317 " />
<polygon stroke="black" stroke-width="1" fill="rgb(128, 128, 128)" fill-opacity="0.25" points="808.653,592.794 215.450,592.179 214.630,657.101 809.267,657.818 " />
<polygon stroke="black" stroke-width="1" fill="rgb(128, 128, 128)" fill-opacity="0.25" points="809.165,701.133 214.938,701.133 212.070,769.536 804.659,769.536 " />
<polygon stroke="black" stroke-width="1" fill="rgb(128, 128, 128)" fill-opacity="0.25" points="808.653,592.794 809.267,657.818 864.358,608.563 " />
<polygon stroke="black" stroke-width="1" fill="rgb(128, 128, 128)" fill-opacity="0.25" points="809.165,701.133 859.853,762.880 878.182,687.616 " />
<polygon stroke="black" stroke-width="1" fill="rgb(128, 128, 128)" fill-opacity="0.25" points="809.165,701.133 804.659,769.536 859.853,762.880 " />
<polygon stroke="black" stroke-width="1" fill="rgb(128, 128, 128)" fill-opacity="0.25" points="62.259,29.491 77.107,96.051 130.867,49.152 " />
<polygon stroke="black" stroke-width="1" fill="rgb(128, 128, 128)" fill-opacity="0.25" points="17.306,478.925 69.837,485.786 68.710,433.459 " />
<polygon stroke="black" stroke-width="1" fill="rgb(128, 128, 128)" fill-opacity="0.25" points="214.938,701.133 163.738,762.880 212.070,769.536 " />
<polygon stroke="black" stroke-width="1" fill="rgb(128, 128, 128)" fill-opacity="0.25" points="129.126,208.077 76.902,210.432 142.848,257.741 " />
<polygon stroke="black" stroke-width="1" fill="rgb(128, 128, 128)" fill-opacity="0.25" points="804.864,880.538 809.165,921.702 860.774,878.080 " />
<polygon stroke="black" stroke-width="1" fill="rgb(128, 128, 128)" fill-opacity="0.25" points="216.986,388.710 159.539,365.056 215.962,433.562 " />
<polygon stroke="black" stroke-width="1" fill="rgb(128, 128, 128)" fill-opacity="0.25" points="214.835,921.702 211.763,880.435 163.738,877.978 " />
<polygon stroke="black" stroke-width="1" fill="rgb(128, 128, 128)" fill-opacity="0.25" points="807.014,388.301 216.986,388.710 215.962,433.562 808.141,433.254 " />
<polygon stroke="black" stroke-width="1" fill="rgb(128, 128, 128)" fill-opacity="0.25" points="807.014,388.301 864.461,364.544 807.014,343.757 " />
<polygon stroke="black" stroke-width="1" fill="rgb(128, 128, 128)" fill-opacity="0.25" points="894.669,208.077 946.483,210.534 947.302,96.154 894.976,97.485 " />
<polygon stroke="black" stroke-width="1" fill="rgb(128, 128, 128)" fill-opacity="0.25" points="880.947,257.638 894.669,208.077 589.107,115.405 574.157,164.966 " />
<polygon stroke="black" stroke-width="1" fill="rgb(128, 128, 128)" fill-opacity="0.25" points="807.014,343.757 808.038,298.906 215.859,299.418 216.883,344.166 " />
<polygon stroke="black" stroke-width="1" fill="rgb(128, 128, 128)" fill-opacity="0.25" points="523.981,468.582 512.102,515.789 808.653,592.794 821.965,546.202 " />
<polygon stroke="black" stroke-width="1" fill="rgb(128, 128, 128)" fill-opacity="0.25" points="212.070,769.536 163.738,762.880 163.738,877.978 211.763,880.435 " />
<polygon stroke="black" stroke-width="1" fill="rgb(128, 128, 128)" fill-opacity="0.25" points="841.626,486.605 950.374,485.990 952.218,434.278 839.475,434.278 " />
<polygon stroke="black" stroke-width="1" fill="rgb(128, 128, 128)" fill-opacity="0.25" points="785.306,480.563 839.782,538.522 841.626,486.605 " />
<polygon stroke="black" stroke-width="1" fill="rgb(128, 128, 128)" fill-opacity="0.25" points="434.893,115.917 437.760,67.379 130.867,49.152 128.922,97.485 " />
<polygon stroke="black" stroke-width="1" fill="rgb(128, 128, 128)" fill-opacity="0.25" points="159.642,607.846 214.630,657.101 215.450,592.179 " />
<polygon stroke="black" stroke-width="1" fill="rgb(128, 128, 128)" fill-opacity="0.25" points="449.741,165.376 434.893,115.917 129.126,208.077 142.848,257.741 " />
<polygon stroke="black" stroke-width="1" fill="rgb(128, 128, 128)" fill-opacity="0.25" points="809.165,921.702 804.864,880.538 211.763,880.435 214.835,921.702 " />
<polygon stroke="black" stroke-width="1" fill="rgb(128, 128, 128)" fill-opacity="0.25" points="238.694,482.099 181.453,435.610 178.688,487.322 " />
<polygon stroke="black" stroke-width="1" fill="rgb(128, 128, 128)" fill-opacity="0.25" points="216.986,388.710 216.883,344.166 159.539,365.056 " />
<polygon stroke="black" stroke-width="1" fill="rgb(128, 128, 128)" fill-opacity="0.25" points="809.165,921.702 884.941,950.989 860.774,878.080 " />
<polygon stroke="black" stroke-width="1" fill="rgb(128, 128, 128)" fill-opacity="0.25" points="238.694,482.099 178.688,487.322 183.603,539.341 " />
<polygon stroke="black" stroke-width="1" fill="rgb(128, 128, 128)" fill-opacity="0.25" points="511.590,53.453 512.000,102.605 530.125,102.502 " />
<polygon stroke="black" stroke-width="1" fill="rgb(128, 128, 128)" fill-opacity="0.25" points="530.125,102.502 512.000,102.605 523.981,151.142 " />
<polygon stroke="black" stroke-width="1" fill="rgb(128, 128, 128)" fill-opacity="0.25" points="523.981,468.582 500.326,468.582 512.102,515.789 " />
<polygon stroke="black" stroke-width="1" fill="rgb(128, 128, 128)" fill-opacity="0.25" points="807.014,343.757 864.461,364.544 808.038,298.906 " />
<polygon stroke="black" stroke-width="1" fill="rgb(128, 128, 128)" fill-opacity="0.25" points="139.059,950.682 214.835,921.702 163.738,877.978 " />
<polygon stroke="black" stroke-width="1" fill="rgb(128, 128, 128)" fill-opacity="0.25" points="957.645,277.811 946.483,210.534 880.947,257.638 " />
<polygon stroke="black" stroke-width="1" fill="rgb(128, 128, 128)" fill-opacity="0.25" points="946.483,210.534 894.669,208.077 880.947,257.638 " />
<polygon stroke="black" stroke-width="1" fill="rgb(128, 128, 128)" fill-opacity="0.25" points="76.902,210.432 65.946,277.709 142.848,257.741 " />
<polygon stroke="black" stroke-width="1" fill="rgb(128, 128, 128)" fill-opacity="0.25" points="159.539,365.056 216.883,344.166 215.859,299.418 " />
<polygon stroke="black" stroke-width="1" fill="rgb(128, 128, 128)" fill-opacity="0.25" points="947.302,96.154 893.235,49.254 894.976,97.485 " />
<polygon stroke="black" stroke-width="1" fill="rgb(128, 128, 128)" fill-opacity="0.25" points="950.374,485.990 1006.694,479.846 952.218,434.278 " />
<polygon stroke="black" stroke-width="1" fill="rgb(128, 128, 128)" fill-opacity="0.25" points="950.374,485.990 841.626,486.605 839.782,538.522 952.525,538.522 " />
<polygon stroke="black" stroke-width="1" fill="rgb(128, 128, 128)" fill-opacity="0.25" points="202.138,545.587 159.642,607.846 215.450,592.179 " />
<polygon stroke="black" stroke-width="1" fill="rgb(128, 128, 128)" fill-opacity="0.25" points="500.326,468.582 202.138,545.587 215.450,592.179 512.102,515.789 " />
<polygon stroke="black" stroke-width="1" fill="rgb(128, 128, 128)" fill-opacity="0.25" points="589.107,115.405 894.976,97.485 893.235,49.254 586.342,66.867 " />
<polygon stroke="black" stroke-width="1" fill="rgb(128, 128, 128)" fill-opacity="0.25" points="523.981,151.142 512.000,102.605 500.838,151.347 " />
<polygon stroke="black" stroke-width="1" fill="rgb(128, 128, 128)" fill-opacity="0.25" points="214.938,701.133 145.818,687.411 163.738,762.880 " />
<polygon stroke="black" stroke-width="1" fill="rgb(128, 128, 128)" fill-opacity="0.25" points="947.302,96.154 961.843,29.389 893.235,49.254 " />
<polygon stroke="black" stroke-width="1" fill="rgb(128, 128, 128)" fill-opacity="0.25" points="511.590,53.453 493.875,102.810 512.000,102.605 " />

</svg>
