<?xml version="1.0" standalone="no"?>
<!DOCTYPE svg PUBLIC "-//W3C//DTD SVG 1.1//EN" 
  "http://www.w3.org/Graphics/SVG/1.1/DTD/svg11.dtd">
<svg width="1024" height="1024" viewBox="0 0 1024 1024"
     xmlns="http://www.w3.org/2000/svg" version="1.1">
<desc>, (Blender 4.0.2)</desc>
<polygon stroke="black" stroke-width="1" fill="rgb(128, 128, 128)" fill-opacity="0.25" points="186.880,201.830 126.259,88.576 97.280,199.373 " />
<polygon stroke="black" stroke-width="1" fill="rgb(128, 128, 128)" fill-opacity="0.25" points="96.051,240.742 109.978,859.443 157.594,858.522 185.754,240.640 " />
<polygon stroke="black" stroke-width="1" fill="rgb(128, 128, 128)" fill-opacity="0.25" points="871.014,96.051 836.915,201.216 918.118,200.090 " />
<polygon stroke="black" stroke-width="1" fill="rgb(128, 128, 128)" fill-opacity="0.25" points="671.232,103.834 614.400,201.114 726.733,200.806 " />
<polygon stroke="black" stroke-width="1" fill="rgb(128, 128, 128)" fill-opacity="0.25" points="338.637,202.138 480.461,202.240 424.346,104.141 " />
<polygon stroke="black" stroke-width="1" fill="rgb(128, 128, 128)" fill-opacity="0.25" points="869.888,930.816 889.037,883.712 845.926,882.483 " />
<polygon stroke="black" stroke-width="1" fill="rgb(128, 128, 128)" fill-opacity="0.25" points="672.154,925.389 698.061,877.261 638.157,875.827 " />
<polygon stroke="black" stroke-width="1" fill="rgb(128, 128, 128)" fill-opacity="0.25" points="420.352,923.648 458.445,876.339 382.976,876.134 " />
<polygon stroke="black" stroke-width="1" fill="rgb(128, 128, 128)" fill-opacity="0.25" points="889.856,854.118 918.426,235.520 837.530,235.520 846.848,853.709 " />
<polygon stroke="black" stroke-width="1" fill="rgb(128, 128, 128)" fill-opacity="0.25" points="698.573,844.595 726.733,227.021 614.707,226.714 639.078,843.981 " />
<polygon stroke="black" stroke-width="1" fill="rgb(128, 128, 128)" fill-opacity="0.25" points="458.138,847.053 480.256,229.888 338.842,229.888 383.078,846.950 " />
<polygon stroke="black" stroke-width="1" fill="rgb(128, 128, 128)" fill-opacity="0.25" points="111.514,890.778 127.795,939.008 159.334,888.320 " />
<polygon stroke="black" stroke-width="1" fill="rgb(128, 128, 128)" fill-opacity="0.25" points="302.899,176.128 338.637,202.138 424.346,104.141 391.168,74.547 " />
<polygon stroke="black" stroke-width="1" fill="rgb(128, 128, 128)" fill-opacity="0.25" points="534.630,230.400 480.461,202.240 480.256,229.888 " />
<polygon stroke="black" stroke-width="1" fill="rgb(128, 128, 128)" fill-opacity="0.25" points="512.512,850.125 534.630,230.400 480.256,229.888 458.138,847.053 " />
<polygon stroke="black" stroke-width="1" fill="rgb(128, 128, 128)" fill-opacity="0.25" points="338.842,229.888 284.570,232.448 328.909,852.070 383.078,846.950 " />
<polygon stroke="black" stroke-width="1" fill="rgb(128, 128, 128)" fill-opacity="0.25" points="74.138,194.765 97.280,199.373 126.259,88.576 103.322,82.125 " />
<polygon stroke="black" stroke-width="1" fill="rgb(128, 128, 128)" fill-opacity="0.25" points="157.594,858.522 211.866,861.696 240.230,241.766 185.754,240.640 " />
<polygon stroke="black" stroke-width="1" fill="rgb(128, 128, 128)" fill-opacity="0.25" points="96.051,240.742 66.970,240.947 80.896,860.467 109.978,859.443 " />
<polygon stroke="black" stroke-width="1" fill="rgb(128, 128, 128)" fill-opacity="0.25" points="80.896,860.467 88.064,896.819 111.514,890.778 " />
<polygon stroke="black" stroke-width="1" fill="rgb(128, 128, 128)" fill-opacity="0.25" points="127.795,939.008 165.683,961.946 197.734,907.162 159.334,888.320 " />
<polygon stroke="black" stroke-width="1" fill="rgb(128, 128, 128)" fill-opacity="0.25" points="383.078,846.950 328.909,852.070 382.976,876.134 " />
<polygon stroke="black" stroke-width="1" fill="rgb(128, 128, 128)" fill-opacity="0.25" points="420.352,923.648 454.451,951.091 494.285,898.560 458.445,876.339 " />
<polygon stroke="black" stroke-width="1" fill="rgb(128, 128, 128)" fill-opacity="0.25" points="802.509,854.835 812.646,896.307 845.926,882.483 " />
<polygon stroke="black" stroke-width="1" fill="rgb(128, 128, 128)" fill-opacity="0.25" points="639.078,843.981 584.704,847.155 638.157,875.827 " />
<polygon stroke="black" stroke-width="1" fill="rgb(128, 128, 128)" fill-opacity="0.25" points="639.078,843.981 638.157,875.827 698.061,877.261 698.573,844.595 " />
<polygon stroke="black" stroke-width="1" fill="rgb(128, 128, 128)" fill-opacity="0.25" points="614.707,226.714 560.333,227.635 584.704,847.155 639.078,843.981 " />
<polygon stroke="black" stroke-width="1" fill="rgb(128, 128, 128)" fill-opacity="0.25" points="802.509,854.835 845.926,882.483 846.848,853.709 " />
<polygon stroke="black" stroke-width="1" fill="rgb(128, 128, 128)" fill-opacity="0.25" points="837.530,235.520 793.293,235.418 802.509,854.835 846.848,853.709 " />
<polygon stroke="black" stroke-width="1" fill="rgb(128, 128, 128)" fill-opacity="0.25" points="614.707,226.714 726.733,227.021 726.733,200.806 614.400,201.114 " />
<polygon stroke="black" stroke-width="1" fill="rgb(128, 128, 128)" fill-opacity="0.25" points="571.494,181.043 614.400,201.114 671.232,103.834 629.965,79.770 " />
<polygon stroke="black" stroke-width="1" fill="rgb(128, 128, 128)" fill-opacity="0.25" points="837.530,235.520 918.426,235.520 918.118,200.090 836.915,201.216 " />
<polygon stroke="black" stroke-width="1" fill="rgb(128, 128, 128)" fill-opacity="0.25" points="799.949,192.000 836.915,201.216 871.014,96.051 834.560,84.173 " />
<polygon stroke="black" stroke-width="1" fill="rgb(128, 128, 128)" fill-opacity="0.25" points="403.149,62.874 427.520,85.811 431.411,40.960 " />
<polygon stroke="black" stroke-width="1" fill="rgb(128, 128, 128)" fill-opacity="0.25" points="465.613,80.384 457.626,67.072 427.520,85.811 424.346,104.141 " />
<polygon stroke="black" stroke-width="1" fill="rgb(128, 128, 128)" fill-opacity="0.25" points="638.157,66.867 668.570,85.709 666.726,43.725 " />
<polygon stroke="black" stroke-width="1" fill="rgb(128, 128, 128)" fill-opacity="0.25" points="704.000,84.480 692.224,70.144 668.570,85.709 671.232,103.834 " />
<polygon stroke="black" stroke-width="1" fill="rgb(128, 128, 128)" fill-opacity="0.25" points="840.294,67.174 867.328,76.800 860.672,37.683 " />
<polygon stroke="black" stroke-width="1" fill="rgb(128, 128, 128)" fill-opacity="0.25" points="892.416,85.914 883.200,68.301 867.328,76.800 871.014,96.051 " />
<polygon stroke="black" stroke-width="1" fill="rgb(128, 128, 128)" fill-opacity="0.25" points="165.683,961.946 127.795,939.008 133.325,993.178 " />
<polygon stroke="black" stroke-width="1" fill="rgb(128, 128, 128)" fill-opacity="0.25" points="105.267,947.610 133.325,993.178 127.795,939.008 " />
<polygon stroke="black" stroke-width="1" fill="rgb(128, 128, 128)" fill-opacity="0.25" points="869.888,930.816 865.382,986.317 892.211,940.646 " />
<polygon stroke="black" stroke-width="1" fill="rgb(128, 128, 128)" fill-opacity="0.25" points="636.416,949.658 671.949,980.275 672.154,925.389 " />
<polygon stroke="black" stroke-width="1" fill="rgb(128, 128, 128)" fill-opacity="0.25" points="704.000,942.899 672.154,925.389 671.949,980.275 " />
<polygon stroke="black" stroke-width="1" fill="rgb(128, 128, 128)" fill-opacity="0.25" points="126.259,88.576 128.410,69.632 111.514,63.693 103.322,82.125 " />
<polygon stroke="black" stroke-width="1" fill="rgb(128, 128, 128)" fill-opacity="0.25" points="227.738,184.934 165.786,67.686 126.259,88.576 186.880,201.830 " />
<polygon stroke="black" stroke-width="1" fill="rgb(128, 128, 128)" fill-opacity="0.25" points="940.134,191.283 892.416,85.914 871.014,96.051 918.118,200.090 " />
<polygon stroke="black" stroke-width="1" fill="rgb(128, 128, 128)" fill-opacity="0.25" points="760.934,184.320 704.000,84.480 671.232,103.834 726.733,200.806 " />
<polygon stroke="black" stroke-width="1" fill="rgb(128, 128, 128)" fill-opacity="0.25" points="523.776,182.989 465.613,80.384 424.346,104.141 480.461,202.240 " />
<polygon stroke="black" stroke-width="1" fill="rgb(128, 128, 128)" fill-opacity="0.25" points="918.426,235.520 947.507,236.544 918.118,200.090 " />
<polygon stroke="black" stroke-width="1" fill="rgb(128, 128, 128)" fill-opacity="0.25" points="186.880,201.830 97.280,199.373 96.051,240.742 185.754,240.640 " />
<polygon stroke="black" stroke-width="1" fill="rgb(128, 128, 128)" fill-opacity="0.25" points="480.461,202.240 338.637,202.138 338.842,229.888 480.256,229.888 " />
<polygon stroke="black" stroke-width="1" fill="rgb(128, 128, 128)" fill-opacity="0.25" points="240.230,241.766 186.880,201.830 185.754,240.640 " />
<polygon stroke="black" stroke-width="1" fill="rgb(128, 128, 128)" fill-opacity="0.25" points="918.426,235.520 889.856,854.118 918.938,855.757 947.507,236.544 " />
<polygon stroke="black" stroke-width="1" fill="rgb(128, 128, 128)" fill-opacity="0.25" points="726.733,227.021 698.573,844.595 742.707,847.360 770.867,228.250 " />
<polygon stroke="black" stroke-width="1" fill="rgb(128, 128, 128)" fill-opacity="0.25" points="726.733,227.021 770.867,228.250 726.733,200.806 " />
<polygon stroke="black" stroke-width="1" fill="rgb(128, 128, 128)" fill-opacity="0.25" points="560.333,227.635 614.400,201.114 571.494,181.043 " />
<polygon stroke="black" stroke-width="1" fill="rgb(128, 128, 128)" fill-opacity="0.25" points="284.570,232.448 338.637,202.138 302.899,176.128 " />
<polygon stroke="black" stroke-width="1" fill="rgb(128, 128, 128)" fill-opacity="0.25" points="284.570,232.448 338.842,229.888 338.637,202.138 " />
<polygon stroke="black" stroke-width="1" fill="rgb(128, 128, 128)" fill-opacity="0.25" points="240.230,241.766 227.738,184.934 186.880,201.830 " />
<polygon stroke="black" stroke-width="1" fill="rgb(128, 128, 128)" fill-opacity="0.25" points="66.970,240.947 97.280,199.373 74.138,194.765 " />
<polygon stroke="black" stroke-width="1" fill="rgb(128, 128, 128)" fill-opacity="0.25" points="66.970,240.947 96.051,240.742 97.280,199.373 " />
<polygon stroke="black" stroke-width="1" fill="rgb(128, 128, 128)" fill-opacity="0.25" points="947.507,236.544 940.134,191.283 918.118,200.090 " />
<polygon stroke="black" stroke-width="1" fill="rgb(128, 128, 128)" fill-opacity="0.25" points="793.293,235.418 836.915,201.216 799.949,192.000 " />
<polygon stroke="black" stroke-width="1" fill="rgb(128, 128, 128)" fill-opacity="0.25" points="770.867,228.250 760.934,184.320 726.733,200.806 " />
<polygon stroke="black" stroke-width="1" fill="rgb(128, 128, 128)" fill-opacity="0.25" points="793.293,235.418 837.530,235.520 836.915,201.216 " />
<polygon stroke="black" stroke-width="1" fill="rgb(128, 128, 128)" fill-opacity="0.25" points="560.333,227.635 614.707,226.714 614.400,201.114 " />
<polygon stroke="black" stroke-width="1" fill="rgb(128, 128, 128)" fill-opacity="0.25" points="534.630,230.400 523.776,182.989 480.461,202.240 " />
<polygon stroke="black" stroke-width="1" fill="rgb(128, 128, 128)" fill-opacity="0.25" points="845.926,882.483 889.037,883.712 889.856,854.118 846.848,853.709 " />
<polygon stroke="black" stroke-width="1" fill="rgb(128, 128, 128)" fill-opacity="0.25" points="889.037,883.712 918.938,855.757 889.856,854.118 " />
<polygon stroke="black" stroke-width="1" fill="rgb(128, 128, 128)" fill-opacity="0.25" points="698.061,877.261 742.707,847.360 698.573,844.595 " />
<polygon stroke="black" stroke-width="1" fill="rgb(128, 128, 128)" fill-opacity="0.25" points="458.138,847.053 383.078,846.950 382.976,876.134 458.445,876.339 " />
<polygon stroke="black" stroke-width="1" fill="rgb(128, 128, 128)" fill-opacity="0.25" points="157.594,858.522 109.978,859.443 111.514,890.778 159.334,888.320 " />
<polygon stroke="black" stroke-width="1" fill="rgb(128, 128, 128)" fill-opacity="0.25" points="109.978,859.443 80.896,860.467 111.514,890.778 " />
<polygon stroke="black" stroke-width="1" fill="rgb(128, 128, 128)" fill-opacity="0.25" points="346.419,898.970 386.662,950.477 420.352,923.648 382.976,876.134 " />
<polygon stroke="black" stroke-width="1" fill="rgb(128, 128, 128)" fill-opacity="0.25" points="197.734,907.162 211.866,861.696 159.334,888.320 " />
<polygon stroke="black" stroke-width="1" fill="rgb(128, 128, 128)" fill-opacity="0.25" points="211.866,861.696 157.594,858.522 159.334,888.320 " />
<polygon stroke="black" stroke-width="1" fill="rgb(128, 128, 128)" fill-opacity="0.25" points="328.909,852.070 346.419,898.970 382.976,876.134 " />
<polygon stroke="black" stroke-width="1" fill="rgb(128, 128, 128)" fill-opacity="0.25" points="88.064,896.819 105.267,947.610 127.795,939.008 111.514,890.778 " />
<polygon stroke="black" stroke-width="1" fill="rgb(128, 128, 128)" fill-opacity="0.25" points="911.770,891.392 918.938,855.757 889.037,883.712 " />
<polygon stroke="black" stroke-width="1" fill="rgb(128, 128, 128)" fill-opacity="0.25" points="730.829,890.573 742.707,847.360 698.061,877.261 " />
<polygon stroke="black" stroke-width="1" fill="rgb(128, 128, 128)" fill-opacity="0.25" points="812.646,896.307 837.530,946.995 869.888,930.816 845.926,882.483 " />
<polygon stroke="black" stroke-width="1" fill="rgb(128, 128, 128)" fill-opacity="0.25" points="494.285,898.560 512.512,850.125 458.445,876.339 " />
<polygon stroke="black" stroke-width="1" fill="rgb(128, 128, 128)" fill-opacity="0.25" points="600.166,896.000 636.416,949.658 672.154,925.389 638.157,875.827 " />
<polygon stroke="black" stroke-width="1" fill="rgb(128, 128, 128)" fill-opacity="0.25" points="512.512,850.125 458.138,847.053 458.445,876.339 " />
<polygon stroke="black" stroke-width="1" fill="rgb(128, 128, 128)" fill-opacity="0.25" points="584.704,847.155 600.166,896.000 638.157,875.827 " />
<polygon stroke="black" stroke-width="1" fill="rgb(128, 128, 128)" fill-opacity="0.25" points="837.530,946.995 865.382,986.317 869.888,930.816 " />
<polygon stroke="black" stroke-width="1" fill="rgb(128, 128, 128)" fill-opacity="0.25" points="892.211,940.646 911.770,891.392 889.037,883.712 869.888,930.816 " />
<polygon stroke="black" stroke-width="1" fill="rgb(128, 128, 128)" fill-opacity="0.25" points="704.000,942.899 730.829,890.573 698.061,877.261 672.154,925.389 " />
<polygon stroke="black" stroke-width="1" fill="rgb(128, 128, 128)" fill-opacity="0.25" points="420.352,923.648 419.635,982.630 454.451,951.091 " />
<polygon stroke="black" stroke-width="1" fill="rgb(128, 128, 128)" fill-opacity="0.25" points="420.352,923.648 386.662,950.477 419.635,982.630 " />
<polygon stroke="black" stroke-width="1" fill="rgb(128, 128, 128)" fill-opacity="0.25" points="128.410,69.632 158.003,53.555 131.174,30.822 " />
<polygon stroke="black" stroke-width="1" fill="rgb(128, 128, 128)" fill-opacity="0.25" points="403.149,62.874 391.168,74.547 424.346,104.141 427.520,85.811 " />
<polygon stroke="black" stroke-width="1" fill="rgb(128, 128, 128)" fill-opacity="0.25" points="457.626,67.072 431.411,40.960 427.520,85.811 " />
<polygon stroke="black" stroke-width="1" fill="rgb(128, 128, 128)" fill-opacity="0.25" points="638.157,66.867 629.965,79.770 671.232,103.834 668.570,85.709 " />
<polygon stroke="black" stroke-width="1" fill="rgb(128, 128, 128)" fill-opacity="0.25" points="692.224,70.144 666.726,43.725 668.570,85.709 " />
<polygon stroke="black" stroke-width="1" fill="rgb(128, 128, 128)" fill-opacity="0.25" points="840.294,67.174 834.560,84.173 871.014,96.051 867.328,76.800 " />
<polygon stroke="black" stroke-width="1" fill="rgb(128, 128, 128)" fill-opacity="0.25" points="883.200,68.301 860.672,37.683 867.328,76.800 " />
<polygon stroke="black" stroke-width="1" fill="rgb(128, 128, 128)" fill-opacity="0.25" points="128.410,69.632 131.174,30.822 111.514,63.693 " />
<polygon stroke="black" stroke-width="1" fill="rgb(128, 128, 128)" fill-opacity="0.25" points="128.410,69.632 126.259,88.576 165.786,67.686 158.003,53.555 " />

</svg>
