<?xml version="1.0" standalone="no"?>
<!DOCTYPE svg PUBLIC "-//W3C//DTD SVG 1.1//EN" 
  "http://www.w3.org/Graphics/SVG/1.1/DTD/svg11.dtd">
<svg width="1024" height="1024" viewBox="0 0 1024 1024"
     xmlns="http://www.w3.org/2000/svg" version="1.1">
<desc>, (Blender 4.0.2)</desc>
<polygon stroke="black" stroke-width="1" fill="rgb(128, 128, 128)" fill-opacity="0.25" points="722.432,196.301 693.146,84.275 632.013,198.758 " />
<polygon stroke="black" stroke-width="1" fill="rgb(128, 128, 128)" fill-opacity="0.25" points="633.139,237.978 661.606,862.003 709.632,862.925 723.661,238.080 " />
<polygon stroke="black" stroke-width="1" fill="rgb(128, 128, 128)" fill-opacity="0.25" points="822.170,196.915 904.192,198.144 869.786,91.853 " />
<polygon stroke="black" stroke-width="1" fill="rgb(128, 128, 128)" fill-opacity="0.25" points="91.546,197.632 205.005,198.042 147.661,99.738 " />
<polygon stroke="black" stroke-width="1" fill="rgb(128, 128, 128)" fill-opacity="0.25" points="394.752,100.250 338.022,199.373 481.280,199.168 " />
<polygon stroke="black" stroke-width="1" fill="rgb(128, 128, 128)" fill-opacity="0.25" points="895.078,886.170 851.558,887.398 870.912,935.014 " />
<polygon stroke="black" stroke-width="1" fill="rgb(128, 128, 128)" fill-opacity="0.25" points="180.941,879.514 120.525,880.947 146.637,929.587 " />
<polygon stroke="black" stroke-width="1" fill="rgb(128, 128, 128)" fill-opacity="0.25" points="436.531,880.026 360.346,880.230 398.746,928.051 " />
<polygon stroke="black" stroke-width="1" fill="rgb(128, 128, 128)" fill-opacity="0.25" points="894.259,857.190 903.578,232.653 821.862,232.755 850.739,857.600 " />
<polygon stroke="black" stroke-width="1" fill="rgb(128, 128, 128)" fill-opacity="0.25" points="180.019,847.360 204.698,223.846 91.546,224.051 120.013,847.872 " />
<polygon stroke="black" stroke-width="1" fill="rgb(128, 128, 128)" fill-opacity="0.25" points="436.326,850.637 481.075,227.226 338.227,227.226 360.550,850.637 " />
<polygon stroke="black" stroke-width="1" fill="rgb(128, 128, 128)" fill-opacity="0.25" points="659.763,892.109 691.712,943.309 708.096,894.566 " />
<polygon stroke="black" stroke-width="1" fill="rgb(128, 128, 128)" fill-opacity="0.25" points="428.134,70.349 394.752,100.250 481.280,199.168 517.427,172.954 " />
<polygon stroke="black" stroke-width="1" fill="rgb(128, 128, 128)" fill-opacity="0.25" points="338.227,227.226 338.022,199.373 283.238,227.840 " />
<polygon stroke="black" stroke-width="1" fill="rgb(128, 128, 128)" fill-opacity="0.25" points="360.550,850.637 338.227,227.226 283.238,227.840 305.562,853.709 " />
<polygon stroke="black" stroke-width="1" fill="rgb(128, 128, 128)" fill-opacity="0.25" points="436.326,850.637 491.110,855.757 535.962,229.786 481.075,227.226 " />
<polygon stroke="black" stroke-width="1" fill="rgb(128, 128, 128)" fill-opacity="0.25" points="716.390,77.824 693.146,84.275 722.432,196.301 745.779,191.590 " />
<polygon stroke="black" stroke-width="1" fill="rgb(128, 128, 128)" fill-opacity="0.25" points="633.139,237.978 578.150,239.104 606.720,865.280 661.606,862.003 " />
<polygon stroke="black" stroke-width="1" fill="rgb(128, 128, 128)" fill-opacity="0.25" points="709.632,862.925 739.021,863.949 753.050,238.285 723.661,238.080 " />
<polygon stroke="black" stroke-width="1" fill="rgb(128, 128, 128)" fill-opacity="0.25" points="708.096,894.566 731.853,900.710 739.021,863.949 " />
<polygon stroke="black" stroke-width="1" fill="rgb(128, 128, 128)" fill-opacity="0.25" points="659.763,892.109 620.954,911.155 653.414,966.451 691.712,943.309 " />
<polygon stroke="black" stroke-width="1" fill="rgb(128, 128, 128)" fill-opacity="0.25" points="436.531,880.026 491.110,855.757 436.326,850.637 " />
<polygon stroke="black" stroke-width="1" fill="rgb(128, 128, 128)" fill-opacity="0.25" points="360.346,880.230 323.994,902.656 364.237,955.699 398.746,928.051 " />
<polygon stroke="black" stroke-width="1" fill="rgb(128, 128, 128)" fill-opacity="0.25" points="895.078,886.170 928.768,900.198 939.008,858.317 " />
<polygon stroke="black" stroke-width="1" fill="rgb(128, 128, 128)" fill-opacity="0.25" points="180.941,879.514 235.008,850.534 180.019,847.360 " />
<polygon stroke="black" stroke-width="1" fill="rgb(128, 128, 128)" fill-opacity="0.25" points="120.013,847.872 120.525,880.947 180.941,879.514 180.019,847.360 " />
<polygon stroke="black" stroke-width="1" fill="rgb(128, 128, 128)" fill-opacity="0.25" points="180.019,847.360 235.008,850.534 259.686,224.768 204.698,223.846 " />
<polygon stroke="black" stroke-width="1" fill="rgb(128, 128, 128)" fill-opacity="0.25" points="894.259,857.190 895.078,886.170 939.008,858.317 " />
<polygon stroke="black" stroke-width="1" fill="rgb(128, 128, 128)" fill-opacity="0.25" points="894.259,857.190 939.008,858.317 948.326,232.653 903.578,232.653 " />
<polygon stroke="black" stroke-width="1" fill="rgb(128, 128, 128)" fill-opacity="0.25" points="205.005,198.042 91.546,197.632 91.546,224.051 204.698,223.846 " />
<polygon stroke="black" stroke-width="1" fill="rgb(128, 128, 128)" fill-opacity="0.25" points="189.235,75.366 147.661,99.738 205.005,198.042 248.422,177.664 " />
<polygon stroke="black" stroke-width="1" fill="rgb(128, 128, 128)" fill-opacity="0.25" points="904.192,198.144 822.170,196.915 821.862,232.755 903.578,232.653 " />
<polygon stroke="black" stroke-width="1" fill="rgb(128, 128, 128)" fill-opacity="0.25" points="906.547,79.872 869.786,91.853 904.192,198.144 941.568,188.723 " />
<polygon stroke="black" stroke-width="1" fill="rgb(128, 128, 128)" fill-opacity="0.25" points="387.584,36.352 391.578,81.715 416.051,58.573 " />
<polygon stroke="black" stroke-width="1" fill="rgb(128, 128, 128)" fill-opacity="0.25" points="394.752,100.250 391.578,81.715 361.062,62.771 352.973,76.186 " />
<polygon stroke="black" stroke-width="1" fill="rgb(128, 128, 128)" fill-opacity="0.25" points="152.166,39.014 150.323,81.408 180.941,62.362 " />
<polygon stroke="black" stroke-width="1" fill="rgb(128, 128, 128)" fill-opacity="0.25" points="147.661,99.738 150.323,81.408 126.464,65.638 114.483,80.179 " />
<polygon stroke="black" stroke-width="1" fill="rgb(128, 128, 128)" fill-opacity="0.25" points="880.230,32.870 873.472,72.397 900.813,62.771 " />
<polygon stroke="black" stroke-width="1" fill="rgb(128, 128, 128)" fill-opacity="0.25" points="869.786,91.853 873.472,72.397 857.498,63.795 848.179,81.613 " />
<polygon stroke="black" stroke-width="1" fill="rgb(128, 128, 128)" fill-opacity="0.25" points="686.080,997.990 691.712,943.309 653.414,966.451 " />
<polygon stroke="black" stroke-width="1" fill="rgb(128, 128, 128)" fill-opacity="0.25" points="691.712,943.309 686.080,997.990 714.342,952.013 " />
<polygon stroke="black" stroke-width="1" fill="rgb(128, 128, 128)" fill-opacity="0.25" points="848.384,944.947 875.520,991.130 870.912,935.014 " />
<polygon stroke="black" stroke-width="1" fill="rgb(128, 128, 128)" fill-opacity="0.25" points="146.637,929.587 146.842,984.986 182.784,954.163 " />
<polygon stroke="black" stroke-width="1" fill="rgb(128, 128, 128)" fill-opacity="0.25" points="146.842,984.986 146.637,929.587 114.483,947.302 " />
<polygon stroke="black" stroke-width="1" fill="rgb(128, 128, 128)" fill-opacity="0.25" points="716.390,77.824 708.096,59.187 690.995,65.229 693.146,84.275 " />
<polygon stroke="black" stroke-width="1" fill="rgb(128, 128, 128)" fill-opacity="0.25" points="632.013,198.758 693.146,84.275 653.312,63.181 590.643,181.555 " />
<polygon stroke="black" stroke-width="1" fill="rgb(128, 128, 128)" fill-opacity="0.25" points="822.170,196.915 869.786,91.853 848.179,81.613 799.949,188.006 " />
<polygon stroke="black" stroke-width="1" fill="rgb(128, 128, 128)" fill-opacity="0.25" points="91.546,197.632 147.661,99.738 114.483,80.179 56.934,180.941 " />
<polygon stroke="black" stroke-width="1" fill="rgb(128, 128, 128)" fill-opacity="0.25" points="338.022,199.373 394.752,100.250 352.973,76.186 294.298,179.814 " />
<polygon stroke="black" stroke-width="1" fill="rgb(128, 128, 128)" fill-opacity="0.25" points="822.170,196.915 792.474,233.779 821.862,232.755 " />
<polygon stroke="black" stroke-width="1" fill="rgb(128, 128, 128)" fill-opacity="0.25" points="633.139,237.978 723.661,238.080 722.432,196.301 632.013,198.758 " />
<polygon stroke="black" stroke-width="1" fill="rgb(128, 128, 128)" fill-opacity="0.25" points="338.227,227.226 481.075,227.226 481.280,199.168 338.022,199.373 " />
<polygon stroke="black" stroke-width="1" fill="rgb(128, 128, 128)" fill-opacity="0.25" points="633.139,237.978 632.013,198.758 578.150,239.104 " />
<polygon stroke="black" stroke-width="1" fill="rgb(128, 128, 128)" fill-opacity="0.25" points="792.474,233.779 821.453,859.238 850.739,857.600 821.862,232.755 " />
<polygon stroke="black" stroke-width="1" fill="rgb(128, 128, 128)" fill-opacity="0.25" points="46.899,225.382 75.366,850.739 120.013,847.872 91.546,224.051 " />
<polygon stroke="black" stroke-width="1" fill="rgb(128, 128, 128)" fill-opacity="0.25" points="91.546,197.632 46.899,225.382 91.546,224.051 " />
<polygon stroke="black" stroke-width="1" fill="rgb(128, 128, 128)" fill-opacity="0.25" points="248.422,177.664 205.005,198.042 259.686,224.768 " />
<polygon stroke="black" stroke-width="1" fill="rgb(128, 128, 128)" fill-opacity="0.25" points="517.427,172.954 481.280,199.168 535.962,229.786 " />
<polygon stroke="black" stroke-width="1" fill="rgb(128, 128, 128)" fill-opacity="0.25" points="481.280,199.168 481.075,227.226 535.962,229.786 " />
<polygon stroke="black" stroke-width="1" fill="rgb(128, 128, 128)" fill-opacity="0.25" points="632.013,198.758 590.643,181.555 578.150,239.104 " />
<polygon stroke="black" stroke-width="1" fill="rgb(128, 128, 128)" fill-opacity="0.25" points="745.779,191.590 722.432,196.301 753.050,238.285 " />
<polygon stroke="black" stroke-width="1" fill="rgb(128, 128, 128)" fill-opacity="0.25" points="722.432,196.301 723.661,238.080 753.050,238.285 " />
<polygon stroke="black" stroke-width="1" fill="rgb(128, 128, 128)" fill-opacity="0.25" points="822.170,196.915 799.949,188.006 792.474,233.779 " />
<polygon stroke="black" stroke-width="1" fill="rgb(128, 128, 128)" fill-opacity="0.25" points="941.568,188.723 904.192,198.144 948.326,232.653 " />
<polygon stroke="black" stroke-width="1" fill="rgb(128, 128, 128)" fill-opacity="0.25" points="91.546,197.632 56.934,180.941 46.899,225.382 " />
<polygon stroke="black" stroke-width="1" fill="rgb(128, 128, 128)" fill-opacity="0.25" points="904.192,198.144 903.578,232.653 948.326,232.653 " />
<polygon stroke="black" stroke-width="1" fill="rgb(128, 128, 128)" fill-opacity="0.25" points="205.005,198.042 204.698,223.846 259.686,224.768 " />
<polygon stroke="black" stroke-width="1" fill="rgb(128, 128, 128)" fill-opacity="0.25" points="338.022,199.373 294.298,179.814 283.238,227.840 " />
<polygon stroke="black" stroke-width="1" fill="rgb(128, 128, 128)" fill-opacity="0.25" points="894.259,857.190 850.739,857.600 851.558,887.398 895.078,886.170 " />
<polygon stroke="black" stroke-width="1" fill="rgb(128, 128, 128)" fill-opacity="0.25" points="850.739,857.600 821.453,859.238 851.558,887.398 " />
<polygon stroke="black" stroke-width="1" fill="rgb(128, 128, 128)" fill-opacity="0.25" points="120.013,847.872 75.366,850.739 120.525,880.947 " />
<polygon stroke="black" stroke-width="1" fill="rgb(128, 128, 128)" fill-opacity="0.25" points="360.346,880.230 436.531,880.026 436.326,850.637 360.550,850.637 " />
<polygon stroke="black" stroke-width="1" fill="rgb(128, 128, 128)" fill-opacity="0.25" points="659.763,892.109 708.096,894.566 709.632,862.925 661.606,862.003 " />
<polygon stroke="black" stroke-width="1" fill="rgb(128, 128, 128)" fill-opacity="0.25" points="708.096,894.566 739.021,863.949 709.632,862.925 " />
<polygon stroke="black" stroke-width="1" fill="rgb(128, 128, 128)" fill-opacity="0.25" points="436.531,880.026 398.746,928.051 432.742,955.187 473.498,903.066 " />
<polygon stroke="black" stroke-width="1" fill="rgb(128, 128, 128)" fill-opacity="0.25" points="659.763,892.109 606.720,865.280 620.954,911.155 " />
<polygon stroke="black" stroke-width="1" fill="rgb(128, 128, 128)" fill-opacity="0.25" points="659.763,892.109 661.606,862.003 606.720,865.280 " />
<polygon stroke="black" stroke-width="1" fill="rgb(128, 128, 128)" fill-opacity="0.25" points="436.531,880.026 473.498,903.066 491.110,855.757 " />
<polygon stroke="black" stroke-width="1" fill="rgb(128, 128, 128)" fill-opacity="0.25" points="708.096,894.566 691.712,943.309 714.342,952.013 731.853,900.710 " />
<polygon stroke="black" stroke-width="1" fill="rgb(128, 128, 128)" fill-opacity="0.25" points="851.558,887.398 821.453,859.238 828.621,895.283 " />
<polygon stroke="black" stroke-width="1" fill="rgb(128, 128, 128)" fill-opacity="0.25" points="120.525,880.947 75.366,850.739 87.450,894.362 " />
<polygon stroke="black" stroke-width="1" fill="rgb(128, 128, 128)" fill-opacity="0.25" points="895.078,886.170 870.912,935.014 903.578,951.398 928.768,900.198 " />
<polygon stroke="black" stroke-width="1" fill="rgb(128, 128, 128)" fill-opacity="0.25" points="360.346,880.230 305.562,853.709 323.994,902.656 " />
<polygon stroke="black" stroke-width="1" fill="rgb(128, 128, 128)" fill-opacity="0.25" points="180.941,879.514 146.637,929.587 182.784,954.163 219.443,899.891 " />
<polygon stroke="black" stroke-width="1" fill="rgb(128, 128, 128)" fill-opacity="0.25" points="360.346,880.230 360.550,850.637 305.562,853.709 " />
<polygon stroke="black" stroke-width="1" fill="rgb(128, 128, 128)" fill-opacity="0.25" points="180.941,879.514 219.443,899.891 235.008,850.534 " />
<polygon stroke="black" stroke-width="1" fill="rgb(128, 128, 128)" fill-opacity="0.25" points="870.912,935.014 875.520,991.130 903.578,951.398 " />
<polygon stroke="black" stroke-width="1" fill="rgb(128, 128, 128)" fill-opacity="0.25" points="870.912,935.014 851.558,887.398 828.621,895.283 848.384,944.947 " />
<polygon stroke="black" stroke-width="1" fill="rgb(128, 128, 128)" fill-opacity="0.25" points="146.637,929.587 120.525,880.947 87.450,894.362 114.483,947.302 " />
<polygon stroke="black" stroke-width="1" fill="rgb(128, 128, 128)" fill-opacity="0.25" points="364.237,955.699 399.462,987.648 398.746,928.051 " />
<polygon stroke="black" stroke-width="1" fill="rgb(128, 128, 128)" fill-opacity="0.25" points="399.462,987.648 432.742,955.187 398.746,928.051 " />
<polygon stroke="black" stroke-width="1" fill="rgb(128, 128, 128)" fill-opacity="0.25" points="688.230,26.010 661.197,48.947 690.995,65.229 " />
<polygon stroke="black" stroke-width="1" fill="rgb(128, 128, 128)" fill-opacity="0.25" points="391.578,81.715 394.752,100.250 428.134,70.349 416.051,58.573 " />
<polygon stroke="black" stroke-width="1" fill="rgb(128, 128, 128)" fill-opacity="0.25" points="391.578,81.715 387.584,36.352 361.062,62.771 " />
<polygon stroke="black" stroke-width="1" fill="rgb(128, 128, 128)" fill-opacity="0.25" points="150.323,81.408 147.661,99.738 189.235,75.366 180.941,62.362 " />
<polygon stroke="black" stroke-width="1" fill="rgb(128, 128, 128)" fill-opacity="0.25" points="150.323,81.408 152.166,39.014 126.464,65.638 " />
<polygon stroke="black" stroke-width="1" fill="rgb(128, 128, 128)" fill-opacity="0.25" points="873.472,72.397 869.786,91.853 906.547,79.872 900.813,62.771 " />
<polygon stroke="black" stroke-width="1" fill="rgb(128, 128, 128)" fill-opacity="0.25" points="873.472,72.397 880.230,32.870 857.498,63.795 " />
<polygon stroke="black" stroke-width="1" fill="rgb(128, 128, 128)" fill-opacity="0.25" points="708.096,59.187 688.230,26.010 690.995,65.229 " />
<polygon stroke="black" stroke-width="1" fill="rgb(128, 128, 128)" fill-opacity="0.25" points="661.197,48.947 653.312,63.181 693.146,84.275 690.995,65.229 " />

</svg>
