<?xml version="1.0" standalone="no"?>
<!DOCTYPE svg PUBLIC "-//W3C//DTD SVG 1.1//EN" 
  "http://www.w3.org/Graphics/SVG/1.1/DTD/svg11.dtd">
<svg width="1024" height="1024" viewBox="0 0 1024 1024"
     xmlns="http://www.w3.org/2000/svg" version="1.1">
<desc>, (Blender 4.0.2)</desc>
<polygon stroke="black" stroke-width="1" fill="rgb(128, 128, 128)" fill-opacity="0.25" points="808.755,328.704 932.352,328.602 932.147,80.896 808.653,80.998 " />
<polygon stroke="black" stroke-width="1" fill="rgb(128, 128, 128)" fill-opacity="0.25" points="612.864,738.304 923.136,738.406 923.136,490.291 612.864,490.189 " />
<polygon stroke="black" stroke-width="1" fill="rgb(128, 128, 128)" fill-opacity="0.25" points="91.853,328.602 215.347,328.602 215.552,80.998 91.955,80.896 " />
<polygon stroke="black" stroke-width="1" fill="rgb(128, 128, 128)" fill-opacity="0.25" points="356.966,329.011 667.238,328.909 667.034,80.691 356.762,80.896 " />
<polygon stroke="black" stroke-width="1" fill="rgb(128, 128, 128)" fill-opacity="0.25" points="101.274,932.045 410.829,932.250 410.829,808.858 101.274,808.550 " />
<polygon stroke="black" stroke-width="1" fill="rgb(128, 128, 128)" fill-opacity="0.25" points="410.829,624.640 410.829,501.248 101.171,501.555 101.274,624.947 " />
<polygon stroke="black" stroke-width="1" fill="rgb(128, 128, 128)" fill-opacity="0.25" points="101.274,624.947 38.502,627.405 99.635,687.718 " />
<polygon stroke="black" stroke-width="1" fill="rgb(128, 128, 128)" fill-opacity="0.25" points="410.829,624.640 101.274,624.947 99.635,687.718 412.570,687.718 " />
<polygon stroke="black" stroke-width="1" fill="rgb(128, 128, 128)" fill-opacity="0.25" points="472.986,498.688 410.829,501.248 410.829,624.640 473.702,627.098 " />
<polygon stroke="black" stroke-width="1" fill="rgb(128, 128, 128)" fill-opacity="0.25" points="101.171,501.555 99.533,438.477 39.014,498.995 " />
<polygon stroke="black" stroke-width="1" fill="rgb(128, 128, 128)" fill-opacity="0.25" points="667.238,328.909 356.966,329.011 355.738,392.192 668.467,392.294 " />
<polygon stroke="black" stroke-width="1" fill="rgb(128, 128, 128)" fill-opacity="0.25" points="39.014,498.995 99.533,438.477 18.534,418.099 " />
<polygon stroke="black" stroke-width="1" fill="rgb(128, 128, 128)" fill-opacity="0.25" points="355.533,17.715 356.762,80.896 667.034,80.691 668.262,17.306 " />
<polygon stroke="black" stroke-width="1" fill="rgb(128, 128, 128)" fill-opacity="0.25" points="356.966,329.011 356.762,80.896 293.683,79.462 293.478,330.445 " />
<polygon stroke="black" stroke-width="1" fill="rgb(128, 128, 128)" fill-opacity="0.25" points="934.298,391.475 932.352,328.602 808.755,328.704 807.117,392.090 " />
<polygon stroke="black" stroke-width="1" fill="rgb(128, 128, 128)" fill-opacity="0.25" points="932.147,80.896 933.888,17.510 806.707,18.125 808.653,80.998 " />
<polygon stroke="black" stroke-width="1" fill="rgb(128, 128, 128)" fill-opacity="0.25" points="808.653,80.998 745.267,79.667 745.677,330.138 808.755,328.704 " />
<polygon stroke="black" stroke-width="1" fill="rgb(128, 128, 128)" fill-opacity="0.25" points="923.136,738.406 924.365,801.792 986.214,739.840 " />
<polygon stroke="black" stroke-width="1" fill="rgb(128, 128, 128)" fill-opacity="0.25" points="923.136,490.291 924.365,426.906 611.635,427.008 612.864,490.189 " />
<polygon stroke="black" stroke-width="1" fill="rgb(128, 128, 128)" fill-opacity="0.25" points="612.864,738.304 612.864,490.189 549.786,488.755 549.478,739.738 " />
<polygon stroke="black" stroke-width="1" fill="rgb(128, 128, 128)" fill-opacity="0.25" points="215.552,80.998 217.293,17.510 90.214,17.920 91.955,80.896 " />
<polygon stroke="black" stroke-width="1" fill="rgb(128, 128, 128)" fill-opacity="0.25" points="91.853,328.602 91.955,80.896 28.877,79.462 28.467,329.830 " />
<polygon stroke="black" stroke-width="1" fill="rgb(128, 128, 128)" fill-opacity="0.25" points="215.347,328.602 91.853,328.602 89.907,391.475 217.088,392.090 " />
<polygon stroke="black" stroke-width="1" fill="rgb(128, 128, 128)" fill-opacity="0.25" points="278.630,79.565 215.552,80.998 215.347,328.602 278.733,330.035 " />
<polygon stroke="black" stroke-width="1" fill="rgb(128, 128, 128)" fill-opacity="0.25" points="101.274,808.550 410.829,808.858 412.570,745.984 99.738,745.472 " />
<polygon stroke="black" stroke-width="1" fill="rgb(128, 128, 128)" fill-opacity="0.25" points="101.274,932.045 101.274,808.550 39.014,805.990 38.400,934.502 " />
<polygon stroke="black" stroke-width="1" fill="rgb(128, 128, 128)" fill-opacity="0.25" points="412.365,995.123 410.829,932.250 101.274,932.045 99.533,995.021 " />
<polygon stroke="black" stroke-width="1" fill="rgb(128, 128, 128)" fill-opacity="0.25" points="410.829,808.858 473.702,806.400 412.570,745.984 " />
<polygon stroke="black" stroke-width="1" fill="rgb(128, 128, 128)" fill-opacity="0.25" points="410.829,624.640 412.570,687.718 473.702,627.098 " />
<polygon stroke="black" stroke-width="1" fill="rgb(128, 128, 128)" fill-opacity="0.25" points="215.552,80.998 278.630,79.565 217.293,17.510 " />
<polygon stroke="black" stroke-width="1" fill="rgb(128, 128, 128)" fill-opacity="0.25" points="412.570,687.718 493.568,708.301 473.702,627.098 " />
<polygon stroke="black" stroke-width="1" fill="rgb(128, 128, 128)" fill-opacity="0.25" points="923.136,490.291 923.136,738.406 986.214,739.840 986.522,488.858 " />
<polygon stroke="black" stroke-width="1" fill="rgb(128, 128, 128)" fill-opacity="0.25" points="924.365,426.906 923.136,490.291 986.522,488.858 " />
<polygon stroke="black" stroke-width="1" fill="rgb(128, 128, 128)" fill-opacity="0.25" points="28.877,79.462 91.955,80.896 90.214,17.920 " />
<polygon stroke="black" stroke-width="1" fill="rgb(128, 128, 128)" fill-opacity="0.25" points="91.853,328.602 28.467,329.830 89.907,391.475 " />
<polygon stroke="black" stroke-width="1" fill="rgb(128, 128, 128)" fill-opacity="0.25" points="101.274,808.550 99.738,745.472 39.014,805.990 " />
<polygon stroke="black" stroke-width="1" fill="rgb(128, 128, 128)" fill-opacity="0.25" points="101.274,932.045 38.400,934.502 99.533,995.021 " />
<polygon stroke="black" stroke-width="1" fill="rgb(128, 128, 128)" fill-opacity="0.25" points="923.136,738.406 612.864,738.304 611.635,801.587 924.365,801.792 " />
<polygon stroke="black" stroke-width="1" fill="rgb(128, 128, 128)" fill-opacity="0.25" points="99.533,995.021 38.400,934.502 18.432,1015.706 " />
<polygon stroke="black" stroke-width="1" fill="rgb(128, 128, 128)" fill-opacity="0.25" points="612.864,738.304 549.478,739.738 611.635,801.587 " />
<polygon stroke="black" stroke-width="1" fill="rgb(128, 128, 128)" fill-opacity="0.25" points="932.352,328.602 934.298,391.475 995.533,329.933 " />
<polygon stroke="black" stroke-width="1" fill="rgb(128, 128, 128)" fill-opacity="0.25" points="473.088,934.810 412.365,995.123 493.261,1015.808 " />
<polygon stroke="black" stroke-width="1" fill="rgb(128, 128, 128)" fill-opacity="0.25" points="667.238,328.909 668.467,392.294 730.317,330.342 " />
<polygon stroke="black" stroke-width="1" fill="rgb(128, 128, 128)" fill-opacity="0.25" points="410.829,808.858 410.829,932.250 473.088,934.810 473.702,806.400 " />
<polygon stroke="black" stroke-width="1" fill="rgb(128, 128, 128)" fill-opacity="0.25" points="808.755,328.704 745.677,330.138 807.117,392.090 " />
<polygon stroke="black" stroke-width="1" fill="rgb(128, 128, 128)" fill-opacity="0.25" points="493.568,725.197 412.570,745.984 473.702,806.400 " />
<polygon stroke="black" stroke-width="1" fill="rgb(128, 128, 128)" fill-opacity="0.25" points="667.034,80.691 667.238,328.909 730.317,330.342 730.522,79.258 " />
<polygon stroke="black" stroke-width="1" fill="rgb(128, 128, 128)" fill-opacity="0.25" points="808.653,80.998 806.707,18.125 745.267,79.667 " />
<polygon stroke="black" stroke-width="1" fill="rgb(128, 128, 128)" fill-opacity="0.25" points="932.147,80.896 932.352,328.602 995.533,329.933 995.533,79.565 " />
<polygon stroke="black" stroke-width="1" fill="rgb(128, 128, 128)" fill-opacity="0.25" points="215.347,328.602 217.088,392.090 278.733,330.035 " />
<polygon stroke="black" stroke-width="1" fill="rgb(128, 128, 128)" fill-opacity="0.25" points="356.966,329.011 293.478,330.445 355.738,392.192 " />
<polygon stroke="black" stroke-width="1" fill="rgb(128, 128, 128)" fill-opacity="0.25" points="18.739,724.992 39.014,805.990 99.738,745.472 " />
<polygon stroke="black" stroke-width="1" fill="rgb(128, 128, 128)" fill-opacity="0.25" points="410.829,932.250 412.365,995.123 473.088,934.810 " />
<polygon stroke="black" stroke-width="1" fill="rgb(128, 128, 128)" fill-opacity="0.25" points="101.274,624.947 101.171,501.555 39.014,498.995 38.502,627.405 " />
<polygon stroke="black" stroke-width="1" fill="rgb(128, 128, 128)" fill-opacity="0.25" points="549.786,488.755 612.864,490.189 611.635,427.008 " />
<polygon stroke="black" stroke-width="1" fill="rgb(128, 128, 128)" fill-opacity="0.25" points="933.888,17.510 932.147,80.896 995.533,79.565 " />
<polygon stroke="black" stroke-width="1" fill="rgb(128, 128, 128)" fill-opacity="0.25" points="38.502,627.405 18.739,708.710 99.635,687.718 " />
<polygon stroke="black" stroke-width="1" fill="rgb(128, 128, 128)" fill-opacity="0.25" points="101.171,501.555 410.829,501.248 412.365,438.374 99.533,438.477 " />
<polygon stroke="black" stroke-width="1" fill="rgb(128, 128, 128)" fill-opacity="0.25" points="668.262,17.306 667.034,80.691 730.522,79.258 " />
<polygon stroke="black" stroke-width="1" fill="rgb(128, 128, 128)" fill-opacity="0.25" points="410.829,501.248 472.986,498.688 412.365,438.374 " />
<polygon stroke="black" stroke-width="1" fill="rgb(128, 128, 128)" fill-opacity="0.25" points="472.986,498.688 493.261,417.690 412.365,438.374 " />
<polygon stroke="black" stroke-width="1" fill="rgb(128, 128, 128)" fill-opacity="0.25" points="356.762,80.896 355.533,17.715 293.683,79.462 " />

</svg>
