<?xml version="1.0" standalone="no"?>
<!DOCTYPE svg PUBLIC "-//W3C//DTD SVG 1.1//EN" 
  "http://www.w3.org/Graphics/SVG/1.1/DTD/svg11.dtd">
<svg width="1024" height="1024" viewBox="0 0 1024 1024"
     xmlns="http://www.w3.org/2000/svg" version="1.1">
<desc>, (Blender 4.0.2)</desc>
<polygon stroke="black" stroke-width="1" fill="rgb(128, 128, 128)" fill-opacity="0.25" points="309.248,309.248 324.301,376.320 297.472,376.934 " />
<polygon stroke="black" stroke-width="1" fill="rgb(128, 128, 128)" fill-opacity="0.25" points="309.248,309.248 348.877,365.466 324.301,376.320 " />
<polygon stroke="black" stroke-width="1" fill="rgb(128, 128, 128)" fill-opacity="0.25" points="309.248,309.248 367.309,346.010 348.877,365.466 " />
<polygon stroke="black" stroke-width="1" fill="rgb(128, 128, 128)" fill-opacity="0.25" points="309.248,309.248 376.934,321.024 367.309,346.010 " />
<polygon stroke="black" stroke-width="1" fill="rgb(128, 128, 128)" fill-opacity="0.25" points="309.248,309.248 376.320,294.195 376.934,321.024 " />
<polygon stroke="black" stroke-width="1" fill="rgb(128, 128, 128)" fill-opacity="0.25" points="309.248,309.248 365.466,269.619 376.320,294.195 " />
<polygon stroke="black" stroke-width="1" fill="rgb(128, 128, 128)" fill-opacity="0.25" points="309.248,309.248 346.010,251.187 365.466,269.619 " />
<polygon stroke="black" stroke-width="1" fill="rgb(128, 128, 128)" fill-opacity="0.25" points="309.248,309.248 321.024,241.562 346.010,251.187 " />
<polygon stroke="black" stroke-width="1" fill="rgb(128, 128, 128)" fill-opacity="0.25" points="309.248,309.248 294.195,242.176 321.024,241.562 " />
<polygon stroke="black" stroke-width="1" fill="rgb(128, 128, 128)" fill-opacity="0.25" points="309.248,309.248 269.619,253.030 294.195,242.176 " />
<polygon stroke="black" stroke-width="1" fill="rgb(128, 128, 128)" fill-opacity="0.25" points="309.248,309.248 251.187,272.486 269.619,253.030 " />
<polygon stroke="black" stroke-width="1" fill="rgb(128, 128, 128)" fill-opacity="0.25" points="309.248,309.248 241.562,297.472 251.187,272.486 " />
<polygon stroke="black" stroke-width="1" fill="rgb(128, 128, 128)" fill-opacity="0.25" points="309.248,309.248 242.176,324.301 241.562,297.472 " />
<polygon stroke="black" stroke-width="1" fill="rgb(128, 128, 128)" fill-opacity="0.25" points="309.248,309.248 253.030,348.877 242.176,324.301 " />
<polygon stroke="black" stroke-width="1" fill="rgb(128, 128, 128)" fill-opacity="0.25" points="309.248,309.248 272.486,367.309 253.030,348.877 " />
<polygon stroke="black" stroke-width="1" fill="rgb(128, 128, 128)" fill-opacity="0.25" points="309.248,309.248 297.472,376.934 272.486,367.309 " />
<polygon stroke="black" stroke-width="1" fill="rgb(128, 128, 128)" fill-opacity="0.25" points="297.472,376.934 324.301,376.320 338.637,443.904 284.774,444.928 " />
<polygon stroke="black" stroke-width="1" fill="rgb(128, 128, 128)" fill-opacity="0.25" points="324.301,376.320 348.877,365.466 387.891,422.400 338.637,443.904 " />
<polygon stroke="black" stroke-width="1" fill="rgb(128, 128, 128)" fill-opacity="0.25" points="348.877,365.466 367.309,346.010 425.165,383.693 387.891,422.400 " />
<polygon stroke="black" stroke-width="1" fill="rgb(128, 128, 128)" fill-opacity="0.25" points="367.309,346.010 376.934,321.024 444.928,333.722 425.165,383.693 " />
<polygon stroke="black" stroke-width="1" fill="rgb(128, 128, 128)" fill-opacity="0.25" points="376.934,321.024 376.320,294.195 443.904,279.962 444.928,333.722 " />
<polygon stroke="black" stroke-width="1" fill="rgb(128, 128, 128)" fill-opacity="0.25" points="376.320,294.195 365.466,269.619 422.400,230.605 443.904,279.962 " />
<polygon stroke="black" stroke-width="1" fill="rgb(128, 128, 128)" fill-opacity="0.25" points="365.466,269.619 346.010,251.187 383.693,193.331 422.400,230.605 " />
<polygon stroke="black" stroke-width="1" fill="rgb(128, 128, 128)" fill-opacity="0.25" points="346.010,251.187 321.024,241.562 333.722,173.670 383.693,193.331 " />
<polygon stroke="black" stroke-width="1" fill="rgb(128, 128, 128)" fill-opacity="0.25" points="321.024,241.562 294.195,242.176 279.962,174.592 333.722,173.670 " />
<polygon stroke="black" stroke-width="1" fill="rgb(128, 128, 128)" fill-opacity="0.25" points="294.195,242.176 269.619,253.030 230.605,196.096 279.962,174.592 " />
<polygon stroke="black" stroke-width="1" fill="rgb(128, 128, 128)" fill-opacity="0.25" points="269.619,253.030 251.187,272.486 193.331,234.803 230.605,196.096 " />
<polygon stroke="black" stroke-width="1" fill="rgb(128, 128, 128)" fill-opacity="0.25" points="251.187,272.486 241.562,297.472 173.670,284.774 193.331,234.803 " />
<polygon stroke="black" stroke-width="1" fill="rgb(128, 128, 128)" fill-opacity="0.25" points="241.562,297.472 242.176,324.301 174.592,338.637 173.670,284.774 " />
<polygon stroke="black" stroke-width="1" fill="rgb(128, 128, 128)" fill-opacity="0.25" points="242.176,324.301 253.030,348.877 196.096,387.891 174.592,338.637 " />
<polygon stroke="black" stroke-width="1" fill="rgb(128, 128, 128)" fill-opacity="0.25" points="253.030,348.877 272.486,367.309 234.803,425.165 196.096,387.891 " />
<polygon stroke="black" stroke-width="1" fill="rgb(128, 128, 128)" fill-opacity="0.25" points="272.486,367.309 297.472,376.934 284.774,444.928 234.803,425.165 " />
<polygon stroke="black" stroke-width="1" fill="rgb(128, 128, 128)" fill-opacity="0.25" points="284.774,444.928 338.637,443.904 352.461,513.434 271.053,514.355 " />
<polygon stroke="black" stroke-width="1" fill="rgb(128, 128, 128)" fill-opacity="0.25" points="338.637,443.904 387.891,422.400 427.213,481.382 352.461,513.434 " />
<polygon stroke="black" stroke-width="1" fill="rgb(128, 128, 128)" fill-opacity="0.25" points="387.891,422.400 425.165,383.693 484.147,423.117 427.213,481.382 " />
<polygon stroke="black" stroke-width="1" fill="rgb(128, 128, 128)" fill-opacity="0.25" points="425.165,383.693 444.928,333.722 514.355,347.546 484.147,423.117 " />
<polygon stroke="black" stroke-width="1" fill="rgb(128, 128, 128)" fill-opacity="0.25" points="444.928,333.722 443.904,279.962 513.434,266.138 514.355,347.546 " />
<polygon stroke="black" stroke-width="1" fill="rgb(128, 128, 128)" fill-opacity="0.25" points="443.904,279.962 422.400,230.605 481.382,191.283 513.434,266.138 " />
<polygon stroke="black" stroke-width="1" fill="rgb(128, 128, 128)" fill-opacity="0.25" points="422.400,230.605 383.693,193.331 423.117,134.349 481.382,191.283 " />
<polygon stroke="black" stroke-width="1" fill="rgb(128, 128, 128)" fill-opacity="0.25" points="383.693,193.331 333.722,173.670 347.546,104.141 423.117,134.349 " />
<polygon stroke="black" stroke-width="1" fill="rgb(128, 128, 128)" fill-opacity="0.25" points="333.722,173.670 279.962,174.592 266.138,105.062 347.546,104.141 " />
<polygon stroke="black" stroke-width="1" fill="rgb(128, 128, 128)" fill-opacity="0.25" points="279.962,174.592 230.605,196.096 191.283,137.114 266.138,105.062 " />
<polygon stroke="black" stroke-width="1" fill="rgb(128, 128, 128)" fill-opacity="0.25" points="230.605,196.096 193.331,234.803 134.349,195.379 191.283,137.114 " />
<polygon stroke="black" stroke-width="1" fill="rgb(128, 128, 128)" fill-opacity="0.25" points="193.331,234.803 173.670,284.774 104.141,271.053 134.349,195.379 " />
<polygon stroke="black" stroke-width="1" fill="rgb(128, 128, 128)" fill-opacity="0.25" points="173.670,284.774 174.592,338.637 105.062,352.461 104.141,271.053 " />
<polygon stroke="black" stroke-width="1" fill="rgb(128, 128, 128)" fill-opacity="0.25" points="174.592,338.637 196.096,387.891 137.114,427.213 105.062,352.461 " />
<polygon stroke="black" stroke-width="1" fill="rgb(128, 128, 128)" fill-opacity="0.25" points="196.096,387.891 234.803,425.165 195.379,484.147 137.114,427.213 " />
<polygon stroke="black" stroke-width="1" fill="rgb(128, 128, 128)" fill-opacity="0.25" points="234.803,425.165 284.774,444.928 271.053,514.355 195.379,484.147 " />
<polygon stroke="black" stroke-width="1" fill="rgb(128, 128, 128)" fill-opacity="0.25" points="271.053,514.355 352.461,513.434 366.490,587.059 255.795,587.776 " />
<polygon stroke="black" stroke-width="1" fill="rgb(128, 128, 128)" fill-opacity="0.25" points="352.461,513.434 427.213,481.382 468.480,544.051 366.490,587.059 " />
<polygon stroke="black" stroke-width="1" fill="rgb(128, 128, 128)" fill-opacity="0.25" points="427.213,481.382 484.147,423.117 546.202,465.203 468.480,544.051 " />
<polygon stroke="black" stroke-width="1" fill="rgb(128, 128, 128)" fill-opacity="0.25" points="484.147,423.117 514.355,347.546 587.776,362.701 546.202,465.203 " />
<polygon stroke="black" stroke-width="1" fill="rgb(128, 128, 128)" fill-opacity="0.25" points="514.355,347.546 513.434,266.138 587.059,252.006 587.776,362.701 " />
<polygon stroke="black" stroke-width="1" fill="rgb(128, 128, 128)" fill-opacity="0.25" points="513.434,266.138 481.382,191.283 544.051,150.118 587.059,252.006 " />
<polygon stroke="black" stroke-width="1" fill="rgb(128, 128, 128)" fill-opacity="0.25" points="481.382,191.283 423.117,134.349 465.203,72.397 544.051,150.118 " />
<polygon stroke="black" stroke-width="1" fill="rgb(128, 128, 128)" fill-opacity="0.25" points="423.117,134.349 347.546,104.141 362.701,30.720 465.203,72.397 " />
<polygon stroke="black" stroke-width="1" fill="rgb(128, 128, 128)" fill-opacity="0.25" points="347.546,104.141 266.138,105.062 252.006,31.437 362.701,30.720 " />
<polygon stroke="black" stroke-width="1" fill="rgb(128, 128, 128)" fill-opacity="0.25" points="266.138,105.062 191.283,137.114 150.118,74.547 252.006,31.437 " />
<polygon stroke="black" stroke-width="1" fill="rgb(128, 128, 128)" fill-opacity="0.25" points="191.283,137.114 134.349,195.379 72.397,153.293 150.118,74.547 " />
<polygon stroke="black" stroke-width="1" fill="rgb(128, 128, 128)" fill-opacity="0.25" points="134.349,195.379 104.141,271.053 30.720,255.795 72.397,153.293 " />
<polygon stroke="black" stroke-width="1" fill="rgb(128, 128, 128)" fill-opacity="0.25" points="104.141,271.053 105.062,352.461 31.437,366.490 30.720,255.795 " />
<polygon stroke="black" stroke-width="1" fill="rgb(128, 128, 128)" fill-opacity="0.25" points="105.062,352.461 137.114,427.213 74.547,468.480 31.437,366.490 " />
<polygon stroke="black" stroke-width="1" fill="rgb(128, 128, 128)" fill-opacity="0.25" points="137.114,427.213 195.379,484.147 153.293,546.202 74.547,468.480 " />
<polygon stroke="black" stroke-width="1" fill="rgb(128, 128, 128)" fill-opacity="0.25" points="195.379,484.147 271.053,514.355 255.795,587.776 153.293,546.202 " />
<polygon stroke="black" stroke-width="1" fill="rgb(128, 128, 128)" fill-opacity="0.25" points="871.219,478.208 949.862,556.032 887.091,597.094 828.928,540.160 " />
<polygon stroke="black" stroke-width="1" fill="rgb(128, 128, 128)" fill-opacity="0.25" points="949.862,556.032 992.666,658.125 919.040,672.051 887.091,597.094 " />
<polygon stroke="black" stroke-width="1" fill="rgb(128, 128, 128)" fill-opacity="0.25" points="992.666,658.125 993.178,768.819 919.757,753.459 919.040,672.051 " />
<polygon stroke="black" stroke-width="1" fill="rgb(128, 128, 128)" fill-opacity="0.25" points="993.178,768.819 951.296,871.219 889.446,828.928 919.757,753.459 " />
<polygon stroke="black" stroke-width="1" fill="rgb(128, 128, 128)" fill-opacity="0.25" points="951.296,871.219 873.472,949.862 832.410,887.091 889.446,828.928 " />
<polygon stroke="black" stroke-width="1" fill="rgb(128, 128, 128)" fill-opacity="0.25" points="873.472,949.862 771.379,992.666 757.453,919.040 832.410,887.091 " />
<polygon stroke="black" stroke-width="1" fill="rgb(128, 128, 128)" fill-opacity="0.25" points="771.379,992.666 660.787,993.178 676.045,919.757 757.453,919.040 " />
<polygon stroke="black" stroke-width="1" fill="rgb(128, 128, 128)" fill-opacity="0.25" points="660.787,993.178 558.285,951.296 600.576,889.446 676.045,919.757 " />
<polygon stroke="black" stroke-width="1" fill="rgb(128, 128, 128)" fill-opacity="0.25" points="558.285,951.296 479.642,873.472 542.413,832.410 600.576,889.446 " />
<polygon stroke="black" stroke-width="1" fill="rgb(128, 128, 128)" fill-opacity="0.25" points="479.642,873.472 436.838,771.379 510.566,757.453 542.413,832.410 " />
<polygon stroke="black" stroke-width="1" fill="rgb(128, 128, 128)" fill-opacity="0.25" points="436.838,771.379 436.326,660.787 509.747,676.045 510.566,757.453 " />
<polygon stroke="black" stroke-width="1" fill="rgb(128, 128, 128)" fill-opacity="0.25" points="436.326,660.787 478.208,558.285 540.160,600.576 509.747,676.045 " />
<polygon stroke="black" stroke-width="1" fill="rgb(128, 128, 128)" fill-opacity="0.25" points="478.208,558.285 556.032,479.642 597.094,542.413 540.160,600.576 " />
<polygon stroke="black" stroke-width="1" fill="rgb(128, 128, 128)" fill-opacity="0.25" points="556.032,479.642 658.125,436.838 672.051,510.566 597.094,542.413 " />
<polygon stroke="black" stroke-width="1" fill="rgb(128, 128, 128)" fill-opacity="0.25" points="658.125,436.838 768.819,436.326 753.459,509.747 672.051,510.566 " />
<polygon stroke="black" stroke-width="1" fill="rgb(128, 128, 128)" fill-opacity="0.25" points="768.819,436.326 871.219,478.208 828.928,540.160 753.459,509.747 " />
<polygon stroke="black" stroke-width="1" fill="rgb(128, 128, 128)" fill-opacity="0.25" points="828.928,540.160 887.091,597.094 828.109,636.314 789.504,598.938 " />
<polygon stroke="black" stroke-width="1" fill="rgb(128, 128, 128)" fill-opacity="0.25" points="887.091,597.094 919.040,672.051 849.510,685.670 828.109,636.314 " />
<polygon stroke="black" stroke-width="1" fill="rgb(128, 128, 128)" fill-opacity="0.25" points="919.040,672.051 919.757,753.459 850.330,739.430 849.510,685.670 " />
<polygon stroke="black" stroke-width="1" fill="rgb(128, 128, 128)" fill-opacity="0.25" points="919.757,753.459 889.446,828.928 830.566,789.504 850.330,739.430 " />
<polygon stroke="black" stroke-width="1" fill="rgb(128, 128, 128)" fill-opacity="0.25" points="889.446,828.928 832.410,887.091 793.190,828.109 830.566,789.504 " />
<polygon stroke="black" stroke-width="1" fill="rgb(128, 128, 128)" fill-opacity="0.25" points="832.410,887.091 757.453,919.040 743.834,849.510 793.190,828.109 " />
<polygon stroke="black" stroke-width="1" fill="rgb(128, 128, 128)" fill-opacity="0.25" points="757.453,919.040 676.045,919.757 690.074,850.330 743.834,849.510 " />
<polygon stroke="black" stroke-width="1" fill="rgb(128, 128, 128)" fill-opacity="0.25" points="676.045,919.757 600.576,889.446 640.000,830.566 690.074,850.330 " />
<polygon stroke="black" stroke-width="1" fill="rgb(128, 128, 128)" fill-opacity="0.25" points="600.576,889.446 542.413,832.410 601.395,793.190 640.000,830.566 " />
<polygon stroke="black" stroke-width="1" fill="rgb(128, 128, 128)" fill-opacity="0.25" points="542.413,832.410 510.566,757.453 579.994,743.834 601.395,793.190 " />
<polygon stroke="black" stroke-width="1" fill="rgb(128, 128, 128)" fill-opacity="0.25" points="510.566,757.453 509.747,676.045 579.174,690.074 579.994,743.834 " />
<polygon stroke="black" stroke-width="1" fill="rgb(128, 128, 128)" fill-opacity="0.25" points="509.747,676.045 540.160,600.576 598.938,640.000 579.174,690.074 " />
<polygon stroke="black" stroke-width="1" fill="rgb(128, 128, 128)" fill-opacity="0.25" points="540.160,600.576 597.094,542.413 636.314,601.395 598.938,640.000 " />
<polygon stroke="black" stroke-width="1" fill="rgb(128, 128, 128)" fill-opacity="0.25" points="597.094,542.413 672.051,510.566 685.670,579.994 636.314,601.395 " />
<polygon stroke="black" stroke-width="1" fill="rgb(128, 128, 128)" fill-opacity="0.25" points="672.051,510.566 753.459,509.747 739.430,579.174 685.670,579.994 " />
<polygon stroke="black" stroke-width="1" fill="rgb(128, 128, 128)" fill-opacity="0.25" points="753.459,509.747 828.928,540.160 789.504,598.938 739.430,579.174 " />
<polygon stroke="black" stroke-width="1" fill="rgb(128, 128, 128)" fill-opacity="0.25" points="789.504,598.938 828.109,636.314 771.072,675.328 751.616,656.794 " />
<polygon stroke="black" stroke-width="1" fill="rgb(128, 128, 128)" fill-opacity="0.25" points="828.109,636.314 849.510,685.670 781.824,699.802 771.072,675.328 " />
<polygon stroke="black" stroke-width="1" fill="rgb(128, 128, 128)" fill-opacity="0.25" points="849.510,685.670 850.330,739.430 782.438,726.630 781.824,699.802 " />
<polygon stroke="black" stroke-width="1" fill="rgb(128, 128, 128)" fill-opacity="0.25" points="850.330,739.430 830.566,789.504 772.710,751.616 782.438,726.630 " />
<polygon stroke="black" stroke-width="1" fill="rgb(128, 128, 128)" fill-opacity="0.25" points="830.566,789.504 793.190,828.109 754.176,771.072 772.710,751.616 " />
<polygon stroke="black" stroke-width="1" fill="rgb(128, 128, 128)" fill-opacity="0.25" points="793.190,828.109 743.834,849.510 729.702,781.824 754.176,771.072 " />
<polygon stroke="black" stroke-width="1" fill="rgb(128, 128, 128)" fill-opacity="0.25" points="743.834,849.510 690.074,850.330 702.874,782.438 729.702,781.824 " />
<polygon stroke="black" stroke-width="1" fill="rgb(128, 128, 128)" fill-opacity="0.25" points="690.074,850.330 640.000,830.566 677.888,772.710 702.874,782.438 " />
<polygon stroke="black" stroke-width="1" fill="rgb(128, 128, 128)" fill-opacity="0.25" points="640.000,830.566 601.395,793.190 658.534,754.176 677.888,772.710 " />
<polygon stroke="black" stroke-width="1" fill="rgb(128, 128, 128)" fill-opacity="0.25" points="601.395,793.190 579.994,743.834 647.680,729.702 658.534,754.176 " />
<polygon stroke="black" stroke-width="1" fill="rgb(128, 128, 128)" fill-opacity="0.25" points="579.994,743.834 579.174,690.074 647.066,702.874 647.680,729.702 " />
<polygon stroke="black" stroke-width="1" fill="rgb(128, 128, 128)" fill-opacity="0.25" points="579.174,690.074 598.938,640.000 656.794,677.888 647.066,702.874 " />
<polygon stroke="black" stroke-width="1" fill="rgb(128, 128, 128)" fill-opacity="0.25" points="598.938,640.000 636.314,601.395 675.328,658.534 656.794,677.888 " />
<polygon stroke="black" stroke-width="1" fill="rgb(128, 128, 128)" fill-opacity="0.25" points="636.314,601.395 685.670,579.994 699.802,647.680 675.328,658.534 " />
<polygon stroke="black" stroke-width="1" fill="rgb(128, 128, 128)" fill-opacity="0.25" points="685.670,579.994 739.430,579.174 726.630,647.066 699.802,647.680 " />
<polygon stroke="black" stroke-width="1" fill="rgb(128, 128, 128)" fill-opacity="0.25" points="739.430,579.174 789.504,598.938 751.616,656.794 726.630,647.066 " />
<polygon stroke="black" stroke-width="1" fill="rgb(128, 128, 128)" fill-opacity="0.25" points="714.752,714.752 751.616,656.794 771.072,675.328 " />
<polygon stroke="black" stroke-width="1" fill="rgb(128, 128, 128)" fill-opacity="0.25" points="714.752,714.752 771.072,675.328 781.824,699.802 " />
<polygon stroke="black" stroke-width="1" fill="rgb(128, 128, 128)" fill-opacity="0.25" points="714.752,714.752 781.824,699.802 782.438,726.630 " />
<polygon stroke="black" stroke-width="1" fill="rgb(128, 128, 128)" fill-opacity="0.25" points="714.752,714.752 782.438,726.630 772.710,751.616 " />
<polygon stroke="black" stroke-width="1" fill="rgb(128, 128, 128)" fill-opacity="0.25" points="714.752,714.752 772.710,751.616 754.176,771.072 " />
<polygon stroke="black" stroke-width="1" fill="rgb(128, 128, 128)" fill-opacity="0.25" points="714.752,714.752 754.176,771.072 729.702,781.824 " />
<polygon stroke="black" stroke-width="1" fill="rgb(128, 128, 128)" fill-opacity="0.25" points="714.752,714.752 729.702,781.824 702.874,782.438 " />
<polygon stroke="black" stroke-width="1" fill="rgb(128, 128, 128)" fill-opacity="0.25" points="714.752,714.752 702.874,782.438 677.888,772.710 " />
<polygon stroke="black" stroke-width="1" fill="rgb(128, 128, 128)" fill-opacity="0.25" points="714.752,714.752 677.888,772.710 658.534,754.176 " />
<polygon stroke="black" stroke-width="1" fill="rgb(128, 128, 128)" fill-opacity="0.25" points="714.752,714.752 658.534,754.176 647.680,729.702 " />
<polygon stroke="black" stroke-width="1" fill="rgb(128, 128, 128)" fill-opacity="0.25" points="714.752,714.752 647.680,729.702 647.066,702.874 " />
<polygon stroke="black" stroke-width="1" fill="rgb(128, 128, 128)" fill-opacity="0.25" points="714.752,714.752 647.066,702.874 656.794,677.888 " />
<polygon stroke="black" stroke-width="1" fill="rgb(128, 128, 128)" fill-opacity="0.25" points="714.752,714.752 656.794,677.888 675.328,658.534 " />
<polygon stroke="black" stroke-width="1" fill="rgb(128, 128, 128)" fill-opacity="0.25" points="714.752,714.752 675.328,658.534 699.802,647.680 " />
<polygon stroke="black" stroke-width="1" fill="rgb(128, 128, 128)" fill-opacity="0.25" points="714.752,714.752 699.802,647.680 726.630,647.066 " />
<polygon stroke="black" stroke-width="1" fill="rgb(128, 128, 128)" fill-opacity="0.25" points="714.752,714.752 726.630,647.066 751.616,656.794 " />

</svg>
