<?xml version="1.0" standalone="no"?>
<!DOCTYPE svg PUBLIC "-//W3C//DTD SVG 1.1//EN" 
  "http://www.w3.org/Graphics/SVG/1.1/DTD/svg11.dtd">
<svg width="1024" height="1024" viewBox="0 0 1024 1024"
     xmlns="http://www.w3.org/2000/svg" version="1.1">
<desc>, (Blender 4.0.2)</desc>
<polygon stroke="black" stroke-width="1" fill="rgb(128, 128, 128)" fill-opacity="0.25" points="434.176,979.046 392.499,661.606 283.034,675.942 324.710,993.382 " />
<polygon stroke="black" stroke-width="1" fill="rgb(128, 128, 128)" fill-opacity="0.25" points="543.642,964.710 501.965,647.168 392.499,661.606 434.176,979.046 " />
<polygon stroke="black" stroke-width="1" fill="rgb(128, 128, 128)" fill-opacity="0.25" points="434.381,303.002 386.970,619.725 496.128,636.006 543.539,319.386 " />
<polygon stroke="black" stroke-width="1" fill="rgb(128, 128, 128)" fill-opacity="0.25" points="325.222,286.720 277.811,603.341 386.970,619.725 434.381,303.002 " />
<polygon stroke="black" stroke-width="1" fill="rgb(128, 128, 128)" fill-opacity="0.25" points="716.390,743.014 647.782,712.909 572.314,778.854 708.915,845.722 " />
<polygon stroke="black" stroke-width="1" fill="rgb(128, 128, 128)" fill-opacity="0.25" points="647.782,712.909 618.291,642.867 518.246,638.054 572.314,778.854 " />
<polygon stroke="black" stroke-width="1" fill="rgb(128, 128, 128)" fill-opacity="0.25" points="618.291,642.867 645.018,571.494 574.874,498.586 518.246,638.054 " />
<polygon stroke="black" stroke-width="1" fill="rgb(128, 128, 128)" fill-opacity="0.25" points="645.018,571.494 712.397,536.781 710.246,431.923 574.874,498.586 " />
<polygon stroke="black" stroke-width="1" fill="rgb(128, 128, 128)" fill-opacity="0.25" points="716.390,743.014 713.728,641.229 618.291,642.867 647.782,712.909 " />
<polygon stroke="black" stroke-width="1" fill="rgb(128, 128, 128)" fill-opacity="0.25" points="618.291,642.867 713.728,641.229 712.397,536.781 645.018,571.494 " />
<polygon stroke="black" stroke-width="1" fill="rgb(128, 128, 128)" fill-opacity="0.25" points="898.355,360.243 819.507,292.352 763.290,305.152 765.133,421.990 " />
<polygon stroke="black" stroke-width="1" fill="rgb(128, 128, 128)" fill-opacity="0.25" points="954.778,222.720 851.456,225.075 819.507,292.352 898.355,360.243 " />
<polygon stroke="black" stroke-width="1" fill="rgb(128, 128, 128)" fill-opacity="0.25" points="901.427,84.173 827.392,154.522 851.456,225.075 954.778,222.720 " />
<polygon stroke="black" stroke-width="1" fill="rgb(128, 128, 128)" fill-opacity="0.25" points="770.867,18.330 772.710,135.168 827.392,154.522 901.427,84.173 " />
<polygon stroke="black" stroke-width="1" fill="rgb(128, 128, 128)" fill-opacity="0.25" points="851.456,225.075 768.000,220.160 819.507,292.352 " />
<polygon stroke="black" stroke-width="1" fill="rgb(128, 128, 128)" fill-opacity="0.25" points="772.710,135.168 768.000,220.160 827.392,154.522 " />
<polygon stroke="black" stroke-width="1" fill="rgb(128, 128, 128)" fill-opacity="0.25" points="129.126,299.008 168.243,616.858 277.811,603.341 238.694,285.594 " />
<polygon stroke="black" stroke-width="1" fill="rgb(128, 128, 128)" fill-opacity="0.25" points="19.661,312.525 58.778,630.374 168.243,616.858 129.126,299.008 " />
<polygon stroke="black" stroke-width="1" fill="rgb(128, 128, 128)" fill-opacity="0.25" points="128.922,977.510 173.773,660.480 64.512,645.018 19.558,962.048 " />
<polygon stroke="black" stroke-width="1" fill="rgb(128, 128, 128)" fill-opacity="0.25" points="238.182,992.973 283.034,675.942 173.773,660.480 128.922,977.510 " />
<polygon stroke="black" stroke-width="1" fill="rgb(128, 128, 128)" fill-opacity="0.25" points="819.610,536.986 888.218,567.091 963.686,501.146 827.085,434.278 " />
<polygon stroke="black" stroke-width="1" fill="rgb(128, 128, 128)" fill-opacity="0.25" points="888.218,567.091 917.709,637.133 1017.754,641.946 963.686,501.146 " />
<polygon stroke="black" stroke-width="1" fill="rgb(128, 128, 128)" fill-opacity="0.25" points="917.709,637.133 890.982,708.506 961.126,781.414 1017.754,641.946 " />
<polygon stroke="black" stroke-width="1" fill="rgb(128, 128, 128)" fill-opacity="0.25" points="890.982,708.506 823.603,743.219 825.754,848.077 961.126,781.414 " />
<polygon stroke="black" stroke-width="1" fill="rgb(128, 128, 128)" fill-opacity="0.25" points="819.610,536.986 822.272,638.771 917.709,637.133 888.218,567.091 " />
<polygon stroke="black" stroke-width="1" fill="rgb(128, 128, 128)" fill-opacity="0.25" points="917.709,637.133 822.272,638.771 823.603,743.219 890.982,708.506 " />
<polygon stroke="black" stroke-width="1" fill="rgb(128, 128, 128)" fill-opacity="0.25" points="637.645,80.077 716.493,147.968 772.710,135.168 770.867,18.330 " />
<polygon stroke="black" stroke-width="1" fill="rgb(128, 128, 128)" fill-opacity="0.25" points="581.222,217.600 684.544,215.245 716.493,147.968 637.645,80.077 " />
<polygon stroke="black" stroke-width="1" fill="rgb(128, 128, 128)" fill-opacity="0.25" points="634.573,356.147 708.608,285.798 684.544,215.245 581.222,217.600 " />
<polygon stroke="black" stroke-width="1" fill="rgb(128, 128, 128)" fill-opacity="0.25" points="765.133,421.990 763.290,305.152 708.608,285.798 634.573,356.147 " />
<polygon stroke="black" stroke-width="1" fill="rgb(128, 128, 128)" fill-opacity="0.25" points="684.544,215.245 768.000,220.160 716.493,147.968 " />
<polygon stroke="black" stroke-width="1" fill="rgb(128, 128, 128)" fill-opacity="0.25" points="763.290,305.152 768.000,220.160 708.608,285.798 " />
<polygon stroke="black" stroke-width="1" fill="rgb(128, 128, 128)" fill-opacity="0.25" points="238.694,285.594 277.811,603.341 325.222,286.720 " />
<polygon stroke="black" stroke-width="1" fill="rgb(128, 128, 128)" fill-opacity="0.25" points="819.610,536.986 827.085,434.278 710.246,431.923 712.397,536.781 " />
<polygon stroke="black" stroke-width="1" fill="rgb(128, 128, 128)" fill-opacity="0.25" points="822.272,638.771 819.610,536.986 712.397,536.781 713.728,641.229 " />
<polygon stroke="black" stroke-width="1" fill="rgb(128, 128, 128)" fill-opacity="0.25" points="823.603,743.219 822.272,638.771 713.728,641.229 716.390,743.014 " />
<polygon stroke="black" stroke-width="1" fill="rgb(128, 128, 128)" fill-opacity="0.25" points="825.754,848.077 823.603,743.219 716.390,743.014 708.915,845.722 " />
<polygon stroke="black" stroke-width="1" fill="rgb(128, 128, 128)" fill-opacity="0.25" points="283.034,675.942 238.182,992.973 324.710,993.382 " />
<polygon stroke="black" stroke-width="1" fill="rgb(128, 128, 128)" fill-opacity="0.25" points="768.000,220.160 851.456,225.075 827.392,154.522 " />
<polygon stroke="black" stroke-width="1" fill="rgb(128, 128, 128)" fill-opacity="0.25" points="768.000,220.160 772.710,135.168 716.493,147.968 " />
<polygon stroke="black" stroke-width="1" fill="rgb(128, 128, 128)" fill-opacity="0.25" points="768.000,220.160 684.544,215.245 708.608,285.798 " />
<polygon stroke="black" stroke-width="1" fill="rgb(128, 128, 128)" fill-opacity="0.25" points="768.000,220.160 763.290,305.152 819.507,292.352 " />

</svg>
