<?xml version="1.0" standalone="no"?>
<!DOCTYPE svg PUBLIC "-//W3C//DTD SVG 1.1//EN" 
  "http://www.w3.org/Graphics/SVG/1.1/DTD/svg11.dtd">
<svg width="1024" height="1024" viewBox="0 0 1024 1024"
     xmlns="http://www.w3.org/2000/svg" version="1.1">
<desc>, (Blender 4.0.2)</desc>
<polygon stroke="black" stroke-width="1" fill="rgb(128, 128, 128)" fill-opacity="0.25" points="238.490,993.382 280.166,675.942 170.701,661.606 129.024,979.046 " />
<polygon stroke="black" stroke-width="1" fill="rgb(128, 128, 128)" fill-opacity="0.25" points="129.024,979.046 170.701,661.606 61.235,647.168 19.558,964.710 " />
<polygon stroke="black" stroke-width="1" fill="rgb(128, 128, 128)" fill-opacity="0.25" points="19.661,319.386 67.072,636.006 176.230,619.725 128.819,303.002 " />
<polygon stroke="black" stroke-width="1" fill="rgb(128, 128, 128)" fill-opacity="0.25" points="128.819,303.002 176.230,619.725 285.389,603.341 237.978,286.720 " />
<polygon stroke="black" stroke-width="1" fill="rgb(128, 128, 128)" fill-opacity="0.25" points="827.085,845.722 963.686,778.854 888.218,712.909 819.610,743.014 " />
<polygon stroke="black" stroke-width="1" fill="rgb(128, 128, 128)" fill-opacity="0.25" points="963.686,778.854 1017.754,638.054 917.709,642.867 888.218,712.909 " />
<polygon stroke="black" stroke-width="1" fill="rgb(128, 128, 128)" fill-opacity="0.25" points="1017.754,638.054 961.126,498.586 890.982,571.494 917.709,642.867 " />
<polygon stroke="black" stroke-width="1" fill="rgb(128, 128, 128)" fill-opacity="0.25" points="961.126,498.586 825.754,431.923 823.603,536.781 890.982,571.494 " />
<polygon stroke="black" stroke-width="1" fill="rgb(128, 128, 128)" fill-opacity="0.25" points="888.218,712.909 917.709,642.867 822.272,641.229 819.610,743.014 " />
<polygon stroke="black" stroke-width="1" fill="rgb(128, 128, 128)" fill-opacity="0.25" points="890.982,571.494 823.603,536.781 822.272,641.229 917.709,642.867 " />
<polygon stroke="black" stroke-width="1" fill="rgb(128, 128, 128)" fill-opacity="0.25" points="770.867,421.990 772.710,305.152 716.493,292.352 637.645,360.243 " />
<polygon stroke="black" stroke-width="1" fill="rgb(128, 128, 128)" fill-opacity="0.25" points="637.645,360.243 716.493,292.352 684.544,225.075 581.222,222.720 " />
<polygon stroke="black" stroke-width="1" fill="rgb(128, 128, 128)" fill-opacity="0.25" points="581.222,222.720 684.544,225.075 708.608,154.522 634.573,84.173 " />
<polygon stroke="black" stroke-width="1" fill="rgb(128, 128, 128)" fill-opacity="0.25" points="634.573,84.173 708.608,154.522 763.290,135.168 765.133,18.330 " />
<polygon stroke="black" stroke-width="1" fill="rgb(128, 128, 128)" fill-opacity="0.25" points="716.493,292.352 768.000,220.160 684.544,225.075 " />
<polygon stroke="black" stroke-width="1" fill="rgb(128, 128, 128)" fill-opacity="0.25" points="708.608,154.522 768.000,220.160 763.290,135.168 " />
<polygon stroke="black" stroke-width="1" fill="rgb(128, 128, 128)" fill-opacity="0.25" points="324.506,285.594 285.389,603.341 394.957,616.858 434.074,299.008 " />
<polygon stroke="black" stroke-width="1" fill="rgb(128, 128, 128)" fill-opacity="0.25" points="434.074,299.008 394.957,616.858 504.422,630.374 543.539,312.525 " />
<polygon stroke="black" stroke-width="1" fill="rgb(128, 128, 128)" fill-opacity="0.25" points="543.642,962.048 498.688,645.018 389.427,660.480 434.278,977.510 " />
<polygon stroke="black" stroke-width="1" fill="rgb(128, 128, 128)" fill-opacity="0.25" points="434.278,977.510 389.427,660.480 280.166,675.942 325.018,992.973 " />
<polygon stroke="black" stroke-width="1" fill="rgb(128, 128, 128)" fill-opacity="0.25" points="708.915,434.278 572.314,501.146 647.782,567.091 716.390,536.986 " />
<polygon stroke="black" stroke-width="1" fill="rgb(128, 128, 128)" fill-opacity="0.25" points="572.314,501.146 518.246,641.946 618.291,637.133 647.782,567.091 " />
<polygon stroke="black" stroke-width="1" fill="rgb(128, 128, 128)" fill-opacity="0.25" points="518.246,641.946 574.874,781.414 645.018,708.506 618.291,637.133 " />
<polygon stroke="black" stroke-width="1" fill="rgb(128, 128, 128)" fill-opacity="0.25" points="574.874,781.414 710.246,848.077 712.397,743.219 645.018,708.506 " />
<polygon stroke="black" stroke-width="1" fill="rgb(128, 128, 128)" fill-opacity="0.25" points="647.782,567.091 618.291,637.133 713.728,638.771 716.390,536.986 " />
<polygon stroke="black" stroke-width="1" fill="rgb(128, 128, 128)" fill-opacity="0.25" points="645.018,708.506 712.397,743.219 713.728,638.771 618.291,637.133 " />
<polygon stroke="black" stroke-width="1" fill="rgb(128, 128, 128)" fill-opacity="0.25" points="765.133,18.330 763.290,135.168 819.507,147.968 898.355,80.077 " />
<polygon stroke="black" stroke-width="1" fill="rgb(128, 128, 128)" fill-opacity="0.25" points="898.355,80.077 819.507,147.968 851.456,215.245 954.778,217.600 " />
<polygon stroke="black" stroke-width="1" fill="rgb(128, 128, 128)" fill-opacity="0.25" points="954.778,217.600 851.456,215.245 827.392,285.798 901.427,356.147 " />
<polygon stroke="black" stroke-width="1" fill="rgb(128, 128, 128)" fill-opacity="0.25" points="901.427,356.147 827.392,285.798 772.710,305.152 770.867,421.990 " />
<polygon stroke="black" stroke-width="1" fill="rgb(128, 128, 128)" fill-opacity="0.25" points="819.507,147.968 768.000,220.160 851.456,215.245 " />
<polygon stroke="black" stroke-width="1" fill="rgb(128, 128, 128)" fill-opacity="0.25" points="827.392,285.798 768.000,220.160 772.710,305.152 " />
<polygon stroke="black" stroke-width="1" fill="rgb(128, 128, 128)" fill-opacity="0.25" points="237.978,286.720 285.389,603.341 324.506,285.594 " />
<polygon stroke="black" stroke-width="1" fill="rgb(128, 128, 128)" fill-opacity="0.25" points="823.603,536.781 825.754,431.923 708.915,434.278 716.390,536.986 " />
<polygon stroke="black" stroke-width="1" fill="rgb(128, 128, 128)" fill-opacity="0.25" points="822.272,641.229 823.603,536.781 716.390,536.986 713.728,638.771 " />
<polygon stroke="black" stroke-width="1" fill="rgb(128, 128, 128)" fill-opacity="0.25" points="819.610,743.014 822.272,641.229 713.728,638.771 712.397,743.219 " />
<polygon stroke="black" stroke-width="1" fill="rgb(128, 128, 128)" fill-opacity="0.25" points="827.085,845.722 819.610,743.014 712.397,743.219 710.246,848.077 " />
<polygon stroke="black" stroke-width="1" fill="rgb(128, 128, 128)" fill-opacity="0.25" points="238.490,993.382 325.018,992.973 280.166,675.942 " />
<polygon stroke="black" stroke-width="1" fill="rgb(128, 128, 128)" fill-opacity="0.25" points="708.608,154.522 684.544,225.075 768.000,220.160 " />
<polygon stroke="black" stroke-width="1" fill="rgb(128, 128, 128)" fill-opacity="0.25" points="819.507,147.968 763.290,135.168 768.000,220.160 " />
<polygon stroke="black" stroke-width="1" fill="rgb(128, 128, 128)" fill-opacity="0.25" points="827.392,285.798 851.456,215.245 768.000,220.160 " />
<polygon stroke="black" stroke-width="1" fill="rgb(128, 128, 128)" fill-opacity="0.25" points="716.493,292.352 772.710,305.152 768.000,220.160 " />

</svg>
