<?xml version="1.0" standalone="no"?>
<!DOCTYPE svg PUBLIC "-//W3C//DTD SVG 1.1//EN" 
  "http://www.w3.org/Graphics/SVG/1.1/DTD/svg11.dtd">
<svg width="1024" height="1024" viewBox="0 0 1024 1024"
     xmlns="http://www.w3.org/2000/svg" version="1.1">
<desc>, (Blender 4.0.2)</desc>
<polygon stroke="black" stroke-width="1" fill="rgb(128, 128, 128)" fill-opacity="0.25" points="691.200,880.333 689.971,142.541 606.925,142.746 608.154,880.538 " />
<polygon stroke="black" stroke-width="1" fill="rgb(128, 128, 128)" fill-opacity="0.25" points="608.154,880.538 606.925,142.746 523.878,142.848 525.107,880.640 " />
<polygon stroke="black" stroke-width="1" fill="rgb(128, 128, 128)" fill-opacity="0.25" points="525.107,880.640 523.878,142.848 440.832,142.950 442.061,880.742 " />
<polygon stroke="black" stroke-width="1" fill="rgb(128, 128, 128)" fill-opacity="0.25" points="442.061,880.742 440.832,142.950 357.786,143.053 359.014,880.947 " />
<polygon stroke="black" stroke-width="1" fill="rgb(128, 128, 128)" fill-opacity="0.25" points="359.014,880.947 357.786,143.053 274.739,143.258 275.968,881.050 " />
<polygon stroke="black" stroke-width="1" fill="rgb(128, 128, 128)" fill-opacity="0.25" points="275.968,881.050 274.739,143.258 191.693,143.360 192.922,881.152 " />
<polygon stroke="black" stroke-width="1" fill="rgb(128, 128, 128)" fill-opacity="0.25" points="192.922,881.152 191.693,143.360 108.646,143.462 109.875,881.254 " />
<polygon stroke="black" stroke-width="1" fill="rgb(128, 128, 128)" fill-opacity="0.25" points="109.875,881.254 108.646,143.462 25.600,143.667 26.829,881.459 " />
<polygon stroke="black" stroke-width="1" fill="rgb(128, 128, 128)" fill-opacity="0.25" points="976.998,225.485 869.888,181.453 873.267,258.355 925.082,282.214 " />
<polygon stroke="black" stroke-width="1" fill="rgb(128, 128, 128)" fill-opacity="0.25" points="869.888,181.453 763.085,226.202 819.814,278.118 873.267,258.355 " />
<polygon stroke="black" stroke-width="1" fill="rgb(128, 128, 128)" fill-opacity="0.25" points="763.085,226.202 719.053,333.312 795.955,329.933 819.814,278.118 " />
<polygon stroke="black" stroke-width="1" fill="rgb(128, 128, 128)" fill-opacity="0.25" points="719.053,333.312 763.802,440.115 815.718,383.386 795.955,329.933 " />
<polygon stroke="black" stroke-width="1" fill="rgb(128, 128, 128)" fill-opacity="0.25" points="763.802,440.115 870.912,484.147 867.533,407.245 815.718,383.386 " />
<polygon stroke="black" stroke-width="1" fill="rgb(128, 128, 128)" fill-opacity="0.25" points="870.912,484.147 977.715,439.398 920.986,387.482 867.533,407.245 " />
<polygon stroke="black" stroke-width="1" fill="rgb(128, 128, 128)" fill-opacity="0.25" points="977.715,439.398 1021.747,332.288 944.845,335.667 920.986,387.482 " />
<polygon stroke="black" stroke-width="1" fill="rgb(128, 128, 128)" fill-opacity="0.25" points="1021.747,332.288 976.998,225.485 925.082,282.214 944.845,335.667 " />
<polygon stroke="black" stroke-width="1" fill="rgb(128, 128, 128)" fill-opacity="0.25" points="873.267,258.355 870.400,332.800 925.082,282.214 " />
<polygon stroke="black" stroke-width="1" fill="rgb(128, 128, 128)" fill-opacity="0.25" points="795.955,329.933 870.400,332.800 819.814,278.118 " />
<polygon stroke="black" stroke-width="1" fill="rgb(128, 128, 128)" fill-opacity="0.25" points="867.533,407.245 870.400,332.800 815.718,383.386 " />
<polygon stroke="black" stroke-width="1" fill="rgb(128, 128, 128)" fill-opacity="0.25" points="944.845,335.667 870.400,332.800 920.986,387.482 " />
<polygon stroke="black" stroke-width="1" fill="rgb(128, 128, 128)" fill-opacity="0.25" points="871.219,539.853 867.635,616.755 921.088,636.621 977.920,584.806 " />
<polygon stroke="black" stroke-width="1" fill="rgb(128, 128, 128)" fill-opacity="0.25" points="977.920,584.806 921.088,636.621 944.845,688.435 1021.747,692.019 " />
<polygon stroke="black" stroke-width="1" fill="rgb(128, 128, 128)" fill-opacity="0.25" points="1021.747,692.019 944.845,688.435 924.979,741.888 976.794,798.720 " />
<polygon stroke="black" stroke-width="1" fill="rgb(128, 128, 128)" fill-opacity="0.25" points="976.794,798.720 924.979,741.888 873.165,765.645 869.581,842.547 " />
<polygon stroke="black" stroke-width="1" fill="rgb(128, 128, 128)" fill-opacity="0.25" points="869.581,842.547 873.165,765.645 819.712,745.779 762.880,797.594 " />
<polygon stroke="black" stroke-width="1" fill="rgb(128, 128, 128)" fill-opacity="0.25" points="762.880,797.594 819.712,745.779 795.955,693.965 719.053,690.381 " />
<polygon stroke="black" stroke-width="1" fill="rgb(128, 128, 128)" fill-opacity="0.25" points="719.053,690.381 795.955,693.965 815.821,640.512 764.006,583.680 " />
<polygon stroke="black" stroke-width="1" fill="rgb(128, 128, 128)" fill-opacity="0.25" points="764.006,583.680 815.821,640.512 867.635,616.755 871.219,539.853 " />
<polygon stroke="black" stroke-width="1" fill="rgb(128, 128, 128)" fill-opacity="0.25" points="921.088,636.621 870.400,691.200 944.845,688.435 " />
<polygon stroke="black" stroke-width="1" fill="rgb(128, 128, 128)" fill-opacity="0.25" points="924.979,741.888 870.400,691.200 873.165,765.645 " />
<polygon stroke="black" stroke-width="1" fill="rgb(128, 128, 128)" fill-opacity="0.25" points="819.712,745.779 870.400,691.200 795.955,693.965 " />
<polygon stroke="black" stroke-width="1" fill="rgb(128, 128, 128)" fill-opacity="0.25" points="815.821,640.512 870.400,691.200 867.635,616.755 " />
<polygon stroke="black" stroke-width="1" fill="rgb(128, 128, 128)" fill-opacity="0.25" points="924.979,741.888 944.845,688.435 870.400,691.200 " />
<polygon stroke="black" stroke-width="1" fill="rgb(128, 128, 128)" fill-opacity="0.25" points="819.712,745.779 873.165,765.645 870.400,691.200 " />
<polygon stroke="black" stroke-width="1" fill="rgb(128, 128, 128)" fill-opacity="0.25" points="921.088,636.621 867.635,616.755 870.400,691.200 " />
<polygon stroke="black" stroke-width="1" fill="rgb(128, 128, 128)" fill-opacity="0.25" points="815.821,640.512 795.955,693.965 870.400,691.200 " />
<polygon stroke="black" stroke-width="1" fill="rgb(128, 128, 128)" fill-opacity="0.25" points="944.845,335.667 925.082,282.214 870.400,332.800 " />
<polygon stroke="black" stroke-width="1" fill="rgb(128, 128, 128)" fill-opacity="0.25" points="867.533,407.245 920.986,387.482 870.400,332.800 " />
<polygon stroke="black" stroke-width="1" fill="rgb(128, 128, 128)" fill-opacity="0.25" points="873.267,258.355 819.814,278.118 870.400,332.800 " />
<polygon stroke="black" stroke-width="1" fill="rgb(128, 128, 128)" fill-opacity="0.25" points="795.955,329.933 815.718,383.386 870.400,332.800 " />

</svg>
