<?xml version="1.0" standalone="no"?>
<!DOCTYPE svg PUBLIC "-//W3C//DTD SVG 1.1//EN" 
  "http://www.w3.org/Graphics/SVG/1.1/DTD/svg11.dtd">
<svg width="1024" height="1024" viewBox="0 0 1024 1024"
     xmlns="http://www.w3.org/2000/svg" version="1.1">
<desc>, (Blender 4.0.2)</desc>
<polygon stroke="black" stroke-width="1" fill="rgb(128, 128, 128)" fill-opacity="0.25" points="814.899,878.694 815.104,972.902 955.699,925.491 " />
<polygon stroke="black" stroke-width="1" fill="rgb(128, 128, 128)" fill-opacity="0.25" points="138.752,868.966 138.957,962.458 373.043,962.458 373.146,868.966 " />
<polygon stroke="black" stroke-width="1" fill="rgb(128, 128, 128)" fill-opacity="0.25" points="629.555,55.296 394.138,55.398 360.346,182.784 663.654,182.272 " />
<polygon stroke="black" stroke-width="1" fill="rgb(128, 128, 128)" fill-opacity="0.25" points="196.403,66.662 102.605,66.662 79.155,196.813 220.160,196.506 " />
<polygon stroke="black" stroke-width="1" fill="rgb(128, 128, 128)" fill-opacity="0.25" points="632.115,444.006 389.734,444.006 465.818,581.120 556.851,579.994 " />
<polygon stroke="black" stroke-width="1" fill="rgb(128, 128, 128)" fill-opacity="0.25" points="364.851,459.264 331.366,594.842 442.573,594.534 " />
<polygon stroke="black" stroke-width="1" fill="rgb(128, 128, 128)" fill-opacity="0.25" points="578.150,638.464 584.806,777.933 689.664,641.946 " />
<polygon stroke="black" stroke-width="1" fill="rgb(128, 128, 128)" fill-opacity="0.25" points="444.826,638.771 333.312,643.277 439.194,779.264 " />
<polygon stroke="black" stroke-width="1" fill="rgb(128, 128, 128)" fill-opacity="0.25" points="803.840,196.608 873.984,326.246 944.947,196.813 " />
<polygon stroke="black" stroke-width="1" fill="rgb(128, 128, 128)" fill-opacity="0.25" points="465.408,333.005 559.206,332.698 663.450,204.902 360.653,205.517 " />
<polygon stroke="black" stroke-width="1" fill="rgb(128, 128, 128)" fill-opacity="0.25" points="298.189,359.936 446.976,348.160 342.528,219.955 " />
<polygon stroke="black" stroke-width="1" fill="rgb(128, 128, 128)" fill-opacity="0.25" points="681.677,219.341 577.536,347.853 726.426,359.219 " />
<polygon stroke="black" stroke-width="1" fill="rgb(128, 128, 128)" fill-opacity="0.25" points="462.848,780.902 561.152,779.571 556.237,640.512 466.637,640.512 " />
<polygon stroke="black" stroke-width="1" fill="rgb(128, 128, 128)" fill-opacity="0.25" points="657.203,458.854 579.994,593.920 691.302,593.715 " />
<polygon stroke="black" stroke-width="1" fill="rgb(128, 128, 128)" fill-opacity="0.25" points="921.293,66.662 827.494,66.765 803.840,196.608 944.947,196.813 " />
<polygon stroke="black" stroke-width="1" fill="rgb(128, 128, 128)" fill-opacity="0.25" points="150.118,326.246 220.160,196.506 79.155,196.813 " />
<polygon stroke="black" stroke-width="1" fill="rgb(128, 128, 128)" fill-opacity="0.25" points="584.806,777.933 730.112,779.366 689.664,641.946 " />
<polygon stroke="black" stroke-width="1" fill="rgb(128, 128, 128)" fill-opacity="0.25" points="333.312,643.277 293.786,781.210 439.194,779.264 " />
<polygon stroke="black" stroke-width="1" fill="rgb(128, 128, 128)" fill-opacity="0.25" points="814.899,878.694 720.896,878.899 720.998,973.107 815.104,972.902 " />
<polygon stroke="black" stroke-width="1" fill="rgb(128, 128, 128)" fill-opacity="0.25" points="720.896,878.899 580.301,926.208 720.998,973.107 " />
<polygon stroke="black" stroke-width="1" fill="rgb(128, 128, 128)" fill-opacity="0.25" points="373.043,962.458 373.658,1004.851 412.365,963.789 " />
<polygon stroke="black" stroke-width="1" fill="rgb(128, 128, 128)" fill-opacity="0.25" points="373.146,868.966 412.877,868.352 373.658,836.403 " />
<polygon stroke="black" stroke-width="1" fill="rgb(128, 128, 128)" fill-opacity="0.25" points="138.752,868.966 138.342,836.301 99.328,868.352 " />
<polygon stroke="black" stroke-width="1" fill="rgb(128, 128, 128)" fill-opacity="0.25" points="138.957,962.458 99.328,963.789 138.240,1004.749 " />
<polygon stroke="black" stroke-width="1" fill="rgb(128, 128, 128)" fill-opacity="0.25" points="394.138,55.398 629.555,55.296 630.170,13.005 393.523,13.005 " />
<polygon stroke="black" stroke-width="1" fill="rgb(128, 128, 128)" fill-opacity="0.25" points="360.346,182.784 314.266,174.592 360.653,205.517 " />
<polygon stroke="black" stroke-width="1" fill="rgb(128, 128, 128)" fill-opacity="0.25" points="663.654,182.272 360.346,182.784 360.653,205.517 663.450,204.902 " />
<polygon stroke="black" stroke-width="1" fill="rgb(128, 128, 128)" fill-opacity="0.25" points="674.099,42.803 629.555,55.296 663.654,182.272 709.734,173.875 " />
<polygon stroke="black" stroke-width="1" fill="rgb(128, 128, 128)" fill-opacity="0.25" points="446.976,348.160 298.189,359.936 300.134,395.366 450.867,383.283 " />
<polygon stroke="black" stroke-width="1" fill="rgb(128, 128, 128)" fill-opacity="0.25" points="342.528,219.955 446.976,348.160 465.408,333.005 360.653,205.517 " />
<polygon stroke="black" stroke-width="1" fill="rgb(128, 128, 128)" fill-opacity="0.25" points="342.528,219.955 302.490,203.469 257.331,347.853 298.189,359.936 " />
<polygon stroke="black" stroke-width="1" fill="rgb(128, 128, 128)" fill-opacity="0.25" points="559.206,332.698 465.408,333.005 463.974,375.706 560.742,375.706 " />
<polygon stroke="black" stroke-width="1" fill="rgb(128, 128, 128)" fill-opacity="0.25" points="726.426,359.219 577.536,347.853 573.850,383.078 724.582,394.650 " />
<polygon stroke="black" stroke-width="1" fill="rgb(128, 128, 128)" fill-opacity="0.25" points="681.677,219.341 721.510,202.752 663.450,204.902 " />
<polygon stroke="black" stroke-width="1" fill="rgb(128, 128, 128)" fill-opacity="0.25" points="560.742,375.706 577.536,347.853 559.206,332.698 " />
<polygon stroke="black" stroke-width="1" fill="rgb(128, 128, 128)" fill-opacity="0.25" points="826.470,27.136 827.494,66.765 921.293,66.662 921.600,26.624 " />
<polygon stroke="black" stroke-width="1" fill="rgb(128, 128, 128)" fill-opacity="0.25" points="954.675,60.109 921.293,66.662 944.947,196.813 978.534,191.078 " />
<polygon stroke="black" stroke-width="1" fill="rgb(128, 128, 128)" fill-opacity="0.25" points="803.840,196.608 765.645,216.576 837.018,347.648 873.984,326.246 " />
<polygon stroke="black" stroke-width="1" fill="rgb(128, 128, 128)" fill-opacity="0.25" points="944.947,196.813 982.835,217.190 978.534,191.078 " />
<polygon stroke="black" stroke-width="1" fill="rgb(128, 128, 128)" fill-opacity="0.25" points="241.869,57.651 196.403,66.662 220.160,196.506 266.035,188.723 " />
<polygon stroke="black" stroke-width="1" fill="rgb(128, 128, 128)" fill-opacity="0.25" points="102.605,66.662 196.403,66.662 197.325,26.931 102.195,26.726 " />
<polygon stroke="black" stroke-width="1" fill="rgb(128, 128, 128)" fill-opacity="0.25" points="364.851,459.264 331.776,450.048 298.291,589.722 331.366,594.842 " />
<polygon stroke="black" stroke-width="1" fill="rgb(128, 128, 128)" fill-opacity="0.25" points="442.573,594.534 331.366,594.842 332.186,619.110 442.982,616.653 " />
<polygon stroke="black" stroke-width="1" fill="rgb(128, 128, 128)" fill-opacity="0.25" points="439.194,779.264 293.786,781.210 294.707,816.538 448.205,811.008 " />
<polygon stroke="black" stroke-width="1" fill="rgb(128, 128, 128)" fill-opacity="0.25" points="465.818,581.120 442.573,594.534 466.842,610.816 " />
<polygon stroke="black" stroke-width="1" fill="rgb(128, 128, 128)" fill-opacity="0.25" points="555.930,610.099 556.851,579.994 465.818,581.120 466.842,610.816 " />
<polygon stroke="black" stroke-width="1" fill="rgb(128, 128, 128)" fill-opacity="0.25" points="579.994,593.920 555.930,610.099 579.584,616.038 " />
<polygon stroke="black" stroke-width="1" fill="rgb(128, 128, 128)" fill-opacity="0.25" points="724.890,620.544 691.302,593.715 690.893,618.086 " />
<polygon stroke="black" stroke-width="1" fill="rgb(128, 128, 128)" fill-opacity="0.25" points="99.328,868.352 138.342,836.301 78.234,828.109 " />
<polygon stroke="black" stroke-width="1" fill="rgb(128, 128, 128)" fill-opacity="0.25" points="360.653,205.517 314.266,174.592 302.490,203.469 " />
<polygon stroke="black" stroke-width="1" fill="rgb(128, 128, 128)" fill-opacity="0.25" points="113.357,347.853 150.118,326.246 79.155,196.813 41.165,217.293 " />
<polygon stroke="black" stroke-width="1" fill="rgb(128, 128, 128)" fill-opacity="0.25" points="729.498,814.899 730.112,779.366 584.806,777.933 576.102,809.574 " />
<polygon stroke="black" stroke-width="1" fill="rgb(128, 128, 128)" fill-opacity="0.25" points="689.664,641.946 730.112,779.366 770.970,766.566 724.890,620.544 " />
<polygon stroke="black" stroke-width="1" fill="rgb(128, 128, 128)" fill-opacity="0.25" points="689.664,641.946 690.893,618.086 579.584,616.038 578.150,638.464 " />
<polygon stroke="black" stroke-width="1" fill="rgb(128, 128, 128)" fill-opacity="0.25" points="466.637,640.512 556.237,640.512 555.930,610.099 466.842,610.816 " />
<polygon stroke="black" stroke-width="1" fill="rgb(128, 128, 128)" fill-opacity="0.25" points="448.205,811.008 462.848,780.902 439.194,779.264 " />
<polygon stroke="black" stroke-width="1" fill="rgb(128, 128, 128)" fill-opacity="0.25" points="576.102,809.574 561.152,779.571 563.507,812.339 " />
<polygon stroke="black" stroke-width="1" fill="rgb(128, 128, 128)" fill-opacity="0.25" points="556.237,640.512 578.150,638.464 555.930,610.099 " />
<polygon stroke="black" stroke-width="1" fill="rgb(128, 128, 128)" fill-opacity="0.25" points="826.061,844.902 814.899,878.694 955.699,925.491 967.680,892.109 " />
<polygon stroke="black" stroke-width="1" fill="rgb(128, 128, 128)" fill-opacity="0.25" points="955.699,925.491 815.104,972.902 826.368,1006.694 967.782,958.976 " />
<polygon stroke="black" stroke-width="1" fill="rgb(128, 128, 128)" fill-opacity="0.25" points="720.589,836.301 720.896,878.899 814.899,878.694 815.002,836.096 " />
<polygon stroke="black" stroke-width="1" fill="rgb(128, 128, 128)" fill-opacity="0.25" points="815.002,836.096 814.899,878.694 826.061,844.902 " />
<polygon stroke="black" stroke-width="1" fill="rgb(128, 128, 128)" fill-opacity="0.25" points="446.976,348.160 463.974,375.706 465.408,333.005 " />
<polygon stroke="black" stroke-width="1" fill="rgb(128, 128, 128)" fill-opacity="0.25" points="967.680,892.109 955.699,925.491 1008.845,925.389 " />
<polygon stroke="black" stroke-width="1" fill="rgb(128, 128, 128)" fill-opacity="0.25" points="709.837,1007.002 720.896,1005.875 720.998,973.107 " />
<polygon stroke="black" stroke-width="1" fill="rgb(128, 128, 128)" fill-opacity="0.25" points="79.155,196.813 45.466,191.078 41.165,217.293 " />
<polygon stroke="black" stroke-width="1" fill="rgb(128, 128, 128)" fill-opacity="0.25" points="102.605,66.662 102.195,26.726 69.222,59.904 " />
<polygon stroke="black" stroke-width="1" fill="rgb(128, 128, 128)" fill-opacity="0.25" points="657.203,458.854 691.302,593.715 724.480,588.288 690.074,449.126 " />
<polygon stroke="black" stroke-width="1" fill="rgb(128, 128, 128)" fill-opacity="0.25" points="691.302,593.715 724.890,620.544 724.480,588.288 " />
<polygon stroke="black" stroke-width="1" fill="rgb(128, 128, 128)" fill-opacity="0.25" points="79.155,196.813 102.605,66.662 69.222,59.904 45.466,191.078 " />
<polygon stroke="black" stroke-width="1" fill="rgb(128, 128, 128)" fill-opacity="0.25" points="657.203,458.854 633.446,411.341 632.115,444.006 " />
<polygon stroke="black" stroke-width="1" fill="rgb(128, 128, 128)" fill-opacity="0.25" points="138.752,868.966 373.146,868.966 373.658,836.403 138.342,836.301 " />
<polygon stroke="black" stroke-width="1" fill="rgb(128, 128, 128)" fill-opacity="0.25" points="633.446,411.341 657.203,458.854 690.074,449.126 " />
<polygon stroke="black" stroke-width="1" fill="rgb(128, 128, 128)" fill-opacity="0.25" points="579.994,593.920 657.203,458.854 632.115,444.006 556.851,579.994 " />
<polygon stroke="black" stroke-width="1" fill="rgb(128, 128, 128)" fill-opacity="0.25" points="196.403,66.662 241.869,57.651 197.325,26.931 " />
<polygon stroke="black" stroke-width="1" fill="rgb(128, 128, 128)" fill-opacity="0.25" points="138.957,962.458 138.752,868.966 99.328,868.352 99.328,963.789 " />
<polygon stroke="black" stroke-width="1" fill="rgb(128, 128, 128)" fill-opacity="0.25" points="99.328,963.789 88.576,1015.296 138.240,1004.749 " />
<polygon stroke="black" stroke-width="1" fill="rgb(128, 128, 128)" fill-opacity="0.25" points="349.594,43.008 394.138,55.398 393.523,13.005 " />
<polygon stroke="black" stroke-width="1" fill="rgb(128, 128, 128)" fill-opacity="0.25" points="360.346,182.784 394.138,55.398 349.594,43.008 314.266,174.592 " />
<polygon stroke="black" stroke-width="1" fill="rgb(128, 128, 128)" fill-opacity="0.25" points="629.555,55.296 674.099,42.803 630.170,13.005 " />
<polygon stroke="black" stroke-width="1" fill="rgb(128, 128, 128)" fill-opacity="0.25" points="373.043,962.458 138.957,962.458 138.240,1004.749 373.658,1004.851 " />
<polygon stroke="black" stroke-width="1" fill="rgb(128, 128, 128)" fill-opacity="0.25" points="373.658,1004.851 423.322,1015.296 412.365,963.789 " />
<polygon stroke="black" stroke-width="1" fill="rgb(128, 128, 128)" fill-opacity="0.25" points="373.146,868.966 373.043,962.458 412.365,963.789 412.877,868.352 " />
<polygon stroke="black" stroke-width="1" fill="rgb(128, 128, 128)" fill-opacity="0.25" points="389.734,444.006 632.115,444.006 633.446,411.341 388.301,411.238 " />
<polygon stroke="black" stroke-width="1" fill="rgb(128, 128, 128)" fill-opacity="0.25" points="921.293,66.662 954.675,60.109 921.600,26.624 " />
<polygon stroke="black" stroke-width="1" fill="rgb(128, 128, 128)" fill-opacity="0.25" points="412.877,868.352 433.869,827.904 373.658,836.403 " />
<polygon stroke="black" stroke-width="1" fill="rgb(128, 128, 128)" fill-opacity="0.25" points="389.734,444.006 388.301,411.238 364.851,459.264 " />
<polygon stroke="black" stroke-width="1" fill="rgb(128, 128, 128)" fill-opacity="0.25" points="803.840,196.608 827.494,66.765 782.029,57.754 757.965,188.826 " />
<polygon stroke="black" stroke-width="1" fill="rgb(128, 128, 128)" fill-opacity="0.25" points="663.654,182.272 663.450,204.902 709.734,173.875 " />
<polygon stroke="black" stroke-width="1" fill="rgb(128, 128, 128)" fill-opacity="0.25" points="827.494,66.765 826.470,27.136 782.029,57.754 " />
<polygon stroke="black" stroke-width="1" fill="rgb(128, 128, 128)" fill-opacity="0.25" points="388.301,411.238 331.776,450.048 364.851,459.264 " />
<polygon stroke="black" stroke-width="1" fill="rgb(128, 128, 128)" fill-opacity="0.25" points="681.677,219.341 726.426,359.219 767.283,346.931 721.510,202.752 " />
<polygon stroke="black" stroke-width="1" fill="rgb(128, 128, 128)" fill-opacity="0.25" points="577.536,347.853 560.742,375.706 573.850,383.078 " />
<polygon stroke="black" stroke-width="1" fill="rgb(128, 128, 128)" fill-opacity="0.25" points="220.160,196.506 150.118,326.246 187.085,347.546 258.355,216.474 " />
<polygon stroke="black" stroke-width="1" fill="rgb(128, 128, 128)" fill-opacity="0.25" points="342.528,219.955 360.653,205.517 302.490,203.469 " />
<polygon stroke="black" stroke-width="1" fill="rgb(128, 128, 128)" fill-opacity="0.25" points="266.035,188.723 220.160,196.506 258.355,216.474 " />
<polygon stroke="black" stroke-width="1" fill="rgb(128, 128, 128)" fill-opacity="0.25" points="803.840,196.608 757.965,188.826 765.645,216.576 " />
<polygon stroke="black" stroke-width="1" fill="rgb(128, 128, 128)" fill-opacity="0.25" points="709.734,173.875 663.450,204.902 721.510,202.752 " />
<polygon stroke="black" stroke-width="1" fill="rgb(128, 128, 128)" fill-opacity="0.25" points="577.536,347.853 681.677,219.341 663.450,204.902 559.206,332.698 " />
<polygon stroke="black" stroke-width="1" fill="rgb(128, 128, 128)" fill-opacity="0.25" points="720.896,878.899 709.632,845.005 568.115,892.928 580.301,926.208 " />
<polygon stroke="black" stroke-width="1" fill="rgb(128, 128, 128)" fill-opacity="0.25" points="720.896,878.899 720.589,836.301 709.632,845.005 " />
<polygon stroke="black" stroke-width="1" fill="rgb(128, 128, 128)" fill-opacity="0.25" points="446.976,348.160 450.867,383.283 463.974,375.706 " />
<polygon stroke="black" stroke-width="1" fill="rgb(128, 128, 128)" fill-opacity="0.25" points="730.112,779.366 781.722,815.616 770.970,766.566 " />
<polygon stroke="black" stroke-width="1" fill="rgb(128, 128, 128)" fill-opacity="0.25" points="150.118,326.246 150.323,382.874 187.085,347.546 " />
<polygon stroke="black" stroke-width="1" fill="rgb(128, 128, 128)" fill-opacity="0.25" points="910.746,347.853 873.984,326.246 873.779,382.976 " />
<polygon stroke="black" stroke-width="1" fill="rgb(128, 128, 128)" fill-opacity="0.25" points="944.947,196.813 873.984,326.246 910.746,347.853 982.835,217.190 " />
<polygon stroke="black" stroke-width="1" fill="rgb(128, 128, 128)" fill-opacity="0.25" points="720.998,973.107 580.301,926.208 568.218,959.590 709.837,1007.002 " />
<polygon stroke="black" stroke-width="1" fill="rgb(128, 128, 128)" fill-opacity="0.25" points="561.152,779.571 462.848,780.902 461.005,813.261 563.507,812.339 " />
<polygon stroke="black" stroke-width="1" fill="rgb(128, 128, 128)" fill-opacity="0.25" points="815.104,972.902 815.309,1005.773 826.368,1006.694 " />
<polygon stroke="black" stroke-width="1" fill="rgb(128, 128, 128)" fill-opacity="0.25" points="720.896,1005.875 815.309,1005.773 815.104,972.902 720.998,973.107 " />
<polygon stroke="black" stroke-width="1" fill="rgb(128, 128, 128)" fill-opacity="0.25" points="462.848,780.902 448.205,811.008 461.005,813.261 " />
<polygon stroke="black" stroke-width="1" fill="rgb(128, 128, 128)" fill-opacity="0.25" points="465.818,581.120 389.734,444.006 364.851,459.264 442.573,594.534 " />
<polygon stroke="black" stroke-width="1" fill="rgb(128, 128, 128)" fill-opacity="0.25" points="442.573,594.534 442.982,616.653 466.842,610.816 " />
<polygon stroke="black" stroke-width="1" fill="rgb(128, 128, 128)" fill-opacity="0.25" points="691.302,593.715 579.994,593.920 579.584,616.038 690.893,618.086 " />
<polygon stroke="black" stroke-width="1" fill="rgb(128, 128, 128)" fill-opacity="0.25" points="689.664,641.946 724.890,620.544 690.893,618.086 " />
<polygon stroke="black" stroke-width="1" fill="rgb(128, 128, 128)" fill-opacity="0.25" points="331.366,594.842 298.291,589.722 298.394,622.080 332.186,619.110 " />
<polygon stroke="black" stroke-width="1" fill="rgb(128, 128, 128)" fill-opacity="0.25" points="333.312,643.277 444.826,638.771 442.982,616.653 332.186,619.110 " />
<polygon stroke="black" stroke-width="1" fill="rgb(128, 128, 128)" fill-opacity="0.25" points="444.826,638.771 466.842,610.816 442.982,616.653 " />
<polygon stroke="black" stroke-width="1" fill="rgb(128, 128, 128)" fill-opacity="0.25" points="466.637,640.512 466.842,610.816 444.826,638.771 " />
<polygon stroke="black" stroke-width="1" fill="rgb(128, 128, 128)" fill-opacity="0.25" points="556.237,640.512 561.152,779.571 584.806,777.933 578.150,638.464 " />
<polygon stroke="black" stroke-width="1" fill="rgb(128, 128, 128)" fill-opacity="0.25" points="579.994,593.920 556.851,579.994 555.930,610.099 " />
<polygon stroke="black" stroke-width="1" fill="rgb(128, 128, 128)" fill-opacity="0.25" points="298.394,622.080 333.312,643.277 332.186,619.110 " />
<polygon stroke="black" stroke-width="1" fill="rgb(128, 128, 128)" fill-opacity="0.25" points="298.394,622.080 252.518,768.512 293.786,781.210 333.312,643.277 " />
<polygon stroke="black" stroke-width="1" fill="rgb(128, 128, 128)" fill-opacity="0.25" points="561.152,779.571 576.102,809.574 584.806,777.933 " />
<polygon stroke="black" stroke-width="1" fill="rgb(128, 128, 128)" fill-opacity="0.25" points="462.848,780.902 466.637,640.512 444.826,638.771 439.194,779.264 " />
<polygon stroke="black" stroke-width="1" fill="rgb(128, 128, 128)" fill-opacity="0.25" points="578.150,638.464 579.584,616.038 555.930,610.099 " />
<polygon stroke="black" stroke-width="1" fill="rgb(128, 128, 128)" fill-opacity="0.25" points="150.118,326.246 113.357,347.853 150.323,382.874 " />
<polygon stroke="black" stroke-width="1" fill="rgb(128, 128, 128)" fill-opacity="0.25" points="767.283,346.931 726.426,359.219 777.011,396.390 " />
<polygon stroke="black" stroke-width="1" fill="rgb(128, 128, 128)" fill-opacity="0.25" points="294.707,816.538 293.786,781.210 242.278,817.562 " />
<polygon stroke="black" stroke-width="1" fill="rgb(128, 128, 128)" fill-opacity="0.25" points="955.699,925.491 967.782,958.976 1008.845,925.389 " />
<polygon stroke="black" stroke-width="1" fill="rgb(128, 128, 128)" fill-opacity="0.25" points="293.786,781.210 252.518,768.512 242.278,817.562 " />
<polygon stroke="black" stroke-width="1" fill="rgb(128, 128, 128)" fill-opacity="0.25" points="873.984,326.246 837.018,347.648 873.779,382.976 " />
<polygon stroke="black" stroke-width="1" fill="rgb(128, 128, 128)" fill-opacity="0.25" points="726.426,359.219 724.582,394.650 777.011,396.390 " />
<polygon stroke="black" stroke-width="1" fill="rgb(128, 128, 128)" fill-opacity="0.25" points="568.218,959.590 580.301,926.208 527.155,926.310 " />
<polygon stroke="black" stroke-width="1" fill="rgb(128, 128, 128)" fill-opacity="0.25" points="527.155,926.310 580.301,926.208 568.115,892.928 " />
<polygon stroke="black" stroke-width="1" fill="rgb(128, 128, 128)" fill-opacity="0.25" points="247.706,397.312 298.189,359.936 257.331,347.853 " />
<polygon stroke="black" stroke-width="1" fill="rgb(128, 128, 128)" fill-opacity="0.25" points="247.706,397.312 300.134,395.366 298.189,359.936 " />
<polygon stroke="black" stroke-width="1" fill="rgb(128, 128, 128)" fill-opacity="0.25" points="730.112,779.366 729.498,814.899 781.722,815.616 " />

</svg>
