<?xml version="1.0" standalone="no"?>
<!DOCTYPE svg PUBLIC "-//W3C//DTD SVG 1.1//EN" 
  "http://www.w3.org/Graphics/SVG/1.1/DTD/svg11.dtd">
<svg width="1024" height="1024" viewBox="0 0 1024 1024"
     xmlns="http://www.w3.org/2000/svg" version="1.1">
<desc>, (Blender 4.0.2)</desc>
<polygon stroke="black" stroke-width="1" fill="rgb(128, 128, 128)" fill-opacity="0.25" points="249.344,106.496 373.555,106.598 373.043,189.133 249.856,188.518 " />
<polygon stroke="black" stroke-width="1" fill="rgb(128, 128, 128)" fill-opacity="0.25" points="217.498,395.674 92.467,395.776 92.774,995.021 " />
<polygon stroke="black" stroke-width="1" fill="rgb(128, 128, 128)" fill-opacity="0.25" points="949.453,396.800 866.202,399.462 843.469,986.726 " />
<polygon stroke="black" stroke-width="1" fill="rgb(128, 128, 128)" fill-opacity="0.25" points="352.973,394.650 463.053,996.864 436.224,396.698 " />
<polygon stroke="black" stroke-width="1" fill="rgb(128, 128, 128)" fill-opacity="0.25" points="702.362,395.776 577.126,395.674 701.338,983.552 " />
<polygon stroke="black" stroke-width="1" fill="rgb(128, 128, 128)" fill-opacity="0.25" points="373.043,189.133 375.398,259.789 246.170,259.891 249.856,188.518 " />
<polygon stroke="black" stroke-width="1" fill="rgb(128, 128, 128)" fill-opacity="0.25" points="178.893,192.307 178.790,105.062 249.344,106.496 249.856,188.518 " />
<polygon stroke="black" stroke-width="1" fill="rgb(128, 128, 128)" fill-opacity="0.25" points="949.453,396.800 949.965,333.210 862.822,335.360 866.202,399.462 " />
<polygon stroke="black" stroke-width="1" fill="rgb(128, 128, 128)" fill-opacity="0.25" points="680.550,154.214 689.562,126.771 716.800,153.702 " />
<polygon stroke="black" stroke-width="1" fill="rgb(128, 128, 128)" fill-opacity="0.25" points="574.771,334.746 513.638,408.269 577.126,395.674 " />
<polygon stroke="black" stroke-width="1" fill="rgb(128, 128, 128)" fill-opacity="0.25" points="766.362,395.162 704.000,334.336 702.362,395.776 " />
<polygon stroke="black" stroke-width="1" fill="rgb(128, 128, 128)" fill-opacity="0.25" points="716.698,117.248 744.141,125.952 716.800,153.702 " />
<polygon stroke="black" stroke-width="1" fill="rgb(128, 128, 128)" fill-opacity="0.25" points="217.498,395.674 220.160,324.096 90.522,323.482 92.467,395.776 " />
<polygon stroke="black" stroke-width="1" fill="rgb(128, 128, 128)" fill-opacity="0.25" points="716.698,189.952 689.971,181.453 716.800,153.702 " />
<polygon stroke="black" stroke-width="1" fill="rgb(128, 128, 128)" fill-opacity="0.25" points="90.522,323.482 28.467,394.854 92.467,395.776 " />
<polygon stroke="black" stroke-width="1" fill="rgb(128, 128, 128)" fill-opacity="0.25" points="753.050,153.600 743.322,181.043 716.800,153.702 " />
<polygon stroke="black" stroke-width="1" fill="rgb(128, 128, 128)" fill-opacity="0.25" points="291.430,404.890 401.715,1008.026 463.053,996.864 352.973,394.650 " />
<polygon stroke="black" stroke-width="1" fill="rgb(128, 128, 128)" fill-opacity="0.25" points="500.634,392.806 439.501,324.608 436.224,396.698 " />
<polygon stroke="black" stroke-width="1" fill="rgb(128, 128, 128)" fill-opacity="0.25" points="373.555,106.598 249.344,106.496 246.272,46.387 375.603,45.568 " />
<polygon stroke="black" stroke-width="1" fill="rgb(128, 128, 128)" fill-opacity="0.25" points="278.733,407.450 220.160,324.096 217.498,395.674 " />
<polygon stroke="black" stroke-width="1" fill="rgb(128, 128, 128)" fill-opacity="0.25" points="373.555,106.598 436.224,104.858 436.326,192.307 373.043,189.133 " />
<polygon stroke="black" stroke-width="1" fill="rgb(128, 128, 128)" fill-opacity="0.25" points="716.288,266.650 716.595,227.942 770.253,208.794 794.624,233.984 " />
<polygon stroke="black" stroke-width="1" fill="rgb(128, 128, 128)" fill-opacity="0.25" points="246.170,259.891 178.893,192.307 249.856,188.518 " />
<polygon stroke="black" stroke-width="1" fill="rgb(128, 128, 128)" fill-opacity="0.25" points="178.790,105.062 246.272,46.387 249.344,106.496 " />
<polygon stroke="black" stroke-width="1" fill="rgb(128, 128, 128)" fill-opacity="0.25" points="704.000,334.336 574.771,334.746 577.126,395.674 702.362,395.776 " />
<polygon stroke="black" stroke-width="1" fill="rgb(128, 128, 128)" fill-opacity="0.25" points="439.501,324.608 352.051,323.174 352.973,394.650 436.224,396.698 " />
<polygon stroke="black" stroke-width="1" fill="rgb(128, 128, 128)" fill-opacity="0.25" points="352.051,323.174 291.430,404.890 352.973,394.650 " />
<polygon stroke="black" stroke-width="1" fill="rgb(128, 128, 128)" fill-opacity="0.25" points="246.170,259.891 152.986,285.389 178.893,192.307 " />
<polygon stroke="black" stroke-width="1" fill="rgb(128, 128, 128)" fill-opacity="0.25" points="513.638,408.269 638.054,996.864 701.338,983.552 577.126,395.674 " />
<polygon stroke="black" stroke-width="1" fill="rgb(128, 128, 128)" fill-opacity="0.25" points="158.208,21.811 246.272,46.387 178.790,105.062 " />
<polygon stroke="black" stroke-width="1" fill="rgb(128, 128, 128)" fill-opacity="0.25" points="802.202,396.186 779.366,984.166 843.469,986.726 866.202,399.462 " />
<polygon stroke="black" stroke-width="1" fill="rgb(128, 128, 128)" fill-opacity="0.25" points="862.822,335.360 802.202,396.186 866.202,399.462 " />
<polygon stroke="black" stroke-width="1" fill="rgb(128, 128, 128)" fill-opacity="0.25" points="436.224,104.858 375.603,45.568 456.192,26.214 " />
<polygon stroke="black" stroke-width="1" fill="rgb(128, 128, 128)" fill-opacity="0.25" points="436.224,104.858 373.555,106.598 375.603,45.568 " />
<polygon stroke="black" stroke-width="1" fill="rgb(128, 128, 128)" fill-opacity="0.25" points="28.467,394.854 28.672,995.021 92.774,995.021 92.467,395.776 " />
<polygon stroke="black" stroke-width="1" fill="rgb(128, 128, 128)" fill-opacity="0.25" points="1012.634,407.347 949.965,333.210 949.453,396.800 " />
<polygon stroke="black" stroke-width="1" fill="rgb(128, 128, 128)" fill-opacity="0.25" points="375.398,259.789 436.326,192.307 461.414,281.600 " />
<polygon stroke="black" stroke-width="1" fill="rgb(128, 128, 128)" fill-opacity="0.25" points="375.398,259.789 373.043,189.133 436.326,192.307 " />
<polygon stroke="black" stroke-width="1" fill="rgb(128, 128, 128)" fill-opacity="0.25" points="153.907,1007.718 278.733,407.450 217.498,395.674 92.774,995.021 " />
<polygon stroke="black" stroke-width="1" fill="rgb(128, 128, 128)" fill-opacity="0.25" points="906.547,997.990 1012.634,407.347 949.453,396.800 843.469,986.726 " />
<polygon stroke="black" stroke-width="1" fill="rgb(128, 128, 128)" fill-opacity="0.25" points="765.542,983.654 766.362,395.162 702.362,395.776 701.338,983.552 " />
<polygon stroke="black" stroke-width="1" fill="rgb(128, 128, 128)" fill-opacity="0.25" points="527.770,993.894 500.634,392.806 436.224,396.698 463.053,996.864 " />
<polygon stroke="black" stroke-width="1" fill="rgb(128, 128, 128)" fill-opacity="0.25" points="829.645,153.702 791.142,153.600 772.096,97.690 797.389,72.294 " />
<polygon stroke="black" stroke-width="1" fill="rgb(128, 128, 128)" fill-opacity="0.25" points="716.493,40.550 716.595,79.053 661.811,99.738 636.621,75.366 " />
<polygon stroke="black" stroke-width="1" fill="rgb(128, 128, 128)" fill-opacity="0.25" points="603.955,155.853 642.458,154.931 662.426,210.022 637.440,235.827 " />
<polygon stroke="black" stroke-width="1" fill="rgb(128, 128, 128)" fill-opacity="0.25" points="642.458,154.931 603.955,155.853 636.621,75.366 661.811,99.738 " />
<polygon stroke="black" stroke-width="1" fill="rgb(128, 128, 128)" fill-opacity="0.25" points="716.595,79.053 716.493,40.550 797.389,72.294 772.096,97.690 " />
<polygon stroke="black" stroke-width="1" fill="rgb(128, 128, 128)" fill-opacity="0.25" points="716.595,227.942 716.288,266.650 637.440,235.827 662.426,210.022 " />
<polygon stroke="black" stroke-width="1" fill="rgb(128, 128, 128)" fill-opacity="0.25" points="791.142,153.600 829.645,153.702 794.624,233.984 770.253,208.794 " />
<polygon stroke="black" stroke-width="1" fill="rgb(128, 128, 128)" fill-opacity="0.25" points="716.595,227.942 716.698,189.952 743.322,181.043 770.253,208.794 " />
<polygon stroke="black" stroke-width="1" fill="rgb(128, 128, 128)" fill-opacity="0.25" points="791.142,153.600 753.050,153.600 744.141,125.952 772.096,97.690 " />
<polygon stroke="black" stroke-width="1" fill="rgb(128, 128, 128)" fill-opacity="0.25" points="716.595,79.053 716.698,117.248 689.562,126.771 661.811,99.738 " />
<polygon stroke="black" stroke-width="1" fill="rgb(128, 128, 128)" fill-opacity="0.25" points="642.458,154.931 680.550,154.214 689.971,181.453 662.426,210.022 " />
<polygon stroke="black" stroke-width="1" fill="rgb(128, 128, 128)" fill-opacity="0.25" points="680.550,154.214 642.458,154.931 661.811,99.738 689.562,126.771 " />
<polygon stroke="black" stroke-width="1" fill="rgb(128, 128, 128)" fill-opacity="0.25" points="716.698,117.248 716.595,79.053 772.096,97.690 744.141,125.952 " />
<polygon stroke="black" stroke-width="1" fill="rgb(128, 128, 128)" fill-opacity="0.25" points="716.698,189.952 716.595,227.942 662.426,210.022 689.971,181.453 " />
<polygon stroke="black" stroke-width="1" fill="rgb(128, 128, 128)" fill-opacity="0.25" points="753.050,153.600 791.142,153.600 770.253,208.794 743.322,181.043 " />
<polygon stroke="black" stroke-width="1" fill="rgb(128, 128, 128)" fill-opacity="0.25" points="716.698,189.952 716.800,153.702 743.322,181.043 " />
<polygon stroke="black" stroke-width="1" fill="rgb(128, 128, 128)" fill-opacity="0.25" points="753.050,153.600 716.800,153.702 744.141,125.952 " />
<polygon stroke="black" stroke-width="1" fill="rgb(128, 128, 128)" fill-opacity="0.25" points="716.698,117.248 716.800,153.702 689.562,126.771 " />
<polygon stroke="black" stroke-width="1" fill="rgb(128, 128, 128)" fill-opacity="0.25" points="680.550,154.214 716.800,153.702 689.971,181.453 " />

</svg>
