<?xml version="1.0" standalone="no"?>
<!DOCTYPE svg PUBLIC "-//W3C//DTD SVG 1.1//EN" 
  "http://www.w3.org/Graphics/SVG/1.1/DTD/svg11.dtd">
<svg width="1024" height="1024" viewBox="0 0 1024 1024"
     xmlns="http://www.w3.org/2000/svg" version="1.1">
<desc>, (Blender 4.0.2)</desc>
<polygon stroke="black" stroke-width="1" fill="rgb(128, 128, 128)" fill-opacity="0.25" points="321.024,376.934 294.195,376.320 309.248,309.248 " />
<polygon stroke="black" stroke-width="1" fill="rgb(128, 128, 128)" fill-opacity="0.25" points="294.195,376.320 269.619,365.466 309.248,309.248 " />
<polygon stroke="black" stroke-width="1" fill="rgb(128, 128, 128)" fill-opacity="0.25" points="269.619,365.466 251.187,346.010 309.248,309.248 " />
<polygon stroke="black" stroke-width="1" fill="rgb(128, 128, 128)" fill-opacity="0.25" points="251.187,346.010 241.562,321.024 309.248,309.248 " />
<polygon stroke="black" stroke-width="1" fill="rgb(128, 128, 128)" fill-opacity="0.25" points="241.562,321.024 242.176,294.195 309.248,309.248 " />
<polygon stroke="black" stroke-width="1" fill="rgb(128, 128, 128)" fill-opacity="0.25" points="242.176,294.195 253.030,269.619 309.248,309.248 " />
<polygon stroke="black" stroke-width="1" fill="rgb(128, 128, 128)" fill-opacity="0.25" points="253.030,269.619 272.486,251.187 309.248,309.248 " />
<polygon stroke="black" stroke-width="1" fill="rgb(128, 128, 128)" fill-opacity="0.25" points="272.486,251.187 297.472,241.562 309.248,309.248 " />
<polygon stroke="black" stroke-width="1" fill="rgb(128, 128, 128)" fill-opacity="0.25" points="297.472,241.562 324.301,242.176 309.248,309.248 " />
<polygon stroke="black" stroke-width="1" fill="rgb(128, 128, 128)" fill-opacity="0.25" points="324.301,242.176 348.877,253.030 309.248,309.248 " />
<polygon stroke="black" stroke-width="1" fill="rgb(128, 128, 128)" fill-opacity="0.25" points="348.877,253.030 367.309,272.486 309.248,309.248 " />
<polygon stroke="black" stroke-width="1" fill="rgb(128, 128, 128)" fill-opacity="0.25" points="367.309,272.486 376.934,297.472 309.248,309.248 " />
<polygon stroke="black" stroke-width="1" fill="rgb(128, 128, 128)" fill-opacity="0.25" points="376.934,297.472 376.320,324.301 309.248,309.248 " />
<polygon stroke="black" stroke-width="1" fill="rgb(128, 128, 128)" fill-opacity="0.25" points="376.320,324.301 365.466,348.877 309.248,309.248 " />
<polygon stroke="black" stroke-width="1" fill="rgb(128, 128, 128)" fill-opacity="0.25" points="365.466,348.877 346.010,367.309 309.248,309.248 " />
<polygon stroke="black" stroke-width="1" fill="rgb(128, 128, 128)" fill-opacity="0.25" points="346.010,367.309 321.024,376.934 309.248,309.248 " />
<polygon stroke="black" stroke-width="1" fill="rgb(128, 128, 128)" fill-opacity="0.25" points="333.722,444.928 279.962,443.904 294.195,376.320 321.024,376.934 " />
<polygon stroke="black" stroke-width="1" fill="rgb(128, 128, 128)" fill-opacity="0.25" points="279.962,443.904 230.605,422.400 269.619,365.466 294.195,376.320 " />
<polygon stroke="black" stroke-width="1" fill="rgb(128, 128, 128)" fill-opacity="0.25" points="230.605,422.400 193.331,383.693 251.187,346.010 269.619,365.466 " />
<polygon stroke="black" stroke-width="1" fill="rgb(128, 128, 128)" fill-opacity="0.25" points="193.331,383.693 173.670,333.722 241.562,321.024 251.187,346.010 " />
<polygon stroke="black" stroke-width="1" fill="rgb(128, 128, 128)" fill-opacity="0.25" points="173.670,333.722 174.592,279.962 242.176,294.195 241.562,321.024 " />
<polygon stroke="black" stroke-width="1" fill="rgb(128, 128, 128)" fill-opacity="0.25" points="174.592,279.962 196.096,230.605 253.030,269.619 242.176,294.195 " />
<polygon stroke="black" stroke-width="1" fill="rgb(128, 128, 128)" fill-opacity="0.25" points="196.096,230.605 234.803,193.331 272.486,251.187 253.030,269.619 " />
<polygon stroke="black" stroke-width="1" fill="rgb(128, 128, 128)" fill-opacity="0.25" points="234.803,193.331 284.774,173.670 297.472,241.562 272.486,251.187 " />
<polygon stroke="black" stroke-width="1" fill="rgb(128, 128, 128)" fill-opacity="0.25" points="284.774,173.670 338.637,174.592 324.301,242.176 297.472,241.562 " />
<polygon stroke="black" stroke-width="1" fill="rgb(128, 128, 128)" fill-opacity="0.25" points="338.637,174.592 387.891,196.096 348.877,253.030 324.301,242.176 " />
<polygon stroke="black" stroke-width="1" fill="rgb(128, 128, 128)" fill-opacity="0.25" points="387.891,196.096 425.165,234.803 367.309,272.486 348.877,253.030 " />
<polygon stroke="black" stroke-width="1" fill="rgb(128, 128, 128)" fill-opacity="0.25" points="425.165,234.803 444.928,284.774 376.934,297.472 367.309,272.486 " />
<polygon stroke="black" stroke-width="1" fill="rgb(128, 128, 128)" fill-opacity="0.25" points="444.928,284.774 443.904,338.637 376.320,324.301 376.934,297.472 " />
<polygon stroke="black" stroke-width="1" fill="rgb(128, 128, 128)" fill-opacity="0.25" points="443.904,338.637 422.400,387.891 365.466,348.877 376.320,324.301 " />
<polygon stroke="black" stroke-width="1" fill="rgb(128, 128, 128)" fill-opacity="0.25" points="422.400,387.891 383.693,425.165 346.010,367.309 365.466,348.877 " />
<polygon stroke="black" stroke-width="1" fill="rgb(128, 128, 128)" fill-opacity="0.25" points="383.693,425.165 333.722,444.928 321.024,376.934 346.010,367.309 " />
<polygon stroke="black" stroke-width="1" fill="rgb(128, 128, 128)" fill-opacity="0.25" points="347.546,514.355 266.138,513.434 279.962,443.904 333.722,444.928 " />
<polygon stroke="black" stroke-width="1" fill="rgb(128, 128, 128)" fill-opacity="0.25" points="266.138,513.434 191.283,481.382 230.605,422.400 279.962,443.904 " />
<polygon stroke="black" stroke-width="1" fill="rgb(128, 128, 128)" fill-opacity="0.25" points="191.283,481.382 134.349,423.117 193.331,383.693 230.605,422.400 " />
<polygon stroke="black" stroke-width="1" fill="rgb(128, 128, 128)" fill-opacity="0.25" points="134.349,423.117 104.141,347.546 173.670,333.722 193.331,383.693 " />
<polygon stroke="black" stroke-width="1" fill="rgb(128, 128, 128)" fill-opacity="0.25" points="104.141,347.546 105.062,266.138 174.592,279.962 173.670,333.722 " />
<polygon stroke="black" stroke-width="1" fill="rgb(128, 128, 128)" fill-opacity="0.25" points="105.062,266.138 137.114,191.283 196.096,230.605 174.592,279.962 " />
<polygon stroke="black" stroke-width="1" fill="rgb(128, 128, 128)" fill-opacity="0.25" points="137.114,191.283 195.379,134.349 234.803,193.331 196.096,230.605 " />
<polygon stroke="black" stroke-width="1" fill="rgb(128, 128, 128)" fill-opacity="0.25" points="195.379,134.349 271.053,104.141 284.774,173.670 234.803,193.331 " />
<polygon stroke="black" stroke-width="1" fill="rgb(128, 128, 128)" fill-opacity="0.25" points="271.053,104.141 352.461,105.062 338.637,174.592 284.774,173.670 " />
<polygon stroke="black" stroke-width="1" fill="rgb(128, 128, 128)" fill-opacity="0.25" points="352.461,105.062 427.213,137.114 387.891,196.096 338.637,174.592 " />
<polygon stroke="black" stroke-width="1" fill="rgb(128, 128, 128)" fill-opacity="0.25" points="427.213,137.114 484.147,195.379 425.165,234.803 387.891,196.096 " />
<polygon stroke="black" stroke-width="1" fill="rgb(128, 128, 128)" fill-opacity="0.25" points="484.147,195.379 514.355,271.053 444.928,284.774 425.165,234.803 " />
<polygon stroke="black" stroke-width="1" fill="rgb(128, 128, 128)" fill-opacity="0.25" points="514.355,271.053 513.434,352.461 443.904,338.637 444.928,284.774 " />
<polygon stroke="black" stroke-width="1" fill="rgb(128, 128, 128)" fill-opacity="0.25" points="513.434,352.461 481.382,427.213 422.400,387.891 443.904,338.637 " />
<polygon stroke="black" stroke-width="1" fill="rgb(128, 128, 128)" fill-opacity="0.25" points="481.382,427.213 423.117,484.147 383.693,425.165 422.400,387.891 " />
<polygon stroke="black" stroke-width="1" fill="rgb(128, 128, 128)" fill-opacity="0.25" points="423.117,484.147 347.546,514.355 333.722,444.928 383.693,425.165 " />
<polygon stroke="black" stroke-width="1" fill="rgb(128, 128, 128)" fill-opacity="0.25" points="362.701,587.776 252.006,587.059 266.138,513.434 347.546,514.355 " />
<polygon stroke="black" stroke-width="1" fill="rgb(128, 128, 128)" fill-opacity="0.25" points="252.006,587.059 150.118,544.051 191.283,481.382 266.138,513.434 " />
<polygon stroke="black" stroke-width="1" fill="rgb(128, 128, 128)" fill-opacity="0.25" points="150.118,544.051 72.397,465.203 134.349,423.117 191.283,481.382 " />
<polygon stroke="black" stroke-width="1" fill="rgb(128, 128, 128)" fill-opacity="0.25" points="72.397,465.203 30.720,362.701 104.141,347.546 134.349,423.117 " />
<polygon stroke="black" stroke-width="1" fill="rgb(128, 128, 128)" fill-opacity="0.25" points="30.720,362.701 31.437,252.006 105.062,266.138 104.141,347.546 " />
<polygon stroke="black" stroke-width="1" fill="rgb(128, 128, 128)" fill-opacity="0.25" points="31.437,252.006 74.547,150.118 137.114,191.283 105.062,266.138 " />
<polygon stroke="black" stroke-width="1" fill="rgb(128, 128, 128)" fill-opacity="0.25" points="74.547,150.118 153.293,72.397 195.379,134.349 137.114,191.283 " />
<polygon stroke="black" stroke-width="1" fill="rgb(128, 128, 128)" fill-opacity="0.25" points="153.293,72.397 255.795,30.720 271.053,104.141 195.379,134.349 " />
<polygon stroke="black" stroke-width="1" fill="rgb(128, 128, 128)" fill-opacity="0.25" points="255.795,30.720 366.490,31.437 352.461,105.062 271.053,104.141 " />
<polygon stroke="black" stroke-width="1" fill="rgb(128, 128, 128)" fill-opacity="0.25" points="366.490,31.437 468.480,74.547 427.213,137.114 352.461,105.062 " />
<polygon stroke="black" stroke-width="1" fill="rgb(128, 128, 128)" fill-opacity="0.25" points="468.480,74.547 546.202,153.293 484.147,195.379 427.213,137.114 " />
<polygon stroke="black" stroke-width="1" fill="rgb(128, 128, 128)" fill-opacity="0.25" points="546.202,153.293 587.776,255.795 514.355,271.053 484.147,195.379 " />
<polygon stroke="black" stroke-width="1" fill="rgb(128, 128, 128)" fill-opacity="0.25" points="587.776,255.795 587.059,366.490 513.434,352.461 514.355,271.053 " />
<polygon stroke="black" stroke-width="1" fill="rgb(128, 128, 128)" fill-opacity="0.25" points="587.059,366.490 544.051,468.480 481.382,427.213 513.434,352.461 " />
<polygon stroke="black" stroke-width="1" fill="rgb(128, 128, 128)" fill-opacity="0.25" points="544.051,468.480 465.203,546.202 423.117,484.147 481.382,427.213 " />
<polygon stroke="black" stroke-width="1" fill="rgb(128, 128, 128)" fill-opacity="0.25" points="465.203,546.202 362.701,587.776 347.546,514.355 423.117,484.147 " />
<polygon stroke="black" stroke-width="1" fill="rgb(128, 128, 128)" fill-opacity="0.25" points="600.576,540.160 542.413,597.094 479.642,556.032 558.285,478.208 " />
<polygon stroke="black" stroke-width="1" fill="rgb(128, 128, 128)" fill-opacity="0.25" points="542.413,597.094 510.566,672.051 436.838,658.125 479.642,556.032 " />
<polygon stroke="black" stroke-width="1" fill="rgb(128, 128, 128)" fill-opacity="0.25" points="510.566,672.051 509.747,753.459 436.326,768.819 436.838,658.125 " />
<polygon stroke="black" stroke-width="1" fill="rgb(128, 128, 128)" fill-opacity="0.25" points="509.747,753.459 540.160,828.928 478.208,871.219 436.326,768.819 " />
<polygon stroke="black" stroke-width="1" fill="rgb(128, 128, 128)" fill-opacity="0.25" points="540.160,828.928 597.094,887.091 556.032,949.862 478.208,871.219 " />
<polygon stroke="black" stroke-width="1" fill="rgb(128, 128, 128)" fill-opacity="0.25" points="597.094,887.091 672.051,919.040 658.125,992.666 556.032,949.862 " />
<polygon stroke="black" stroke-width="1" fill="rgb(128, 128, 128)" fill-opacity="0.25" points="672.051,919.040 753.459,919.757 768.819,993.178 658.125,992.666 " />
<polygon stroke="black" stroke-width="1" fill="rgb(128, 128, 128)" fill-opacity="0.25" points="753.459,919.757 828.928,889.446 871.219,951.296 768.819,993.178 " />
<polygon stroke="black" stroke-width="1" fill="rgb(128, 128, 128)" fill-opacity="0.25" points="828.928,889.446 887.091,832.410 949.862,873.472 871.219,951.296 " />
<polygon stroke="black" stroke-width="1" fill="rgb(128, 128, 128)" fill-opacity="0.25" points="887.091,832.410 919.040,757.453 992.666,771.379 949.862,873.472 " />
<polygon stroke="black" stroke-width="1" fill="rgb(128, 128, 128)" fill-opacity="0.25" points="919.040,757.453 919.757,676.045 993.178,660.787 992.666,771.379 " />
<polygon stroke="black" stroke-width="1" fill="rgb(128, 128, 128)" fill-opacity="0.25" points="919.757,676.045 889.446,600.576 951.296,558.285 993.178,660.787 " />
<polygon stroke="black" stroke-width="1" fill="rgb(128, 128, 128)" fill-opacity="0.25" points="889.446,600.576 832.410,542.413 873.472,479.642 951.296,558.285 " />
<polygon stroke="black" stroke-width="1" fill="rgb(128, 128, 128)" fill-opacity="0.25" points="832.410,542.413 757.453,510.566 771.379,436.838 873.472,479.642 " />
<polygon stroke="black" stroke-width="1" fill="rgb(128, 128, 128)" fill-opacity="0.25" points="757.453,510.566 676.045,509.747 660.787,436.326 771.379,436.838 " />
<polygon stroke="black" stroke-width="1" fill="rgb(128, 128, 128)" fill-opacity="0.25" points="676.045,509.747 600.576,540.160 558.285,478.208 660.787,436.326 " />
<polygon stroke="black" stroke-width="1" fill="rgb(128, 128, 128)" fill-opacity="0.25" points="640.000,598.938 601.395,636.314 542.413,597.094 600.576,540.160 " />
<polygon stroke="black" stroke-width="1" fill="rgb(128, 128, 128)" fill-opacity="0.25" points="601.395,636.314 579.994,685.670 510.566,672.051 542.413,597.094 " />
<polygon stroke="black" stroke-width="1" fill="rgb(128, 128, 128)" fill-opacity="0.25" points="579.994,685.670 579.174,739.430 509.747,753.459 510.566,672.051 " />
<polygon stroke="black" stroke-width="1" fill="rgb(128, 128, 128)" fill-opacity="0.25" points="579.174,739.430 598.938,789.504 540.160,828.928 509.747,753.459 " />
<polygon stroke="black" stroke-width="1" fill="rgb(128, 128, 128)" fill-opacity="0.25" points="598.938,789.504 636.314,828.109 597.094,887.091 540.160,828.928 " />
<polygon stroke="black" stroke-width="1" fill="rgb(128, 128, 128)" fill-opacity="0.25" points="636.314,828.109 685.670,849.510 672.051,919.040 597.094,887.091 " />
<polygon stroke="black" stroke-width="1" fill="rgb(128, 128, 128)" fill-opacity="0.25" points="685.670,849.510 739.430,850.330 753.459,919.757 672.051,919.040 " />
<polygon stroke="black" stroke-width="1" fill="rgb(128, 128, 128)" fill-opacity="0.25" points="739.430,850.330 789.504,830.566 828.928,889.446 753.459,919.757 " />
<polygon stroke="black" stroke-width="1" fill="rgb(128, 128, 128)" fill-opacity="0.25" points="789.504,830.566 828.109,793.190 887.091,832.410 828.928,889.446 " />
<polygon stroke="black" stroke-width="1" fill="rgb(128, 128, 128)" fill-opacity="0.25" points="828.109,793.190 849.510,743.834 919.040,757.453 887.091,832.410 " />
<polygon stroke="black" stroke-width="1" fill="rgb(128, 128, 128)" fill-opacity="0.25" points="849.510,743.834 850.330,690.074 919.757,676.045 919.040,757.453 " />
<polygon stroke="black" stroke-width="1" fill="rgb(128, 128, 128)" fill-opacity="0.25" points="850.330,690.074 830.566,640.000 889.446,600.576 919.757,676.045 " />
<polygon stroke="black" stroke-width="1" fill="rgb(128, 128, 128)" fill-opacity="0.25" points="830.566,640.000 793.190,601.395 832.410,542.413 889.446,600.576 " />
<polygon stroke="black" stroke-width="1" fill="rgb(128, 128, 128)" fill-opacity="0.25" points="793.190,601.395 743.834,579.994 757.453,510.566 832.410,542.413 " />
<polygon stroke="black" stroke-width="1" fill="rgb(128, 128, 128)" fill-opacity="0.25" points="743.834,579.994 690.074,579.174 676.045,509.747 757.453,510.566 " />
<polygon stroke="black" stroke-width="1" fill="rgb(128, 128, 128)" fill-opacity="0.25" points="690.074,579.174 640.000,598.938 600.576,540.160 676.045,509.747 " />
<polygon stroke="black" stroke-width="1" fill="rgb(128, 128, 128)" fill-opacity="0.25" points="677.888,656.794 658.534,675.328 601.395,636.314 640.000,598.938 " />
<polygon stroke="black" stroke-width="1" fill="rgb(128, 128, 128)" fill-opacity="0.25" points="658.534,675.328 647.680,699.802 579.994,685.670 601.395,636.314 " />
<polygon stroke="black" stroke-width="1" fill="rgb(128, 128, 128)" fill-opacity="0.25" points="647.680,699.802 647.066,726.630 579.174,739.430 579.994,685.670 " />
<polygon stroke="black" stroke-width="1" fill="rgb(128, 128, 128)" fill-opacity="0.25" points="647.066,726.630 656.794,751.616 598.938,789.504 579.174,739.430 " />
<polygon stroke="black" stroke-width="1" fill="rgb(128, 128, 128)" fill-opacity="0.25" points="656.794,751.616 675.328,771.072 636.314,828.109 598.938,789.504 " />
<polygon stroke="black" stroke-width="1" fill="rgb(128, 128, 128)" fill-opacity="0.25" points="675.328,771.072 699.802,781.824 685.670,849.510 636.314,828.109 " />
<polygon stroke="black" stroke-width="1" fill="rgb(128, 128, 128)" fill-opacity="0.25" points="699.802,781.824 726.630,782.438 739.430,850.330 685.670,849.510 " />
<polygon stroke="black" stroke-width="1" fill="rgb(128, 128, 128)" fill-opacity="0.25" points="726.630,782.438 751.616,772.710 789.504,830.566 739.430,850.330 " />
<polygon stroke="black" stroke-width="1" fill="rgb(128, 128, 128)" fill-opacity="0.25" points="751.616,772.710 771.072,754.176 828.109,793.190 789.504,830.566 " />
<polygon stroke="black" stroke-width="1" fill="rgb(128, 128, 128)" fill-opacity="0.25" points="771.072,754.176 781.824,729.702 849.510,743.834 828.109,793.190 " />
<polygon stroke="black" stroke-width="1" fill="rgb(128, 128, 128)" fill-opacity="0.25" points="781.824,729.702 782.438,702.874 850.330,690.074 849.510,743.834 " />
<polygon stroke="black" stroke-width="1" fill="rgb(128, 128, 128)" fill-opacity="0.25" points="782.438,702.874 772.710,677.888 830.566,640.000 850.330,690.074 " />
<polygon stroke="black" stroke-width="1" fill="rgb(128, 128, 128)" fill-opacity="0.25" points="772.710,677.888 754.176,658.534 793.190,601.395 830.566,640.000 " />
<polygon stroke="black" stroke-width="1" fill="rgb(128, 128, 128)" fill-opacity="0.25" points="754.176,658.534 729.702,647.680 743.834,579.994 793.190,601.395 " />
<polygon stroke="black" stroke-width="1" fill="rgb(128, 128, 128)" fill-opacity="0.25" points="729.702,647.680 702.874,647.066 690.074,579.174 743.834,579.994 " />
<polygon stroke="black" stroke-width="1" fill="rgb(128, 128, 128)" fill-opacity="0.25" points="702.874,647.066 677.888,656.794 640.000,598.938 690.074,579.174 " />
<polygon stroke="black" stroke-width="1" fill="rgb(128, 128, 128)" fill-opacity="0.25" points="658.534,675.328 677.888,656.794 714.752,714.752 " />
<polygon stroke="black" stroke-width="1" fill="rgb(128, 128, 128)" fill-opacity="0.25" points="647.680,699.802 658.534,675.328 714.752,714.752 " />
<polygon stroke="black" stroke-width="1" fill="rgb(128, 128, 128)" fill-opacity="0.25" points="647.066,726.630 647.680,699.802 714.752,714.752 " />
<polygon stroke="black" stroke-width="1" fill="rgb(128, 128, 128)" fill-opacity="0.25" points="656.794,751.616 647.066,726.630 714.752,714.752 " />
<polygon stroke="black" stroke-width="1" fill="rgb(128, 128, 128)" fill-opacity="0.25" points="675.328,771.072 656.794,751.616 714.752,714.752 " />
<polygon stroke="black" stroke-width="1" fill="rgb(128, 128, 128)" fill-opacity="0.25" points="699.802,781.824 675.328,771.072 714.752,714.752 " />
<polygon stroke="black" stroke-width="1" fill="rgb(128, 128, 128)" fill-opacity="0.25" points="726.630,782.438 699.802,781.824 714.752,714.752 " />
<polygon stroke="black" stroke-width="1" fill="rgb(128, 128, 128)" fill-opacity="0.25" points="751.616,772.710 726.630,782.438 714.752,714.752 " />
<polygon stroke="black" stroke-width="1" fill="rgb(128, 128, 128)" fill-opacity="0.25" points="771.072,754.176 751.616,772.710 714.752,714.752 " />
<polygon stroke="black" stroke-width="1" fill="rgb(128, 128, 128)" fill-opacity="0.25" points="781.824,729.702 771.072,754.176 714.752,714.752 " />
<polygon stroke="black" stroke-width="1" fill="rgb(128, 128, 128)" fill-opacity="0.25" points="782.438,702.874 781.824,729.702 714.752,714.752 " />
<polygon stroke="black" stroke-width="1" fill="rgb(128, 128, 128)" fill-opacity="0.25" points="772.710,677.888 782.438,702.874 714.752,714.752 " />
<polygon stroke="black" stroke-width="1" fill="rgb(128, 128, 128)" fill-opacity="0.25" points="754.176,658.534 772.710,677.888 714.752,714.752 " />
<polygon stroke="black" stroke-width="1" fill="rgb(128, 128, 128)" fill-opacity="0.25" points="729.702,647.680 754.176,658.534 714.752,714.752 " />
<polygon stroke="black" stroke-width="1" fill="rgb(128, 128, 128)" fill-opacity="0.25" points="702.874,647.066 729.702,647.680 714.752,714.752 " />
<polygon stroke="black" stroke-width="1" fill="rgb(128, 128, 128)" fill-opacity="0.25" points="677.888,656.794 702.874,647.066 714.752,714.752 " />

</svg>
