<?xml version="1.0" standalone="no"?>
<!DOCTYPE svg PUBLIC "-//W3C//DTD SVG 1.1//EN" 
  "http://www.w3.org/Graphics/SVG/1.1/DTD/svg11.dtd">
<svg width="1024" height="1024" viewBox="0 0 1024 1024"
     xmlns="http://www.w3.org/2000/svg" version="1.1">
<desc>, (Blender 4.0.2)</desc>
<polygon stroke="black" stroke-width="1" fill="rgb(128, 128, 128)" fill-opacity="0.25" points="460.083,850.534 541.286,853.914 509.952,814.694 " />
<polygon stroke="black" stroke-width="1" fill="rgb(128, 128, 128)" fill-opacity="0.25" points="509.952,814.694 541.286,853.914 586.650,815.923 554.803,776.397 " />
<polygon stroke="black" stroke-width="1" fill="rgb(128, 128, 128)" fill-opacity="0.25" points="959.693,581.530 967.168,516.403 909.619,514.970 904.090,569.651 " />
<polygon stroke="black" stroke-width="1" fill="rgb(128, 128, 128)" fill-opacity="0.25" points="904.090,569.651 909.619,514.970 853.094,513.946 849.613,561.869 " />
<polygon stroke="black" stroke-width="1" fill="rgb(128, 128, 128)" fill-opacity="0.25" points="849.613,561.869 853.094,513.946 797.082,512.922 795.238,557.261 " />
<polygon stroke="black" stroke-width="1" fill="rgb(128, 128, 128)" fill-opacity="0.25" points="795.238,557.261 797.082,512.922 741.376,512.000 740.864,555.213 " />
<polygon stroke="black" stroke-width="1" fill="rgb(128, 128, 128)" fill-opacity="0.25" points="740.864,555.213 741.376,512.000 685.773,510.976 686.592,555.418 " />
<polygon stroke="black" stroke-width="1" fill="rgb(128, 128, 128)" fill-opacity="0.25" points="686.592,555.418 685.773,510.976 630.170,509.952 632.320,558.182 " />
<polygon stroke="black" stroke-width="1" fill="rgb(128, 128, 128)" fill-opacity="0.25" points="632.320,558.182 630.170,509.952 574.464,509.030 577.638,563.814 " />
<polygon stroke="black" stroke-width="1" fill="rgb(128, 128, 128)" fill-opacity="0.25" points="577.638,563.814 574.464,509.030 517.632,507.802 521.830,572.826 " />
<polygon stroke="black" stroke-width="1" fill="rgb(128, 128, 128)" fill-opacity="0.25" points="111.514,774.042 79.360,813.466 124.518,852.173 156.365,813.466 " />
<polygon stroke="black" stroke-width="1" fill="rgb(128, 128, 128)" fill-opacity="0.25" points="156.365,813.466 124.518,852.173 206.029,849.920 " />
<polygon stroke="black" stroke-width="1" fill="rgb(128, 128, 128)" fill-opacity="0.25" points="333.312,883.814 399.360,875.213 385.229,819.302 333.107,826.163 " />
<polygon stroke="black" stroke-width="1" fill="rgb(128, 128, 128)" fill-opacity="0.25" points="399.360,875.213 460.083,850.534 433.664,799.130 385.229,819.302 " />
<polygon stroke="black" stroke-width="1" fill="rgb(128, 128, 128)" fill-opacity="0.25" points="460.083,850.534 509.952,814.694 476.160,768.000 433.664,799.130 " />
<polygon stroke="black" stroke-width="1" fill="rgb(128, 128, 128)" fill-opacity="0.25" points="509.952,814.694 554.803,776.397 514.560,730.522 476.160,768.000 " />
<polygon stroke="black" stroke-width="1" fill="rgb(128, 128, 128)" fill-opacity="0.25" points="959.693,581.530 904.090,569.651 885.658,631.398 932.557,653.107 " />
<polygon stroke="black" stroke-width="1" fill="rgb(128, 128, 128)" fill-opacity="0.25" points="904.090,569.651 849.613,561.869 838.042,617.472 885.658,631.398 " />
<polygon stroke="black" stroke-width="1" fill="rgb(128, 128, 128)" fill-opacity="0.25" points="849.613,561.869 795.238,557.261 789.402,609.382 838.042,617.472 " />
<polygon stroke="black" stroke-width="1" fill="rgb(128, 128, 128)" fill-opacity="0.25" points="795.238,557.261 740.864,555.213 740.352,606.310 789.402,609.382 " />
<polygon stroke="black" stroke-width="1" fill="rgb(128, 128, 128)" fill-opacity="0.25" points="740.864,555.213 686.592,555.418 691.098,607.744 740.352,606.310 " />
<polygon stroke="black" stroke-width="1" fill="rgb(128, 128, 128)" fill-opacity="0.25" points="686.592,555.418 632.320,558.182 642.150,614.093 691.098,607.744 " />
<polygon stroke="black" stroke-width="1" fill="rgb(128, 128, 128)" fill-opacity="0.25" points="632.320,558.182 577.638,563.814 593.510,626.176 642.150,614.093 " />
<polygon stroke="black" stroke-width="1" fill="rgb(128, 128, 128)" fill-opacity="0.25" points="577.638,563.814 521.830,572.826 545.075,645.325 593.510,626.176 " />
<polygon stroke="black" stroke-width="1" fill="rgb(128, 128, 128)" fill-opacity="0.25" points="111.514,774.042 156.365,813.466 190.771,766.259 152.883,728.166 " />
<polygon stroke="black" stroke-width="1" fill="rgb(128, 128, 128)" fill-opacity="0.25" points="156.365,813.466 206.029,849.920 233.062,797.901 190.771,766.259 " />
<polygon stroke="black" stroke-width="1" fill="rgb(128, 128, 128)" fill-opacity="0.25" points="206.029,849.920 267.162,875.008 281.190,818.790 233.062,797.901 " />
<polygon stroke="black" stroke-width="1" fill="rgb(128, 128, 128)" fill-opacity="0.25" points="267.162,875.008 333.312,883.814 333.107,826.163 281.190,818.790 " />
<polygon stroke="black" stroke-width="1" fill="rgb(128, 128, 128)" fill-opacity="0.25" points="333.107,826.163 385.229,819.302 371.405,763.802 333.312,769.024 " />
<polygon stroke="black" stroke-width="1" fill="rgb(128, 128, 128)" fill-opacity="0.25" points="385.229,819.302 433.664,799.130 407.040,748.032 371.405,763.802 " />
<polygon stroke="black" stroke-width="1" fill="rgb(128, 128, 128)" fill-opacity="0.25" points="433.664,799.130 476.160,768.000 438.272,723.149 407.040,748.032 " />
<polygon stroke="black" stroke-width="1" fill="rgb(128, 128, 128)" fill-opacity="0.25" points="476.160,768.000 514.560,730.522 463.974,690.995 438.272,723.149 " />
<polygon stroke="black" stroke-width="1" fill="rgb(128, 128, 128)" fill-opacity="0.25" points="932.557,653.107 885.658,631.398 852.582,687.718 883.405,712.602 " />
<polygon stroke="black" stroke-width="1" fill="rgb(128, 128, 128)" fill-opacity="0.25" points="885.658,631.398 838.042,617.472 817.152,671.232 852.582,687.718 " />
<polygon stroke="black" stroke-width="1" fill="rgb(128, 128, 128)" fill-opacity="0.25" points="838.042,617.472 789.402,609.382 778.957,661.606 817.152,671.232 " />
<polygon stroke="black" stroke-width="1" fill="rgb(128, 128, 128)" fill-opacity="0.25" points="789.402,609.382 740.352,606.310 739.533,658.022 778.957,661.606 " />
<polygon stroke="black" stroke-width="1" fill="rgb(128, 128, 128)" fill-opacity="0.25" points="740.352,606.310 691.098,607.744 699.802,660.275 739.533,658.022 " />
<polygon stroke="black" stroke-width="1" fill="rgb(128, 128, 128)" fill-opacity="0.25" points="691.098,607.744 642.150,614.093 660.992,668.570 699.802,660.275 " />
<polygon stroke="black" stroke-width="1" fill="rgb(128, 128, 128)" fill-opacity="0.25" points="642.150,614.093 593.510,626.176 624.333,683.827 660.992,668.570 " />
<polygon stroke="black" stroke-width="1" fill="rgb(128, 128, 128)" fill-opacity="0.25" points="593.510,626.176 545.075,645.325 591.462,707.789 624.333,683.827 " />
<polygon stroke="black" stroke-width="1" fill="rgb(128, 128, 128)" fill-opacity="0.25" points="152.883,728.166 190.771,766.259 229.376,721.715 204.493,689.459 " />
<polygon stroke="black" stroke-width="1" fill="rgb(128, 128, 128)" fill-opacity="0.25" points="190.771,766.259 233.062,797.901 260.096,746.906 229.376,721.715 " />
<polygon stroke="black" stroke-width="1" fill="rgb(128, 128, 128)" fill-opacity="0.25" points="233.062,797.901 281.190,818.790 295.424,763.187 260.096,746.906 " />
<polygon stroke="black" stroke-width="1" fill="rgb(128, 128, 128)" fill-opacity="0.25" points="281.190,818.790 333.107,826.163 333.312,769.024 295.424,763.187 " />
<polygon stroke="black" stroke-width="1" fill="rgb(128, 128, 128)" fill-opacity="0.25" points="333.312,769.024 371.405,763.802 355.738,708.403 333.824,711.680 " />
<polygon stroke="black" stroke-width="1" fill="rgb(128, 128, 128)" fill-opacity="0.25" points="371.405,763.802 407.040,748.032 375.706,698.675 355.738,708.403 " />
<polygon stroke="black" stroke-width="1" fill="rgb(128, 128, 128)" fill-opacity="0.25" points="407.040,748.032 438.272,723.149 391.987,683.213 375.706,698.675 " />
<polygon stroke="black" stroke-width="1" fill="rgb(128, 128, 128)" fill-opacity="0.25" points="438.272,723.149 463.974,690.995 402.842,663.347 391.987,683.213 " />
<polygon stroke="black" stroke-width="1" fill="rgb(128, 128, 128)" fill-opacity="0.25" points="883.405,712.602 852.582,687.718 803.430,734.925 816.026,752.742 " />
<polygon stroke="black" stroke-width="1" fill="rgb(128, 128, 128)" fill-opacity="0.25" points="852.582,687.718 817.152,671.232 784.896,722.022 803.430,734.925 " />
<polygon stroke="black" stroke-width="1" fill="rgb(128, 128, 128)" fill-opacity="0.25" points="817.152,671.232 778.957,661.606 762.470,714.138 784.896,722.022 " />
<polygon stroke="black" stroke-width="1" fill="rgb(128, 128, 128)" fill-opacity="0.25" points="778.957,661.606 739.533,658.022 738.304,711.270 762.470,714.138 " />
<polygon stroke="black" stroke-width="1" fill="rgb(128, 128, 128)" fill-opacity="0.25" points="739.533,658.022 699.802,660.275 713.933,713.421 738.304,711.270 " />
<polygon stroke="black" stroke-width="1" fill="rgb(128, 128, 128)" fill-opacity="0.25" points="699.802,660.275 660.992,668.570 691.098,720.794 713.933,713.421 " />
<polygon stroke="black" stroke-width="1" fill="rgb(128, 128, 128)" fill-opacity="0.25" points="660.992,668.570 624.333,683.827 671.642,733.389 691.098,720.794 " />
<polygon stroke="black" stroke-width="1" fill="rgb(128, 128, 128)" fill-opacity="0.25" points="624.333,683.827 591.462,707.789 658.022,751.514 671.642,733.389 " />
<polygon stroke="black" stroke-width="1" fill="rgb(128, 128, 128)" fill-opacity="0.25" points="204.493,689.459 229.376,721.715 276.275,682.803 266.035,663.245 " />
<polygon stroke="black" stroke-width="1" fill="rgb(128, 128, 128)" fill-opacity="0.25" points="229.376,721.715 260.096,746.906 292.250,698.163 276.275,682.803 " />
<polygon stroke="black" stroke-width="1" fill="rgb(128, 128, 128)" fill-opacity="0.25" points="260.096,746.906 295.424,763.187 312.013,708.096 292.250,698.163 " />
<polygon stroke="black" stroke-width="1" fill="rgb(128, 128, 128)" fill-opacity="0.25" points="295.424,763.187 333.312,769.024 333.824,711.680 312.013,708.096 " />
<polygon stroke="black" stroke-width="1" fill="rgb(128, 128, 128)" fill-opacity="0.25" points="355.738,708.403 334.234,652.186 333.824,711.680 " />
<polygon stroke="black" stroke-width="1" fill="rgb(128, 128, 128)" fill-opacity="0.25" points="391.987,683.213 334.234,652.186 375.706,698.675 " />
<polygon stroke="black" stroke-width="1" fill="rgb(128, 128, 128)" fill-opacity="0.25" points="803.430,734.925 737.178,769.331 816.026,752.742 " />
<polygon stroke="black" stroke-width="1" fill="rgb(128, 128, 128)" fill-opacity="0.25" points="762.470,714.138 737.178,769.331 784.896,722.022 " />
<polygon stroke="black" stroke-width="1" fill="rgb(128, 128, 128)" fill-opacity="0.25" points="713.933,713.421 737.178,769.331 738.304,711.270 " />
<polygon stroke="black" stroke-width="1" fill="rgb(128, 128, 128)" fill-opacity="0.25" points="671.642,733.389 737.178,769.331 691.098,720.794 " />
<polygon stroke="black" stroke-width="1" fill="rgb(128, 128, 128)" fill-opacity="0.25" points="276.275,682.803 334.234,652.186 266.035,663.245 " />
<polygon stroke="black" stroke-width="1" fill="rgb(128, 128, 128)" fill-opacity="0.25" points="312.013,708.096 334.234,652.186 292.250,698.163 " />
<polygon stroke="black" stroke-width="1" fill="rgb(128, 128, 128)" fill-opacity="0.25" points="963.891,450.662 938.189,378.061 890.266,398.131 906.240,460.390 " />
<polygon stroke="black" stroke-width="1" fill="rgb(128, 128, 128)" fill-opacity="0.25" points="906.240,460.390 890.266,398.131 841.728,410.214 850.842,466.022 " />
<polygon stroke="black" stroke-width="1" fill="rgb(128, 128, 128)" fill-opacity="0.25" points="850.842,466.022 841.728,410.214 792.678,416.461 796.160,468.685 " />
<polygon stroke="black" stroke-width="1" fill="rgb(128, 128, 128)" fill-opacity="0.25" points="796.160,468.685 792.678,416.461 743.526,417.690 741.683,468.787 " />
<polygon stroke="black" stroke-width="1" fill="rgb(128, 128, 128)" fill-opacity="0.25" points="741.683,468.787 743.526,417.690 694.374,414.413 687.514,466.432 " />
<polygon stroke="black" stroke-width="1" fill="rgb(128, 128, 128)" fill-opacity="0.25" points="687.514,466.432 694.374,414.413 645.837,406.118 633.549,461.722 " />
<polygon stroke="black" stroke-width="1" fill="rgb(128, 128, 128)" fill-opacity="0.25" points="633.549,461.722 645.837,406.118 598.016,392.294 579.891,454.042 " />
<polygon stroke="black" stroke-width="1" fill="rgb(128, 128, 128)" fill-opacity="0.25" points="579.891,454.042 598.016,392.294 550.605,371.302 525.824,443.085 " />
<polygon stroke="black" stroke-width="1" fill="rgb(128, 128, 128)" fill-opacity="0.25" points="938.189,378.061 890.982,316.826 859.238,340.685 890.266,398.131 " />
<polygon stroke="black" stroke-width="1" fill="rgb(128, 128, 128)" fill-opacity="0.25" points="890.266,398.131 859.238,340.685 822.989,355.738 841.728,410.214 " />
<polygon stroke="black" stroke-width="1" fill="rgb(128, 128, 128)" fill-opacity="0.25" points="841.728,410.214 822.989,355.738 784.486,363.930 792.678,416.461 " />
<polygon stroke="black" stroke-width="1" fill="rgb(128, 128, 128)" fill-opacity="0.25" points="792.678,416.461 784.486,363.930 744.858,365.978 743.526,417.690 " />
<polygon stroke="black" stroke-width="1" fill="rgb(128, 128, 128)" fill-opacity="0.25" points="743.526,417.690 744.858,365.978 705.331,362.189 694.374,414.413 " />
<polygon stroke="black" stroke-width="1" fill="rgb(128, 128, 128)" fill-opacity="0.25" points="694.374,414.413 705.331,362.189 666.931,352.461 645.837,406.118 " />
<polygon stroke="black" stroke-width="1" fill="rgb(128, 128, 128)" fill-opacity="0.25" points="645.837,406.118 666.931,352.461 630.989,335.770 598.016,392.294 " />
<polygon stroke="black" stroke-width="1" fill="rgb(128, 128, 128)" fill-opacity="0.25" points="598.016,392.294 630.989,335.770 599.040,310.579 550.605,371.302 " />
<polygon stroke="black" stroke-width="1" fill="rgb(128, 128, 128)" fill-opacity="0.25" points="890.982,316.826 825.037,274.227 811.827,291.533 859.238,340.685 " />
<polygon stroke="black" stroke-width="1" fill="rgb(128, 128, 128)" fill-opacity="0.25" points="859.238,340.685 811.827,291.533 792.781,303.821 822.989,355.738 " />
<polygon stroke="black" stroke-width="1" fill="rgb(128, 128, 128)" fill-opacity="0.25" points="822.989,355.738 792.781,303.821 770.150,310.784 784.486,363.930 " />
<polygon stroke="black" stroke-width="1" fill="rgb(128, 128, 128)" fill-opacity="0.25" points="784.486,363.930 770.150,310.784 745.779,312.730 744.858,365.978 " />
<polygon stroke="black" stroke-width="1" fill="rgb(128, 128, 128)" fill-opacity="0.25" points="744.858,365.978 745.779,312.730 721.510,309.658 705.331,362.189 " />
<polygon stroke="black" stroke-width="1" fill="rgb(128, 128, 128)" fill-opacity="0.25" points="705.331,362.189 721.510,309.658 698.982,301.466 666.931,352.461 " />
<polygon stroke="black" stroke-width="1" fill="rgb(128, 128, 128)" fill-opacity="0.25" points="666.931,352.461 698.982,301.466 680.141,288.051 630.989,335.770 " />
<polygon stroke="black" stroke-width="1" fill="rgb(128, 128, 128)" fill-opacity="0.25" points="630.989,335.770 680.141,288.051 667.136,269.414 599.040,310.579 " />
<polygon stroke="black" stroke-width="1" fill="rgb(128, 128, 128)" fill-opacity="0.25" points="811.827,291.533 746.906,254.669 792.781,303.821 " />
<polygon stroke="black" stroke-width="1" fill="rgb(128, 128, 128)" fill-opacity="0.25" points="770.150,310.784 746.906,254.669 745.779,312.730 " />
<polygon stroke="black" stroke-width="1" fill="rgb(128, 128, 128)" fill-opacity="0.25" points="721.510,309.658 746.906,254.669 698.982,301.466 " />
<polygon stroke="black" stroke-width="1" fill="rgb(128, 128, 128)" fill-opacity="0.25" points="680.141,288.051 746.906,254.669 667.136,269.414 " />
<polygon stroke="black" stroke-width="1" fill="rgb(128, 128, 128)" fill-opacity="0.25" points="583.270,283.136 540.160,250.470 505.651,307.098 541.389,342.835 " />
<polygon stroke="black" stroke-width="1" fill="rgb(128, 128, 128)" fill-opacity="0.25" points="541.389,342.835 505.651,307.098 457.626,353.280 483.738,395.366 " />
<polygon stroke="black" stroke-width="1" fill="rgb(128, 128, 128)" fill-opacity="0.25" points="483.738,395.366 457.626,353.280 397.824,383.590 411.136,430.797 " />
<polygon stroke="black" stroke-width="1" fill="rgb(128, 128, 128)" fill-opacity="0.25" points="411.136,430.797 397.824,383.590 331.162,393.728 330.240,442.675 " />
<polygon stroke="black" stroke-width="1" fill="rgb(128, 128, 128)" fill-opacity="0.25" points="330.240,442.675 331.162,393.728 264.806,382.464 249.549,428.954 " />
<polygon stroke="black" stroke-width="1" fill="rgb(128, 128, 128)" fill-opacity="0.25" points="249.549,428.954 264.806,382.464 205.517,351.130 177.971,391.782 " />
<polygon stroke="black" stroke-width="1" fill="rgb(128, 128, 128)" fill-opacity="0.25" points="177.971,391.782 205.517,351.130 158.310,304.026 121.958,337.715 " />
<polygon stroke="black" stroke-width="1" fill="rgb(128, 128, 128)" fill-opacity="0.25" points="121.958,337.715 158.310,304.026 125.030,246.579 82.330,277.606 " />
<polygon stroke="black" stroke-width="1" fill="rgb(128, 128, 128)" fill-opacity="0.25" points="540.160,250.470 490.906,218.624 465.920,267.469 505.651,307.098 " />
<polygon stroke="black" stroke-width="1" fill="rgb(128, 128, 128)" fill-opacity="0.25" points="505.651,307.098 465.920,267.469 429.363,305.971 457.626,353.280 " />
<polygon stroke="black" stroke-width="1" fill="rgb(128, 128, 128)" fill-opacity="0.25" points="457.626,353.280 429.363,305.971 383.386,330.752 397.824,383.590 " />
<polygon stroke="black" stroke-width="1" fill="rgb(128, 128, 128)" fill-opacity="0.25" points="397.824,383.590 383.386,330.752 332.288,339.251 331.162,393.728 " />
<polygon stroke="black" stroke-width="1" fill="rgb(128, 128, 128)" fill-opacity="0.25" points="331.162,393.728 332.288,339.251 281.190,330.547 264.806,382.464 " />
<polygon stroke="black" stroke-width="1" fill="rgb(128, 128, 128)" fill-opacity="0.25" points="264.806,382.464 281.190,330.547 235.418,305.357 205.517,351.130 " />
<polygon stroke="black" stroke-width="1" fill="rgb(128, 128, 128)" fill-opacity="0.25" points="205.517,351.130 235.418,305.357 199.270,266.445 158.310,304.026 " />
<polygon stroke="black" stroke-width="1" fill="rgb(128, 128, 128)" fill-opacity="0.25" points="158.310,304.026 199.270,266.445 175.309,217.190 125.030,246.579 " />
<polygon stroke="black" stroke-width="1" fill="rgb(128, 128, 128)" fill-opacity="0.25" points="490.906,218.624 438.989,195.994 424.550,232.141 465.920,267.469 " />
<polygon stroke="black" stroke-width="1" fill="rgb(128, 128, 128)" fill-opacity="0.25" points="465.920,267.469 424.550,232.141 400.077,260.710 429.363,305.971 " />
<polygon stroke="black" stroke-width="1" fill="rgb(128, 128, 128)" fill-opacity="0.25" points="429.363,305.971 400.077,260.710 368.435,279.142 383.386,330.752 " />
<polygon stroke="black" stroke-width="1" fill="rgb(128, 128, 128)" fill-opacity="0.25" points="383.386,330.752 368.435,279.142 333.005,285.491 332.288,339.251 " />
<polygon stroke="black" stroke-width="1" fill="rgb(128, 128, 128)" fill-opacity="0.25" points="332.288,339.251 333.005,285.491 297.472,279.347 281.190,330.547 " />
<polygon stroke="black" stroke-width="1" fill="rgb(128, 128, 128)" fill-opacity="0.25" points="281.190,330.547 297.472,279.347 265.728,261.120 235.418,305.357 " />
<polygon stroke="black" stroke-width="1" fill="rgb(128, 128, 128)" fill-opacity="0.25" points="235.418,305.357 265.728,261.120 241.254,232.550 199.270,266.445 " />
<polygon stroke="black" stroke-width="1" fill="rgb(128, 128, 128)" fill-opacity="0.25" points="199.270,266.445 241.254,232.550 226.918,195.994 175.309,217.190 " />
<polygon stroke="black" stroke-width="1" fill="rgb(128, 128, 128)" fill-opacity="0.25" points="438.989,195.994 386.253,182.374 380.416,201.933 424.550,232.141 " />
<polygon stroke="black" stroke-width="1" fill="rgb(128, 128, 128)" fill-opacity="0.25" points="424.550,232.141 380.416,201.933 368.333,217.805 400.077,260.710 " />
<polygon stroke="black" stroke-width="1" fill="rgb(128, 128, 128)" fill-opacity="0.25" points="400.077,260.710 368.333,217.805 351.949,228.147 368.435,279.142 " />
<polygon stroke="black" stroke-width="1" fill="rgb(128, 128, 128)" fill-opacity="0.25" points="368.435,279.142 351.949,228.147 333.210,231.936 333.005,285.491 " />
<polygon stroke="black" stroke-width="1" fill="rgb(128, 128, 128)" fill-opacity="0.25" points="333.005,285.491 333.210,231.936 314.368,228.557 297.472,279.347 " />
<polygon stroke="black" stroke-width="1" fill="rgb(128, 128, 128)" fill-opacity="0.25" points="297.472,279.347 314.368,228.557 297.779,218.522 265.728,261.120 " />
<polygon stroke="black" stroke-width="1" fill="rgb(128, 128, 128)" fill-opacity="0.25" points="265.728,261.120 297.779,218.522 285.594,202.854 241.254,232.550 " />
<polygon stroke="black" stroke-width="1" fill="rgb(128, 128, 128)" fill-opacity="0.25" points="241.254,232.550 285.594,202.854 279.450,183.398 226.918,195.994 " />
<polygon stroke="black" stroke-width="1" fill="rgb(128, 128, 128)" fill-opacity="0.25" points="380.416,201.933 332.902,176.947 368.333,217.805 " />
<polygon stroke="black" stroke-width="1" fill="rgb(128, 128, 128)" fill-opacity="0.25" points="351.949,228.147 332.902,176.947 333.210,231.936 " />
<polygon stroke="black" stroke-width="1" fill="rgb(128, 128, 128)" fill-opacity="0.25" points="314.368,228.557 332.902,176.947 297.779,218.522 " />
<polygon stroke="black" stroke-width="1" fill="rgb(128, 128, 128)" fill-opacity="0.25" points="285.594,202.854 332.902,176.947 279.450,183.398 " />
<polygon stroke="black" stroke-width="1" fill="rgb(128, 128, 128)" fill-opacity="0.25" points="82.330,277.606 125.030,246.579 113.664,186.778 " />
<polygon stroke="black" stroke-width="1" fill="rgb(128, 128, 128)" fill-opacity="0.25" points="554.291,189.133 540.160,250.470 583.270,283.136 " />
<polygon stroke="black" stroke-width="1" fill="rgb(128, 128, 128)" fill-opacity="0.25" points="125.030,246.579 175.309,217.190 165.786,160.358 113.664,186.778 " />
<polygon stroke="black" stroke-width="1" fill="rgb(128, 128, 128)" fill-opacity="0.25" points="113.664,186.778 165.786,160.358 169.779,101.274 " />
<polygon stroke="black" stroke-width="1" fill="rgb(128, 128, 128)" fill-opacity="0.25" points="496.742,102.298 500.224,162.714 554.291,189.133 " />
<polygon stroke="black" stroke-width="1" fill="rgb(128, 128, 128)" fill-opacity="0.25" points="554.291,189.133 500.224,162.714 490.906,218.624 540.160,250.470 " />
<polygon stroke="black" stroke-width="1" fill="rgb(128, 128, 128)" fill-opacity="0.25" points="175.309,217.190 226.918,195.994 225.485,154.624 165.786,160.358 " />
<polygon stroke="black" stroke-width="1" fill="rgb(128, 128, 128)" fill-opacity="0.25" points="165.786,160.358 225.485,154.624 240.742,112.435 169.779,101.274 " />
<polygon stroke="black" stroke-width="1" fill="rgb(128, 128, 128)" fill-opacity="0.25" points="169.779,101.274 240.742,112.435 248.627,75.674 " />
<polygon stroke="black" stroke-width="1" fill="rgb(128, 128, 128)" fill-opacity="0.25" points="417.690,77.210 425.267,113.869 496.742,102.298 " />
<polygon stroke="black" stroke-width="1" fill="rgb(128, 128, 128)" fill-opacity="0.25" points="496.742,102.298 425.267,113.869 440.422,155.341 500.224,162.714 " />
<polygon stroke="black" stroke-width="1" fill="rgb(128, 128, 128)" fill-opacity="0.25" points="500.224,162.714 440.422,155.341 438.989,195.994 490.906,218.624 " />
<polygon stroke="black" stroke-width="1" fill="rgb(128, 128, 128)" fill-opacity="0.25" points="226.918,195.994 279.450,183.398 280.986,162.304 225.485,154.624 " />
<polygon stroke="black" stroke-width="1" fill="rgb(128, 128, 128)" fill-opacity="0.25" points="225.485,154.624 280.986,162.304 291.021,142.950 240.742,112.435 " />
<polygon stroke="black" stroke-width="1" fill="rgb(128, 128, 128)" fill-opacity="0.25" points="240.742,112.435 291.021,142.950 309.453,129.331 248.627,75.674 " />
<polygon stroke="black" stroke-width="1" fill="rgb(128, 128, 128)" fill-opacity="0.25" points="248.627,75.674 309.453,129.331 333.005,122.778 332.186,69.325 " />
<polygon stroke="black" stroke-width="1" fill="rgb(128, 128, 128)" fill-opacity="0.25" points="332.186,69.325 333.005,122.778 356.045,127.693 417.690,77.210 " />
<polygon stroke="black" stroke-width="1" fill="rgb(128, 128, 128)" fill-opacity="0.25" points="417.690,77.210 356.045,127.693 374.067,142.131 425.267,113.869 " />
<polygon stroke="black" stroke-width="1" fill="rgb(128, 128, 128)" fill-opacity="0.25" points="425.267,113.869 374.067,142.131 384.410,161.382 440.422,155.341 " />
<polygon stroke="black" stroke-width="1" fill="rgb(128, 128, 128)" fill-opacity="0.25" points="440.422,155.341 384.410,161.382 386.253,182.374 438.989,195.994 " />
<polygon stroke="black" stroke-width="1" fill="rgb(128, 128, 128)" fill-opacity="0.25" points="280.986,162.304 332.902,176.947 291.021,142.950 " />
<polygon stroke="black" stroke-width="1" fill="rgb(128, 128, 128)" fill-opacity="0.25" points="309.453,129.331 332.902,176.947 333.005,122.778 " />
<polygon stroke="black" stroke-width="1" fill="rgb(128, 128, 128)" fill-opacity="0.25" points="356.045,127.693 332.902,176.947 374.067,142.131 " />
<polygon stroke="black" stroke-width="1" fill="rgb(128, 128, 128)" fill-opacity="0.25" points="384.410,161.382 332.902,176.947 386.253,182.374 " />
<polygon stroke="black" stroke-width="1" fill="rgb(128, 128, 128)" fill-opacity="0.25" points="541.286,853.914 619.008,854.528 586.650,815.923 " />
<polygon stroke="black" stroke-width="1" fill="rgb(128, 128, 128)" fill-opacity="0.25" points="967.168,516.403 963.891,450.662 906.240,460.390 909.619,514.970 " />
<polygon stroke="black" stroke-width="1" fill="rgb(128, 128, 128)" fill-opacity="0.25" points="909.619,514.970 906.240,460.390 850.842,466.022 853.094,513.946 " />
<polygon stroke="black" stroke-width="1" fill="rgb(128, 128, 128)" fill-opacity="0.25" points="853.094,513.946 850.842,466.022 796.160,468.685 797.082,512.922 " />
<polygon stroke="black" stroke-width="1" fill="rgb(128, 128, 128)" fill-opacity="0.25" points="797.082,512.922 796.160,468.685 741.683,468.787 741.376,512.000 " />
<polygon stroke="black" stroke-width="1" fill="rgb(128, 128, 128)" fill-opacity="0.25" points="741.376,512.000 741.683,468.787 687.514,466.432 685.773,510.976 " />
<polygon stroke="black" stroke-width="1" fill="rgb(128, 128, 128)" fill-opacity="0.25" points="685.773,510.976 687.514,466.432 633.549,461.722 630.170,509.952 " />
<polygon stroke="black" stroke-width="1" fill="rgb(128, 128, 128)" fill-opacity="0.25" points="630.170,509.952 633.549,461.722 579.891,454.042 574.464,509.030 " />
<polygon stroke="black" stroke-width="1" fill="rgb(128, 128, 128)" fill-opacity="0.25" points="574.464,509.030 579.891,454.042 525.824,443.085 517.632,507.802 " />
<polygon stroke="black" stroke-width="1" fill="rgb(128, 128, 128)" fill-opacity="0.25" points="79.360,813.466 46.592,851.661 124.518,852.173 " />
<polygon stroke="black" stroke-width="1" fill="rgb(128, 128, 128)" fill-opacity="0.25" points="351.949,228.147 368.333,217.805 332.902,176.947 " />
<polygon stroke="black" stroke-width="1" fill="rgb(128, 128, 128)" fill-opacity="0.25" points="384.410,161.382 374.067,142.131 332.902,176.947 " />
<polygon stroke="black" stroke-width="1" fill="rgb(128, 128, 128)" fill-opacity="0.25" points="285.594,202.854 297.779,218.522 332.902,176.947 " />
<polygon stroke="black" stroke-width="1" fill="rgb(128, 128, 128)" fill-opacity="0.25" points="314.368,228.557 333.210,231.936 332.902,176.947 " />
<polygon stroke="black" stroke-width="1" fill="rgb(128, 128, 128)" fill-opacity="0.25" points="356.045,127.693 333.005,122.778 332.902,176.947 " />
<polygon stroke="black" stroke-width="1" fill="rgb(128, 128, 128)" fill-opacity="0.25" points="309.453,129.331 291.021,142.950 332.902,176.947 " />
<polygon stroke="black" stroke-width="1" fill="rgb(128, 128, 128)" fill-opacity="0.25" points="280.986,162.304 279.450,183.398 332.902,176.947 " />
<polygon stroke="black" stroke-width="1" fill="rgb(128, 128, 128)" fill-opacity="0.25" points="380.416,201.933 386.253,182.374 332.902,176.947 " />
<polygon stroke="black" stroke-width="1" fill="rgb(128, 128, 128)" fill-opacity="0.25" points="355.738,708.403 375.706,698.675 334.234,652.186 " />
<polygon stroke="black" stroke-width="1" fill="rgb(128, 128, 128)" fill-opacity="0.25" points="276.275,682.803 292.250,698.163 334.234,652.186 " />
<polygon stroke="black" stroke-width="1" fill="rgb(128, 128, 128)" fill-opacity="0.25" points="803.430,734.925 784.896,722.022 737.178,769.331 " />
<polygon stroke="black" stroke-width="1" fill="rgb(128, 128, 128)" fill-opacity="0.25" points="762.470,714.138 738.304,711.270 737.178,769.331 " />
<polygon stroke="black" stroke-width="1" fill="rgb(128, 128, 128)" fill-opacity="0.25" points="713.933,713.421 691.098,720.794 737.178,769.331 " />
<polygon stroke="black" stroke-width="1" fill="rgb(128, 128, 128)" fill-opacity="0.25" points="671.642,733.389 658.022,751.514 737.178,769.331 " />
<polygon stroke="black" stroke-width="1" fill="rgb(128, 128, 128)" fill-opacity="0.25" points="391.987,683.213 402.842,663.347 334.234,652.186 " />
<polygon stroke="black" stroke-width="1" fill="rgb(128, 128, 128)" fill-opacity="0.25" points="312.013,708.096 333.824,711.680 334.234,652.186 " />
<polygon stroke="black" stroke-width="1" fill="rgb(128, 128, 128)" fill-opacity="0.25" points="770.150,310.784 792.781,303.821 746.906,254.669 " />
<polygon stroke="black" stroke-width="1" fill="rgb(128, 128, 128)" fill-opacity="0.25" points="721.510,309.658 745.779,312.730 746.906,254.669 " />
<polygon stroke="black" stroke-width="1" fill="rgb(128, 128, 128)" fill-opacity="0.25" points="811.827,291.533 825.037,274.227 746.906,254.669 " />
<polygon stroke="black" stroke-width="1" fill="rgb(128, 128, 128)" fill-opacity="0.25" points="680.141,288.051 698.982,301.466 746.906,254.669 " />

</svg>
