<?xml version="1.0" standalone="no"?>
<!DOCTYPE svg PUBLIC "-//W3C//DTD SVG 1.1//EN" 
  "http://www.w3.org/Graphics/SVG/1.1/DTD/svg11.dtd">
<svg width="1024" height="1024" viewBox="0 0 1024 1024"
     xmlns="http://www.w3.org/2000/svg" version="1.1">
<desc>, (Blender 4.0.2)</desc>
<polygon stroke="black" stroke-width="1" fill="rgb(128, 128, 128)" fill-opacity="0.25" points="967.066,528.998 966.144,83.456 852.480,83.763 853.402,529.203 " />
<polygon stroke="black" stroke-width="1" fill="rgb(128, 128, 128)" fill-opacity="0.25" points="853.402,529.203 852.480,83.763 738.816,83.968 739.738,529.510 " />
<polygon stroke="black" stroke-width="1" fill="rgb(128, 128, 128)" fill-opacity="0.25" points="739.738,529.510 738.816,83.968 625.152,84.173 626.176,529.715 " />
<polygon stroke="black" stroke-width="1" fill="rgb(128, 128, 128)" fill-opacity="0.25" points="626.176,529.715 625.152,84.173 511.488,84.480 512.512,529.920 " />
<polygon stroke="black" stroke-width="1" fill="rgb(128, 128, 128)" fill-opacity="0.25" points="512.512,529.920 511.488,84.480 397.824,84.685 398.848,530.227 " />
<polygon stroke="black" stroke-width="1" fill="rgb(128, 128, 128)" fill-opacity="0.25" points="398.848,530.227 397.824,84.685 284.262,84.890 285.184,530.432 " />
<polygon stroke="black" stroke-width="1" fill="rgb(128, 128, 128)" fill-opacity="0.25" points="285.184,530.432 284.262,84.890 170.598,85.197 171.520,530.637 " />
<polygon stroke="black" stroke-width="1" fill="rgb(128, 128, 128)" fill-opacity="0.25" points="171.520,530.637 170.598,85.197 56.934,85.402 57.856,530.944 " />
<polygon stroke="black" stroke-width="1" fill="rgb(128, 128, 128)" fill-opacity="0.25" points="766.157,564.838 623.002,625.562 699.699,694.989 771.379,668.058 " />
<polygon stroke="black" stroke-width="1" fill="rgb(128, 128, 128)" fill-opacity="0.25" points="623.002,625.562 564.838,769.843 668.058,764.621 699.699,694.989 " />
<polygon stroke="black" stroke-width="1" fill="rgb(128, 128, 128)" fill-opacity="0.25" points="564.838,769.843 625.562,912.998 694.989,836.301 668.058,764.621 " />
<polygon stroke="black" stroke-width="1" fill="rgb(128, 128, 128)" fill-opacity="0.25" points="625.562,912.998 769.843,971.162 764.621,867.942 694.989,836.301 " />
<polygon stroke="black" stroke-width="1" fill="rgb(128, 128, 128)" fill-opacity="0.25" points="769.843,971.162 912.998,910.438 836.301,841.011 764.621,867.942 " />
<polygon stroke="black" stroke-width="1" fill="rgb(128, 128, 128)" fill-opacity="0.25" points="912.998,910.438 971.162,766.157 867.942,771.379 836.301,841.011 " />
<polygon stroke="black" stroke-width="1" fill="rgb(128, 128, 128)" fill-opacity="0.25" points="971.162,766.157 910.438,623.002 841.011,699.699 867.942,771.379 " />
<polygon stroke="black" stroke-width="1" fill="rgb(128, 128, 128)" fill-opacity="0.25" points="910.438,623.002 766.157,564.838 771.379,668.058 841.011,699.699 " />
<polygon stroke="black" stroke-width="1" fill="rgb(128, 128, 128)" fill-opacity="0.25" points="699.699,694.989 668.058,764.621 768.000,768.000 771.379,668.058 " />
<polygon stroke="black" stroke-width="1" fill="rgb(128, 128, 128)" fill-opacity="0.25" points="694.989,836.301 764.621,867.942 768.000,768.000 668.058,764.621 " />
<polygon stroke="black" stroke-width="1" fill="rgb(128, 128, 128)" fill-opacity="0.25" points="836.301,841.011 867.942,771.379 768.000,768.000 764.621,867.942 " />
<polygon stroke="black" stroke-width="1" fill="rgb(128, 128, 128)" fill-opacity="0.25" points="841.011,699.699 771.379,668.058 768.000,768.000 867.942,771.379 " />
<polygon stroke="black" stroke-width="1" fill="rgb(128, 128, 128)" fill-opacity="0.25" points="250.061,971.162 257.331,867.942 186.266,839.680 108.237,907.469 " />
<polygon stroke="black" stroke-width="1" fill="rgb(128, 128, 128)" fill-opacity="0.25" points="108.237,907.469 186.266,839.680 156.058,769.331 52.838,762.061 " />
<polygon stroke="black" stroke-width="1" fill="rgb(128, 128, 128)" fill-opacity="0.25" points="52.838,762.061 156.058,769.331 184.320,698.266 116.531,620.237 " />
<polygon stroke="black" stroke-width="1" fill="rgb(128, 128, 128)" fill-opacity="0.25" points="116.531,620.237 184.320,698.266 254.669,668.058 261.939,564.838 " />
<polygon stroke="black" stroke-width="1" fill="rgb(128, 128, 128)" fill-opacity="0.25" points="261.939,564.838 254.669,668.058 325.734,696.320 403.763,628.531 " />
<polygon stroke="black" stroke-width="1" fill="rgb(128, 128, 128)" fill-opacity="0.25" points="403.763,628.531 325.734,696.320 355.942,766.669 459.162,773.939 " />
<polygon stroke="black" stroke-width="1" fill="rgb(128, 128, 128)" fill-opacity="0.25" points="459.162,773.939 355.942,766.669 327.680,837.734 395.469,915.763 " />
<polygon stroke="black" stroke-width="1" fill="rgb(128, 128, 128)" fill-opacity="0.25" points="395.469,915.763 327.680,837.734 257.331,867.942 250.061,971.162 " />
<polygon stroke="black" stroke-width="1" fill="rgb(128, 128, 128)" fill-opacity="0.25" points="186.266,839.680 257.331,867.942 256.000,768.000 156.058,769.331 " />
<polygon stroke="black" stroke-width="1" fill="rgb(128, 128, 128)" fill-opacity="0.25" points="184.320,698.266 156.058,769.331 256.000,768.000 254.669,668.058 " />
<polygon stroke="black" stroke-width="1" fill="rgb(128, 128, 128)" fill-opacity="0.25" points="325.734,696.320 254.669,668.058 256.000,768.000 355.942,766.669 " />
<polygon stroke="black" stroke-width="1" fill="rgb(128, 128, 128)" fill-opacity="0.25" points="327.680,837.734 355.942,766.669 256.000,768.000 257.331,867.942 " />

</svg>
