<?xml version="1.0" standalone="no"?>
<!DOCTYPE svg PUBLIC "-//W3C//DTD SVG 1.1//EN" 
  "http://www.w3.org/Graphics/SVG/1.1/DTD/svg11.dtd">
<svg width="1024" height="1024" viewBox="0 0 1024 1024"
     xmlns="http://www.w3.org/2000/svg" version="1.1">
<desc>, (Blender 4.0.2)</desc>
<polygon stroke="black" stroke-width="1" fill="rgb(128, 128, 128)" fill-opacity="0.25" points="787.251,412.672 953.856,412.774 953.446,302.592 787.354,302.285 " />
<polygon stroke="black" stroke-width="1" fill="rgb(128, 128, 128)" fill-opacity="0.25" points="191.590,830.464 525.005,830.464 525.107,719.462 191.386,719.462 " />
<polygon stroke="black" stroke-width="1" fill="rgb(128, 128, 128)" fill-opacity="0.25" points="70.246,412.570 236.749,412.877 236.851,302.592 70.758,302.182 " />
<polygon stroke="black" stroke-width="1" fill="rgb(128, 128, 128)" fill-opacity="0.25" points="345.088,365.158 678.810,365.261 678.605,254.362 345.498,254.157 " />
<polygon stroke="black" stroke-width="1" fill="rgb(128, 128, 128)" fill-opacity="0.25" points="787.046,249.446 953.856,250.163 899.686,49.254 " />
<polygon stroke="black" stroke-width="1" fill="rgb(128, 128, 128)" fill-opacity="0.25" points="345.395,211.251 678.707,211.456 512.205,53.555 " />
<polygon stroke="black" stroke-width="1" fill="rgb(128, 128, 128)" fill-opacity="0.25" points="678.810,375.501 345.088,375.398 407.450,488.653 616.448,488.653 " />
<polygon stroke="black" stroke-width="1" fill="rgb(128, 128, 128)" fill-opacity="0.25" points="236.544,440.627 70.144,440.422 132.403,568.115 216.269,567.808 " />
<polygon stroke="black" stroke-width="1" fill="rgb(128, 128, 128)" fill-opacity="0.25" points="525.107,858.624 191.488,858.624 253.645,986.522 462.950,986.419 " />
<polygon stroke="black" stroke-width="1" fill="rgb(128, 128, 128)" fill-opacity="0.25" points="953.754,440.627 787.251,440.422 807.526,567.808 891.187,568.013 " />
<polygon stroke="black" stroke-width="1" fill="rgb(128, 128, 128)" fill-opacity="0.25" points="872.346,814.694 872.243,731.443 663.757,731.443 663.654,814.797 " />
<polygon stroke="black" stroke-width="1" fill="rgb(128, 128, 128)" fill-opacity="0.25" points="525.107,693.862 358.298,569.139 191.488,693.965 " />
<polygon stroke="black" stroke-width="1" fill="rgb(128, 128, 128)" fill-opacity="0.25" points="70.656,249.754 237.466,249.754 125.542,49.152 " />
<polygon stroke="black" stroke-width="1" fill="rgb(128, 128, 128)" fill-opacity="0.25" points="678.502,232.960 678.707,211.456 345.395,211.251 345.600,232.755 " />
<polygon stroke="black" stroke-width="1" fill="rgb(128, 128, 128)" fill-opacity="0.25" points="512.205,53.555 529.920,34.611 494.490,34.611 " />
<polygon stroke="black" stroke-width="1" fill="rgb(128, 128, 128)" fill-opacity="0.25" points="345.395,211.251 326.554,193.331 345.600,232.755 " />
<polygon stroke="black" stroke-width="1" fill="rgb(128, 128, 128)" fill-opacity="0.25" points="720.998,251.597 678.605,254.362 678.810,365.261 721.613,366.285 " />
<polygon stroke="black" stroke-width="1" fill="rgb(128, 128, 128)" fill-opacity="0.25" points="616.448,488.653 651.264,508.416 714.650,393.728 678.810,375.501 " />
<polygon stroke="black" stroke-width="1" fill="rgb(128, 128, 128)" fill-opacity="0.25" points="678.810,375.501 678.810,365.261 345.088,365.158 345.088,375.398 " />
<polygon stroke="black" stroke-width="1" fill="rgb(128, 128, 128)" fill-opacity="0.25" points="407.450,488.653 345.088,375.398 309.453,393.421 372.429,508.518 " />
<polygon stroke="black" stroke-width="1" fill="rgb(128, 128, 128)" fill-opacity="0.25" points="70.656,249.754 38.605,243.200 71.066,275.968 " />
<polygon stroke="black" stroke-width="1" fill="rgb(128, 128, 128)" fill-opacity="0.25" points="237.466,249.754 236.749,276.173 260.915,238.490 " />
<polygon stroke="black" stroke-width="1" fill="rgb(128, 128, 128)" fill-opacity="0.25" points="125.542,49.152 148.173,36.352 125.030,17.203 " />
<polygon stroke="black" stroke-width="1" fill="rgb(128, 128, 128)" fill-opacity="0.25" points="191.488,693.965 170.906,668.877 191.386,706.765 " />
<polygon stroke="black" stroke-width="1" fill="rgb(128, 128, 128)" fill-opacity="0.25" points="358.298,510.157 339.046,542.822 377.446,542.822 " />
<polygon stroke="black" stroke-width="1" fill="rgb(128, 128, 128)" fill-opacity="0.25" points="191.386,719.462 149.094,717.722 148.890,832.819 191.590,830.464 " />
<polygon stroke="black" stroke-width="1" fill="rgb(128, 128, 128)" fill-opacity="0.25" points="462.950,986.419 253.645,986.522 253.440,1015.603 463.258,1015.501 " />
<polygon stroke="black" stroke-width="1" fill="rgb(128, 128, 128)" fill-opacity="0.25" points="191.488,858.624 525.107,858.624 525.005,844.595 191.590,844.595 " />
<polygon stroke="black" stroke-width="1" fill="rgb(128, 128, 128)" fill-opacity="0.25" points="253.645,986.522 191.488,858.624 158.208,872.448 220.979,1002.598 " />
<polygon stroke="black" stroke-width="1" fill="rgb(128, 128, 128)" fill-opacity="0.25" points="236.749,412.877 70.246,412.570 70.144,426.496 236.646,426.701 " />
<polygon stroke="black" stroke-width="1" fill="rgb(128, 128, 128)" fill-opacity="0.25" points="70.758,302.182 236.851,302.592 236.749,276.173 71.066,275.968 " />
<polygon stroke="black" stroke-width="1" fill="rgb(128, 128, 128)" fill-opacity="0.25" points="70.246,412.570 27.341,414.413 70.144,426.496 " />
<polygon stroke="black" stroke-width="1" fill="rgb(128, 128, 128)" fill-opacity="0.25" points="216.883,596.787 216.269,567.808 132.403,568.115 132.096,597.197 " />
<polygon stroke="black" stroke-width="1" fill="rgb(128, 128, 128)" fill-opacity="0.25" points="236.544,440.627 276.582,444.518 236.646,426.701 " />
<polygon stroke="black" stroke-width="1" fill="rgb(128, 128, 128)" fill-opacity="0.25" points="70.144,440.422 70.144,426.496 36.864,454.144 " />
<polygon stroke="black" stroke-width="1" fill="rgb(128, 128, 128)" fill-opacity="0.25" points="132.403,568.115 70.144,440.422 36.864,454.144 99.738,584.192 " />
<polygon stroke="black" stroke-width="1" fill="rgb(128, 128, 128)" fill-opacity="0.25" points="900.403,17.408 899.686,49.254 931.226,40.653 " />
<polygon stroke="black" stroke-width="1" fill="rgb(128, 128, 128)" fill-opacity="0.25" points="787.046,249.446 899.686,49.254 877.158,36.454 763.597,238.080 " />
<polygon stroke="black" stroke-width="1" fill="rgb(128, 128, 128)" fill-opacity="0.25" points="953.856,412.774 996.045,414.822 996.352,298.906 953.446,302.592 " />
<polygon stroke="black" stroke-width="1" fill="rgb(128, 128, 128)" fill-opacity="0.25" points="787.251,412.672 787.354,302.285 745.062,299.008 744.448,414.925 " />
<polygon stroke="black" stroke-width="1" fill="rgb(128, 128, 128)" fill-opacity="0.25" points="807.526,567.808 806.810,596.890 891.494,596.992 891.187,568.013 " />
<polygon stroke="black" stroke-width="1" fill="rgb(128, 128, 128)" fill-opacity="0.25" points="901.222,730.624 872.243,731.443 872.346,814.694 901.222,815.206 " />
<polygon stroke="black" stroke-width="1" fill="rgb(128, 128, 128)" fill-opacity="0.25" points="663.757,731.443 872.243,731.443 872.653,693.760 663.347,693.760 " />
<polygon stroke="black" stroke-width="1" fill="rgb(128, 128, 128)" fill-opacity="0.25" points="663.757,731.443 634.778,730.522 634.675,815.206 663.654,814.797 " />
<polygon stroke="black" stroke-width="1" fill="rgb(128, 128, 128)" fill-opacity="0.25" points="953.344,276.275 787.661,275.968 787.354,302.285 953.446,302.592 " />
<polygon stroke="black" stroke-width="1" fill="rgb(128, 128, 128)" fill-opacity="0.25" points="663.347,843.776 872.550,843.776 872.346,814.694 663.654,814.797 " />
<polygon stroke="black" stroke-width="1" fill="rgb(128, 128, 128)" fill-opacity="0.25" points="191.590,830.464 191.590,844.595 525.005,844.595 525.005,830.464 " />
<polygon stroke="black" stroke-width="1" fill="rgb(128, 128, 128)" fill-opacity="0.25" points="807.526,567.808 767.488,574.362 806.810,596.890 " />
<polygon stroke="black" stroke-width="1" fill="rgb(128, 128, 128)" fill-opacity="0.25" points="807.526,567.808 787.251,440.422 747.315,444.109 767.488,574.362 " />
<polygon stroke="black" stroke-width="1" fill="rgb(128, 128, 128)" fill-opacity="0.25" points="872.243,731.443 901.222,730.624 872.653,693.760 " />
<polygon stroke="black" stroke-width="1" fill="rgb(128, 128, 128)" fill-opacity="0.25" points="616.448,488.653 407.450,488.653 407.040,526.336 616.858,526.336 " />
<polygon stroke="black" stroke-width="1" fill="rgb(128, 128, 128)" fill-opacity="0.25" points="663.757,731.443 663.347,693.760 634.778,730.522 " />
<polygon stroke="black" stroke-width="1" fill="rgb(128, 128, 128)" fill-opacity="0.25" points="616.448,488.653 616.858,526.336 651.264,508.416 " />
<polygon stroke="black" stroke-width="1" fill="rgb(128, 128, 128)" fill-opacity="0.25" points="872.653,693.760 901.222,730.624 909.414,687.206 " />
<polygon stroke="black" stroke-width="1" fill="rgb(128, 128, 128)" fill-opacity="0.25" points="216.269,567.808 216.883,596.787 255.898,574.259 " />
<polygon stroke="black" stroke-width="1" fill="rgb(128, 128, 128)" fill-opacity="0.25" points="634.778,730.522 663.347,693.760 626.586,687.206 " />
<polygon stroke="black" stroke-width="1" fill="rgb(128, 128, 128)" fill-opacity="0.25" points="407.450,488.653 372.429,508.518 407.040,526.336 " />
<polygon stroke="black" stroke-width="1" fill="rgb(128, 128, 128)" fill-opacity="0.25" points="462.950,986.419 463.258,1015.501 495.514,1002.394 " />
<polygon stroke="black" stroke-width="1" fill="rgb(128, 128, 128)" fill-opacity="0.25" points="629.862,848.794 663.347,843.776 634.675,815.206 " />
<polygon stroke="black" stroke-width="1" fill="rgb(128, 128, 128)" fill-opacity="0.25" points="663.347,843.776 663.654,814.797 634.675,815.206 " />
<polygon stroke="black" stroke-width="1" fill="rgb(128, 128, 128)" fill-opacity="0.25" points="891.494,596.992 923.648,584.090 891.187,568.013 " />
<polygon stroke="black" stroke-width="1" fill="rgb(128, 128, 128)" fill-opacity="0.25" points="923.648,584.090 987.136,454.656 953.754,440.627 891.187,568.013 " />
<polygon stroke="black" stroke-width="1" fill="rgb(128, 128, 128)" fill-opacity="0.25" points="253.645,986.522 220.979,1002.598 253.440,1015.603 " />
<polygon stroke="black" stroke-width="1" fill="rgb(128, 128, 128)" fill-opacity="0.25" points="906.138,848.794 901.222,815.206 872.550,843.776 " />
<polygon stroke="black" stroke-width="1" fill="rgb(128, 128, 128)" fill-opacity="0.25" points="901.222,815.206 872.346,814.694 872.550,843.776 " />
<polygon stroke="black" stroke-width="1" fill="rgb(128, 128, 128)" fill-opacity="0.25" points="345.088,375.398 302.387,366.080 309.453,393.421 " />
<polygon stroke="black" stroke-width="1" fill="rgb(128, 128, 128)" fill-opacity="0.25" points="987.136,454.656 953.754,426.701 953.754,440.627 " />
<polygon stroke="black" stroke-width="1" fill="rgb(128, 128, 128)" fill-opacity="0.25" points="714.650,393.728 721.613,366.285 678.810,375.501 " />
<polygon stroke="black" stroke-width="1" fill="rgb(128, 128, 128)" fill-opacity="0.25" points="787.251,440.422 787.251,426.598 747.315,444.109 " />
<polygon stroke="black" stroke-width="1" fill="rgb(128, 128, 128)" fill-opacity="0.25" points="236.544,440.627 216.269,567.808 255.898,574.259 276.582,444.518 " />
<polygon stroke="black" stroke-width="1" fill="rgb(128, 128, 128)" fill-opacity="0.25" points="525.107,858.624 462.950,986.419 495.514,1002.394 558.490,872.550 " />
<polygon stroke="black" stroke-width="1" fill="rgb(128, 128, 128)" fill-opacity="0.25" points="70.144,440.422 236.544,440.627 236.646,426.701 70.144,426.496 " />
<polygon stroke="black" stroke-width="1" fill="rgb(128, 128, 128)" fill-opacity="0.25" points="525.005,844.595 525.107,858.624 558.490,872.550 " />
<polygon stroke="black" stroke-width="1" fill="rgb(128, 128, 128)" fill-opacity="0.25" points="70.246,412.570 70.758,302.182 28.467,298.394 27.341,414.413 " />
<polygon stroke="black" stroke-width="1" fill="rgb(128, 128, 128)" fill-opacity="0.25" points="567.296,832.819 525.005,830.464 525.005,844.595 " />
<polygon stroke="black" stroke-width="1" fill="rgb(128, 128, 128)" fill-opacity="0.25" points="27.341,414.413 36.864,454.144 70.144,426.496 " />
<polygon stroke="black" stroke-width="1" fill="rgb(128, 128, 128)" fill-opacity="0.25" points="567.296,832.819 525.005,844.595 558.490,872.550 " />
<polygon stroke="black" stroke-width="1" fill="rgb(128, 128, 128)" fill-opacity="0.25" points="158.208,872.448 191.488,858.624 191.590,844.595 " />
<polygon stroke="black" stroke-width="1" fill="rgb(128, 128, 128)" fill-opacity="0.25" points="953.856,412.774 787.251,412.672 787.251,426.598 953.754,426.701 " />
<polygon stroke="black" stroke-width="1" fill="rgb(128, 128, 128)" fill-opacity="0.25" points="953.856,412.774 953.754,426.701 996.045,414.822 " />
<polygon stroke="black" stroke-width="1" fill="rgb(128, 128, 128)" fill-opacity="0.25" points="191.590,844.595 191.590,830.464 148.890,832.819 " />
<polygon stroke="black" stroke-width="1" fill="rgb(128, 128, 128)" fill-opacity="0.25" points="953.754,426.701 987.136,454.656 996.045,414.822 " />
<polygon stroke="black" stroke-width="1" fill="rgb(128, 128, 128)" fill-opacity="0.25" points="158.208,872.448 191.590,844.595 148.890,832.819 " />
<polygon stroke="black" stroke-width="1" fill="rgb(128, 128, 128)" fill-opacity="0.25" points="236.749,412.877 236.646,426.701 278.938,415.334 " />
<polygon stroke="black" stroke-width="1" fill="rgb(128, 128, 128)" fill-opacity="0.25" points="345.088,365.158 345.498,254.157 303.104,251.290 302.387,366.080 " />
<polygon stroke="black" stroke-width="1" fill="rgb(128, 128, 128)" fill-opacity="0.25" points="278.938,415.334 236.646,426.701 276.582,444.518 " />
<polygon stroke="black" stroke-width="1" fill="rgb(128, 128, 128)" fill-opacity="0.25" points="787.251,412.672 744.448,414.925 787.251,426.598 " />
<polygon stroke="black" stroke-width="1" fill="rgb(128, 128, 128)" fill-opacity="0.25" points="787.251,440.422 953.754,440.627 953.754,426.701 787.251,426.598 " />
<polygon stroke="black" stroke-width="1" fill="rgb(128, 128, 128)" fill-opacity="0.25" points="787.251,426.598 744.448,414.925 747.315,444.109 " />
<polygon stroke="black" stroke-width="1" fill="rgb(128, 128, 128)" fill-opacity="0.25" points="678.605,254.362 720.998,251.597 678.502,232.960 " />
<polygon stroke="black" stroke-width="1" fill="rgb(128, 128, 128)" fill-opacity="0.25" points="787.661,275.968 953.344,276.275 953.856,250.163 787.046,249.446 " />
<polygon stroke="black" stroke-width="1" fill="rgb(128, 128, 128)" fill-opacity="0.25" points="678.707,211.456 678.502,232.960 697.549,193.638 " />
<polygon stroke="black" stroke-width="1" fill="rgb(128, 128, 128)" fill-opacity="0.25" points="678.502,232.960 720.998,251.597 697.549,193.638 " />
<polygon stroke="black" stroke-width="1" fill="rgb(128, 128, 128)" fill-opacity="0.25" points="745.062,299.008 787.661,275.968 763.597,238.080 " />
<polygon stroke="black" stroke-width="1" fill="rgb(128, 128, 128)" fill-opacity="0.25" points="787.661,275.968 787.046,249.446 763.597,238.080 " />
<polygon stroke="black" stroke-width="1" fill="rgb(128, 128, 128)" fill-opacity="0.25" points="745.062,299.008 787.354,302.285 787.661,275.968 " />
<polygon stroke="black" stroke-width="1" fill="rgb(128, 128, 128)" fill-opacity="0.25" points="191.386,719.462 525.107,719.462 525.107,706.662 191.386,706.765 " />
<polygon stroke="black" stroke-width="1" fill="rgb(128, 128, 128)" fill-opacity="0.25" points="149.094,717.722 191.386,719.462 191.386,706.765 " />
<polygon stroke="black" stroke-width="1" fill="rgb(128, 128, 128)" fill-opacity="0.25" points="953.856,250.163 953.344,276.275 985.805,243.712 " />
<polygon stroke="black" stroke-width="1" fill="rgb(128, 128, 128)" fill-opacity="0.25" points="191.488,693.965 358.298,569.139 339.046,542.822 170.906,668.877 " />
<polygon stroke="black" stroke-width="1" fill="rgb(128, 128, 128)" fill-opacity="0.25" points="953.344,276.275 996.352,298.906 985.805,243.712 " />
<polygon stroke="black" stroke-width="1" fill="rgb(128, 128, 128)" fill-opacity="0.25" points="953.344,276.275 953.446,302.592 996.352,298.906 " />
<polygon stroke="black" stroke-width="1" fill="rgb(128, 128, 128)" fill-opacity="0.25" points="149.094,717.722 191.386,706.765 170.906,668.877 " />
<polygon stroke="black" stroke-width="1" fill="rgb(128, 128, 128)" fill-opacity="0.25" points="525.107,719.462 525.005,830.464 567.296,832.819 567.910,717.722 " />
<polygon stroke="black" stroke-width="1" fill="rgb(128, 128, 128)" fill-opacity="0.25" points="525.107,719.462 567.910,717.722 525.107,706.662 " />
<polygon stroke="black" stroke-width="1" fill="rgb(128, 128, 128)" fill-opacity="0.25" points="525.107,693.862 191.488,693.965 191.386,706.765 525.107,706.662 " />
<polygon stroke="black" stroke-width="1" fill="rgb(128, 128, 128)" fill-opacity="0.25" points="70.758,302.182 71.066,275.968 28.467,298.394 " />
<polygon stroke="black" stroke-width="1" fill="rgb(128, 128, 128)" fill-opacity="0.25" points="525.107,693.862 525.107,706.662 545.690,668.774 " />
<polygon stroke="black" stroke-width="1" fill="rgb(128, 128, 128)" fill-opacity="0.25" points="70.656,249.754 125.542,49.152 94.208,40.346 38.605,243.200 " />
<polygon stroke="black" stroke-width="1" fill="rgb(128, 128, 128)" fill-opacity="0.25" points="525.107,706.662 567.910,717.722 545.690,668.774 " />
<polygon stroke="black" stroke-width="1" fill="rgb(128, 128, 128)" fill-opacity="0.25" points="28.467,298.394 71.066,275.968 38.605,243.200 " />
<polygon stroke="black" stroke-width="1" fill="rgb(128, 128, 128)" fill-opacity="0.25" points="345.498,254.157 678.605,254.362 678.502,232.960 345.600,232.755 " />
<polygon stroke="black" stroke-width="1" fill="rgb(128, 128, 128)" fill-opacity="0.25" points="345.498,254.157 345.600,232.755 303.104,251.290 " />
<polygon stroke="black" stroke-width="1" fill="rgb(128, 128, 128)" fill-opacity="0.25" points="236.851,302.592 236.749,412.877 278.938,415.334 279.859,299.418 " />
<polygon stroke="black" stroke-width="1" fill="rgb(128, 128, 128)" fill-opacity="0.25" points="899.686,49.254 900.403,17.408 877.158,36.454 " />
<polygon stroke="black" stroke-width="1" fill="rgb(128, 128, 128)" fill-opacity="0.25" points="899.686,49.254 953.856,250.163 985.805,243.712 931.226,40.653 " />
<polygon stroke="black" stroke-width="1" fill="rgb(128, 128, 128)" fill-opacity="0.25" points="358.298,569.139 525.107,693.862 545.690,668.774 377.446,542.822 " />
<polygon stroke="black" stroke-width="1" fill="rgb(128, 128, 128)" fill-opacity="0.25" points="125.542,49.152 125.030,17.203 94.208,40.346 " />
<polygon stroke="black" stroke-width="1" fill="rgb(128, 128, 128)" fill-opacity="0.25" points="339.046,542.822 358.298,569.139 377.446,542.822 " />
<polygon stroke="black" stroke-width="1" fill="rgb(128, 128, 128)" fill-opacity="0.25" points="125.542,49.152 237.466,249.754 260.915,238.490 148.173,36.352 " />
<polygon stroke="black" stroke-width="1" fill="rgb(128, 128, 128)" fill-opacity="0.25" points="512.205,53.555 678.707,211.456 697.549,193.638 529.920,34.611 " />
<polygon stroke="black" stroke-width="1" fill="rgb(128, 128, 128)" fill-opacity="0.25" points="345.395,211.251 512.205,53.555 494.490,34.611 326.554,193.331 " />
<polygon stroke="black" stroke-width="1" fill="rgb(128, 128, 128)" fill-opacity="0.25" points="237.466,249.754 70.656,249.754 71.066,275.968 236.749,276.173 " />
<polygon stroke="black" stroke-width="1" fill="rgb(128, 128, 128)" fill-opacity="0.25" points="236.749,276.173 279.859,299.418 260.915,238.490 " />
<polygon stroke="black" stroke-width="1" fill="rgb(128, 128, 128)" fill-opacity="0.25" points="236.749,276.173 236.851,302.592 279.859,299.418 " />
<polygon stroke="black" stroke-width="1" fill="rgb(128, 128, 128)" fill-opacity="0.25" points="303.104,251.290 345.600,232.755 326.554,193.331 " />
<polygon stroke="black" stroke-width="1" fill="rgb(128, 128, 128)" fill-opacity="0.25" points="529.920,34.611 512.205,11.264 494.490,34.611 " />
<polygon stroke="black" stroke-width="1" fill="rgb(128, 128, 128)" fill-opacity="0.25" points="721.613,366.285 678.810,365.261 678.810,375.501 " />
<polygon stroke="black" stroke-width="1" fill="rgb(128, 128, 128)" fill-opacity="0.25" points="345.088,375.398 345.088,365.158 302.387,366.080 " />
<polygon stroke="black" stroke-width="1" fill="rgb(128, 128, 128)" fill-opacity="0.25" points="132.403,568.115 99.738,584.192 132.096,597.197 " />

</svg>
